<svg width="109" height="86" viewBox="0 0 109 86" fill="none" xmlns="http://www.w3.org/2000/svg">
<mask id="mask0_194_3444" style="mask-type:luminance" maskUnits="userSpaceOnUse" x="0" y="0" width="109" height="86">
<path d="M0.412109 0.639893H108.589V85.6399H0.412109V0.639893Z" fill="white"/>
</mask>
<g mask="url(#mask0_194_3444)">
<path d="M6.04366 39.7805C7.65278 39.6042 6.63687 37.4649 4.41447 39.1013C4.39011 39.1228 4.37148 39.1443 4.34426 39.1586C4.65949 39.6114 5.20399 39.8707 6.04366 39.7805ZM6.47925 45.4833C8.67156 45.2097 5.34441 45.1036 4.8429 45.1667C4.73687 45.181 4.65376 45.2025 4.55489 45.224C5.12661 45.469 5.78717 45.5636 6.47925 45.4833ZM11.9658 20.1199C12.4601 19.488 9.09283 17.9663 8.83205 19.1398C8.64291 19.9866 9.2046 20.1514 9.89668 20.2489C10.2649 20.299 11.3897 20.4394 11.8311 20.2145C11.8884 20.1901 11.9371 20.1586 11.9658 20.1199ZM19.7793 13.5344C19.8208 13.0185 19.9054 12.5056 20.0143 12.0169C19.4913 12.0456 18.9754 12.08 18.4581 12.1445C17.9667 12.2004 16.8505 12.2777 16.5481 12.7649C16.1799 13.3796 16.6613 14.7494 17.2545 15.0804C17.918 15.4487 18.898 15.2796 19.6876 15.2237C19.6804 14.652 19.7091 14.086 19.7793 13.5344ZM23.4388 31.1617C23.8744 30.0555 24.3631 28.8605 24.9419 27.611C23.8673 26.7083 23.0419 25.668 22.3928 24.612C21.6091 23.3324 21.0574 22.0471 20.6433 20.7762C20.2679 19.6069 20.0071 18.4907 19.8495 17.3731C18.4453 17.4046 16.71 17.7356 15.6597 16.5835C15.5164 16.4145 15.3689 16.1608 15.2342 15.9445C15.1081 15.7367 14.982 15.5605 14.8802 15.5605C13.6193 15.5605 12.3125 15.8628 11.1261 16.3084C10.4125 16.5764 9.39087 16.8329 8.83921 17.4261C11.2379 17.1911 13.7454 18.0336 13.7454 20.1973C13.7454 22.957 8.45663 22.2162 6.84177 20.3334C6.49645 20.6844 6.36749 21.1659 6.64404 21.8437C6.72141 22.0199 6.80595 22.209 6.90482 22.3953C8.69162 22.5773 10.6805 23.5574 11.6563 24.6048C12.0919 25.0748 12.0704 25.9388 11.4456 26.2555C9.53129 27.2069 7.47654 26.4805 6.09238 25.0189C5.56937 25.6608 5.3874 26.2827 5.55504 26.8903C7.99238 26.416 11.7336 27.2313 10.3925 29.8836C9.63016 31.3866 7.44932 31.0213 6.14253 30.4696C6.16975 30.7891 6.20557 31.1058 6.23996 31.421C7.51236 31.3222 8.74751 31.7133 9.60867 32.8511C10.1102 33.5245 9.41953 34.41 8.69879 34.4315C7.8276 34.4587 6.79162 34.1822 5.82586 33.6965C4.9475 34.4029 4.19954 35.9346 4.03189 37.2901C6.48642 36.1596 9.4052 36.2713 9.4052 39.3091C9.4052 42.5474 5.20399 42.3367 3.21372 40.3307C2.95723 40.7276 2.75949 41.1704 2.64056 41.659C2.54313 42.3224 2.62623 42.9299 2.83114 43.4644C4.61794 42.9085 7.30889 42.5818 8.65724 44.0505C9.46825 44.9288 9.77775 46.4735 8.39358 47.0738C6.41621 47.9422 4.45602 47.6714 2.98875 46.7056C2.88702 47.7803 3.63498 49.1773 4.4288 50.1302C6.3245 49.494 8.84638 49.5785 9.86086 51.3453C11.0201 53.3785 9.04984 54.0663 7.30173 54.2311C6.37465 54.3228 5.30286 53.8485 4.29124 53.059C3.70806 54.9862 4.70248 55.9176 7.27307 55.8545C8.74177 55.7628 10.4555 55.3516 11.993 55.5665C12.516 53.7783 13.1937 52.1563 13.893 50.6675C14.6968 48.9495 15.5365 47.3977 16.3203 45.9992C17.8965 43.218 19.2806 41.0443 20.212 39.534C20.5903 38.9551 20.8754 38.4737 21.1075 38.1011C21.1348 37.9822 21.1706 37.8618 21.2121 37.7386C21.6793 36.1653 22.3857 33.9142 23.4388 31.1617ZM46.4911 14.5818C46.5054 14.2408 46.4982 13.9169 46.4352 13.6476C46.3721 13.3724 46.2604 13.1418 46.0139 12.9053C45.7789 12.6531 45.3992 12.4568 44.9392 12.2491C44.4506 12.0313 43.9391 11.8135 43.5135 11.7117C43.0851 11.62 42.8702 11.663 42.499 11.8622C42.3328 11.9324 42.1222 12.1158 41.9474 12.2347C41.7711 12.3823 41.6064 12.5199 41.4373 12.6603C40.8097 13.2678 40.3526 13.9671 40.0331 14.556C39.7938 15.0102 39.6361 15.4129 39.5444 15.7295C39.5731 15.7295 39.6046 15.7224 39.6433 15.7224C42.0033 15.7295 44.24 16.0075 46.365 16.4145C46.365 16.4001 46.365 16.393 46.365 16.3729C46.3936 15.9502 46.4352 15.3369 46.4911 14.5818ZM61.6495 81.3871C61.8816 80.5474 61.8745 79.4727 61.6982 78.3236C61.5721 77.471 61.3787 76.5826 61.1537 75.6484C60.9431 75.753 60.7511 75.8619 60.476 75.9536C60.3499 76.0023 60.188 76.0582 60.0862 76.0868L59.7982 76.1571L59.6506 76.1929C59.6091 76.1986 59.5876 76.2058 59.5733 76.2058H59.5675C59.5604 76.2058 59.5317 76.2129 59.5317 76.2129H59.4902L59.3985 76.2201L59.0302 76.2488C58.7909 76.2631 58.5488 76.2831 58.3166 76.276C57.8638 76.2201 57.3924 76.1986 56.9826 76.0868C56.5742 75.9751 56.1501 75.8934 55.7847 75.7458C54.2573 75.2085 53.0164 74.5135 51.8644 73.9977C50.6994 73.4948 49.5302 73.0391 48.5043 72.6279C47.9941 72.4244 47.5027 72.2381 47.0355 72.0619C46.1687 71.8584 45.2487 71.6334 44.2472 71.3698C42.6882 70.9801 41.0089 70.5172 39.2149 70.0071C38.305 69.7478 37.3994 69.5271 36.4537 69.2663C35.9809 69.1402 35.5023 68.9998 35.0151 68.8809C34.5122 68.772 34.0035 68.6588 33.4905 68.547C31.4501 68.0828 29.318 67.5942 27.0956 67.0926C25.9708 66.8748 24.8302 66.6613 23.671 66.4364C22.5677 66.2186 21.4615 66.134 20.2249 66.0323C19.0026 65.9191 17.7747 65.836 16.5066 65.5337C16.2071 65.4907 15.8489 65.3646 15.5164 65.2657C15.1783 65.164 14.8315 65.0522 14.5922 64.919L14.1982 64.7355L13.999 64.6453L13.9489 64.6267L13.9288 64.6095L13.8299 64.5536C13.8156 64.5493 13.6967 64.4733 13.6967 64.4733C13.5978 64.4031 13.5032 64.3315 13.4044 64.2613C13.4889 65.0665 13.5706 65.8489 13.648 66.6112C13.6967 67.0855 13.7454 67.5383 13.7884 67.9882C13.8084 68.4338 13.8228 68.8737 13.8443 69.3021C13.8787 70.0917 13.9919 70.4886 14.3458 70.8998C15.0937 71.6764 16.3762 72.1536 17.4365 72.4946C17.7102 72.5849 17.9667 72.6694 18.2275 72.754C18.4839 72.8242 18.7433 72.8872 18.9826 72.9574C19.4698 73.0878 19.9297 73.2067 20.3653 73.2985C26.5998 74.7872 32.6795 77.13 38.8251 79.0013C41.3814 79.7708 43.8187 80.4414 46.0555 81.0002C47.176 81.2524 48.2377 81.5304 49.2379 81.7267C49.7408 81.8327 50.2208 81.9373 50.6851 82.0362C51.1522 82.1207 51.6021 82.1938 52.0334 82.2826C54.263 82.6853 60.5892 84.5652 61.6495 81.3871ZM68.0588 18.9779C68.2207 18.7773 68.4915 18.5666 68.7724 18.3703C66.9497 18.0436 65.1013 17.7556 63.2859 17.2742C58.4571 15.9817 53.8145 13.9528 48.7994 13.6261C48.894 14.0789 48.9284 14.4657 48.9642 14.7781C49.0273 15.5261 49.076 16.0075 49.1333 16.3228C49.1892 16.6394 49.2236 16.7827 49.2236 16.7827C49.2379 16.8673 49.2092 16.9518 49.1533 17.022C50.228 17.2885 51.2783 17.5593 52.2871 17.8258C52.5077 17.8889 52.7112 17.9462 52.9362 18.0093C54.3719 18.1325 56.3393 18.5881 58.619 19.3863C59.8341 19.7889 61.1337 20.3062 62.5164 20.812C63.5839 21.2017 64.7546 21.5872 65.9697 22.0056C65.9697 21.9984 65.9697 21.9984 65.9768 21.9984C65.9768 21.9984 66.1172 21.8795 66.3522 21.5599C66.6044 21.2361 66.8924 20.587 67.5 19.6771C67.5773 19.5654 67.6476 19.4565 67.7464 19.3361C67.841 19.2243 67.9542 19.104 68.0588 18.9779ZM75.5642 33.9644C75.8307 32.2435 75.8737 30.5685 74.9911 29.4193C74.8936 29.2688 74.7489 29.1413 74.6372 29.0009L74.1657 28.5983L73.6212 28.134L73.359 27.9019L73.0911 27.7371C72.74 27.5121 72.399 27.2872 72.0594 27.0665C71.6869 26.8559 71.2799 26.6524 70.9031 26.4518L70.3313 26.1423L69.7381 25.8758C69.3441 25.6967 68.9543 25.5147 68.5675 25.3384C67.7636 25.0189 67.0056 24.6894 66.2218 24.3899C64.6844 23.7795 63.1813 23.2206 61.7899 22.6203C61.6839 22.5773 61.5936 22.5357 61.4948 22.4942C60.1393 22.0686 58.6362 21.6961 57.0457 21.2361C56.2404 20.9982 55.3807 20.7976 54.4851 20.587C53.5996 20.3764 52.684 20.1586 51.7383 19.9365C48.0199 19.0553 43.9104 18.0823 39.6605 18.0823C37.5714 18.121 35.5023 18.4334 33.9361 19.2874L33.406 19.5854C33.3143 19.6284 33.2197 19.7115 33.1151 19.7961L32.8128 20.0425L32.5176 20.2847L32.4431 20.3406L32.4159 20.362L32.3098 20.4738L31.8083 20.9911C31.1449 21.676 30.533 22.4025 29.9742 23.1433C27.7447 26.1222 26.2129 29.2115 24.9778 31.8179C23.7412 34.4315 22.7955 36.598 22.0618 38.0653C21.6306 38.948 21.2867 39.5684 21.0431 39.9209C21.0373 39.9309 21.0373 39.9453 21.0302 39.9624C20.3381 41.616 19.1717 43.9244 17.799 46.7758C17.1141 48.2015 16.3862 49.7648 15.6741 51.4642C15.0106 53.0662 14.3673 54.8042 13.9288 56.6369C13.9919 56.9077 13.9145 57.2029 13.7526 57.4493C13.5978 58.2489 13.5133 59.0613 13.5591 59.8365C13.5978 60.7822 13.893 61.6004 14.4518 62.1306C15.7084 63.2325 18.044 63.4789 20.4226 63.6824C21.6019 63.7741 22.8944 63.883 24.1137 64.1352C25.2715 64.3673 26.4106 64.5951 27.5369 64.8201C28.6617 65.0737 29.7636 65.3717 30.8497 65.6383C31.9172 65.9119 32.9675 66.1684 33.9849 66.4292C34.4978 66.5625 35.0008 66.6857 35.4951 66.8118C35.9938 66.9451 36.4895 67.107 36.971 67.2546C37.9367 67.5526 38.8953 67.8406 39.7809 68.1315C41.5505 68.7218 43.204 69.2663 44.7071 69.7693C45.4279 70.0071 46.1128 70.2292 46.7619 70.447C47.4611 70.6147 48.2306 70.8181 49.0416 71.0546C50.1406 71.3698 51.2998 71.718 52.5923 72.1808C53.8776 72.6694 55.1557 73.2841 56.4582 73.6782C59.5604 74.8431 61.4074 72.9302 62.7485 70.2851C64.2172 67.395 65.1085 64.2555 66.0743 61.4313C66.3207 60.7249 66.5629 60.0271 66.8294 59.3422C66.9698 59.004 67.1174 58.6644 67.2693 58.3263C67.4097 58.0282 67.5358 57.7259 67.6691 57.4422C67.9327 56.8346 68.1992 56.2515 68.4457 55.6926C68.6663 55.1338 68.877 54.5965 69.0804 54.0835C69.9129 52.0431 70.542 50.305 71.1137 49.1702C71.1424 49.1071 71.171 49.0512 71.1982 48.9982C71.343 48.4508 71.5106 47.872 71.7427 47.2716C72.5967 44.893 73.7416 42.1046 74.5942 38.9895C74.7704 38.2 74.9424 37.3947 75.1243 36.5694C75.2719 35.7168 75.4123 34.8528 75.5642 33.9644ZM75.719 25.5491C75.8795 24.7796 76.0342 23.7938 76.0199 22.7048C76.0142 22.1603 75.9439 21.6187 75.739 21.2289L75.676 21.0742C75.6488 21.0326 75.6201 21.0255 75.5986 20.9911L75.5327 20.8994C75.4969 20.8851 75.4697 20.8679 75.441 20.8464C75.3221 20.7547 75.0613 20.6916 74.7489 20.6286C74.0855 20.5369 73.1828 20.5025 72.4491 20.362C71.7012 20.2489 71.0234 20.0984 70.605 20.0984C70.1766 20.1127 70.1766 20.1657 69.966 20.3477C69.8714 20.4881 69.7797 20.6214 69.688 20.7418C69.6034 20.9166 69.5203 21.047 69.4501 21.2218C69.1793 21.8508 68.9472 22.5286 68.7151 22.9928C68.9543 23.0802 69.1865 23.1719 69.4286 23.2565C69.8427 23.4384 70.2611 23.6147 70.6781 23.7938L71.3243 24.0675L71.9534 24.3899C72.3789 24.612 72.8031 24.8083 73.2387 25.0605C73.6714 25.3384 74.1099 25.6193 74.5526 25.9044L74.8793 26.1222L75.153 26.3529L75.4697 26.6166C75.5499 26.3185 75.6344 25.9603 75.719 25.5491ZM82.528 24.0388C82.5352 24.0317 82.5352 24.0317 82.5424 24.0317C82.4234 22.4655 81.2084 21.5026 80.052 20.8851C79.1221 20.3893 78.2509 20.0769 77.5101 19.8247C77.4958 19.8949 77.4671 19.9651 77.4327 20.0354C77.8439 20.7418 78.0617 21.4682 78.132 22.0973C78.3068 23.4241 78.258 24.5475 78.2151 25.5004C78.1592 26.3744 78.089 27.0808 78.0188 27.611C78.7811 27.2456 79.4173 26.8831 79.9044 26.5191C80.6667 25.9532 81.2155 25.4373 81.6053 24.9903C82.0151 24.5547 82.2902 24.2222 82.528 24.0388ZM92.1026 44.5462C92.3691 44.1135 92.5625 43.7911 92.6958 43.5661C90.5422 42.9299 88.5719 41.9327 86.8582 40.7348C84.8608 39.3506 83.0725 37.7529 81.7729 35.787C80.4805 33.8512 79.7955 31.4282 80.3257 29.2474C80.383 28.9937 80.4489 28.7487 80.5191 28.5066C79.7783 29.051 78.8656 29.5454 77.8225 30.0025C77.9342 30.4338 78.0259 30.8665 78.0474 31.2878C78.132 32.3839 77.9973 33.3913 77.8439 34.3255C77.7666 34.7969 77.6777 35.2425 77.5946 35.6853C77.5029 36.1166 77.447 36.5135 77.341 36.9978C77.116 37.8762 76.9025 38.7373 76.6847 39.5756C75.6559 42.8812 74.3277 45.6137 73.2816 47.9207C72.7615 48.991 72.4133 50.0671 72.0694 51.0186C71.7356 51.9657 71.3988 52.791 71.0936 53.4487C71.0234 53.5963 70.9461 53.7367 70.8758 53.8628C70.8056 54.1193 70.7283 54.3858 70.6537 54.6538C70.0992 56.922 68.8985 59.292 68.1433 62.0876C67.2965 64.9118 66.4783 68.1286 64.8448 71.3698C64.4236 72.1751 63.9493 72.9574 63.3704 73.6982C63.2443 73.8573 63.1039 74.0106 62.9635 74.1725C63.2715 75.4506 63.5839 76.7431 63.7673 78.0327C63.8232 78.4153 63.859 78.805 63.8862 79.1991C64.1957 78.9182 64.5439 78.6044 64.9466 78.2261C65.5226 77.716 66.166 77.1013 66.8853 76.3749C68.3124 74.9276 70.1479 73.1853 72.154 70.9385C73.1613 69.818 74.2933 68.6445 75.4123 67.3104C76.5372 65.9764 77.7379 64.5493 79.0203 63.0405C80.2354 61.4729 81.3875 60.0056 82.465 58.6286C83.5325 57.2588 84.4567 55.9176 85.3522 54.7025C87.1462 52.2752 88.5017 50.1302 89.6394 48.4437C90.7886 46.7615 91.5509 45.4203 92.1026 44.5462ZM92.4737 21.2146C92.66 21.2289 92.8004 21.2576 92.9136 21.2791C92.0667 20.8191 91.144 20.3334 90.1323 19.8319C88.7124 19.1255 87.119 18.3632 85.4153 17.5737C84.5685 17.204 83.6944 16.8114 82.7917 16.4145C81.8675 16.0491 80.906 15.7152 79.9331 15.3427C75.9927 13.9384 71.5178 12.7448 66.7735 11.5369C58.6261 9.42486 50.8814 7.64092 42.3973 7.72546C39.2435 7.76128 36.6515 7.78134 34.8532 7.71113C35.2816 7.90887 35.7201 8.12667 36.1872 8.40321C37.3077 9.0738 38.4669 10.104 39.5874 11.4524C39.6361 11.4022 39.682 11.3607 39.7379 11.3048C39.9485 11.1071 40.195 10.9151 40.4586 10.7316C40.718 10.5353 41.0017 10.3634 41.304 10.18C41.6422 9.99801 42.0176 9.80887 42.5062 9.71C42.7369 9.64982 43.0049 9.66415 43.2542 9.64982C43.4992 9.66415 43.7313 9.70284 43.9592 9.74439C44.8275 9.96935 45.3433 10.223 45.958 10.4508C46.5484 10.6829 47.1416 11.0268 47.6359 11.4939C47.6646 11.4868 47.6932 11.4868 47.7276 11.4868C53.4319 11.5713 58.3725 14.0717 63.8447 15.2481C67.7636 16.0906 71.7986 16.4775 75.5041 18.0236C75.901 18.0093 76.4111 18.0336 77.0673 18.1139C78.0403 18.2442 79.3184 18.4406 80.9132 19.1541C81.7027 19.5124 82.5882 20.0282 83.3849 20.9166C83.7861 21.3622 84.1185 21.9139 84.365 22.5572C84.4065 22.669 84.4352 22.7951 84.4639 22.9226C85.2749 22.3222 86.1389 21.8995 86.9786 21.7104C87.3081 21.6187 87.6205 21.517 87.93 21.4467C88.2395 21.4052 88.5304 21.3565 88.8112 21.3135C89.0964 21.2719 89.3629 21.2361 89.6222 21.2017C89.8787 21.1874 90.1252 21.1731 90.363 21.1659C90.823 21.1516 91.2342 21.1315 91.5925 21.1444C91.9406 21.1587 92.2358 21.1874 92.4737 21.2146ZM105.233 37.806C105.437 37.3947 105.592 36.9634 105.711 36.5063C103.92 37.0609 102.305 37.4506 100.896 37.5925C98.3843 37.8762 95.4555 37.0193 93.0397 36.3416C91.5996 35.9547 89.724 35.2913 87.5933 33.9142C86.5243 33.2365 85.4053 32.3553 84.3234 31.1889C83.6657 30.4768 83.0167 29.6443 82.4865 28.6613C82.3876 28.9737 82.3031 29.2961 82.24 29.6228C81.9248 31.2104 82.465 32.9986 83.5683 34.5719C84.6774 36.1596 86.3209 37.5925 88.1621 38.8204C89.9848 40.0642 92.0811 41.0443 94.3035 41.5601C96.5345 42.0516 98.7927 42.0129 100.763 41.3036C101.264 41.1489 101.724 40.9039 102.196 40.6932L102.866 40.3035L103.152 40.1344L103.495 39.8851C103.748 39.716 103.885 39.5684 104.04 39.428C104.2 39.3019 104.348 39.1085 104.5 38.948C104.655 38.7789 104.766 38.5826 104.907 38.4035C105.019 38.2057 105.142 38.0166 105.233 37.806ZM106.522 29.5311C106.557 28.7129 106.568 27.899 106.502 27.1439C106.361 25.6408 105.953 24.3412 105.332 23.3195C104.731 22.2893 103.997 21.5098 103.368 20.8994C102.958 20.524 102.593 20.2073 102.29 19.9436C100.812 18.9507 98.9088 17.8688 96.6319 16.6709C95.8066 16.2253 94.9397 15.7854 94.0441 15.3226C93.1457 14.8626 92.2215 14.3669 91.2199 13.9313C89.264 13.0042 87.119 12.1086 84.8393 11.2274C80.2698 9.46784 75.1186 7.88738 69.6393 6.3413C64.1814 4.81814 58.9457 3.6876 54.0882 3.11444C52.8803 2.95253 51.6895 2.88948 50.5375 2.77055C49.9644 2.7204 49.3926 2.66452 48.8309 2.6158C48.2721 2.59431 47.7205 2.57711 47.176 2.55992C46.0913 2.52123 45.0453 2.48541 44.0365 2.44672C43.0249 2.46535 42.0592 2.48541 41.1292 2.49974C40.2093 2.53556 39.3195 2.49974 38.4941 2.56995C37.6631 2.63013 36.8793 2.68315 36.1456 2.73473C35.4149 2.77772 34.7271 2.81927 34.0981 2.86226C33.4619 2.93247 32.8901 2.99552 32.3657 3.05856C31.5404 3.1431 30.8626 3.19898 30.3468 3.22621C30.2551 3.2649 30.172 3.30072 30.0731 3.34227C29.1145 3.7922 27.5512 4.42123 25.7329 5.86844C24.8302 6.60208 23.9031 7.56354 23.1537 8.86747C22.3857 10.1528 21.8555 11.7862 21.7008 13.7307C21.5245 15.6235 21.8412 17.8115 22.5963 20.0984C22.9861 21.2361 23.4876 22.3953 24.1725 23.5015C24.6582 24.2781 25.2299 25.0261 25.9077 25.6608C26.564 24.4142 27.3263 23.1361 28.2218 21.858C28.8021 21.0398 29.4441 20.2317 30.1576 19.4493L30.7093 18.8661L30.8497 18.7214L31.0603 18.5323L31.3512 18.2786C31.569 18.1139 31.7094 17.9534 31.9874 17.7771C32.2539 17.6152 32.5248 17.4404 32.7984 17.2742C33.0721 17.0922 33.3358 17.0077 33.6094 16.8744C33.8903 16.7626 34.1539 16.6251 34.4348 16.5406C35.0008 16.3729 35.5653 16.168 36.1456 16.0777C36.2932 16.0419 36.448 16.0204 36.5941 15.9932C36.5669 15.8986 36.5597 15.7926 36.5941 15.6665C36.5941 15.6665 36.6085 15.6178 36.6515 15.5117C36.7002 15.4129 36.7704 15.2653 36.8578 15.0733C37.0412 14.6864 37.3364 14.1419 37.7963 13.4928C37.9009 13.3381 38.0213 13.1761 38.1474 13.0114C37.0899 11.6702 36.0683 10.6901 35.1125 10.0123C34.0064 9.25005 33.0578 8.75427 32.2898 8.45336C31.5346 8.11234 30.9758 7.93609 30.6248 7.75412C30.2694 7.57071 30.1218 7.40593 30.1361 7.25834C30.1505 7.11792 30.3324 7.00615 30.7365 6.94311C31.1506 6.87863 31.794 6.84137 32.7139 7.02621C32.7497 7.03338 32.7984 7.04771 32.84 7.05487C33.3071 6.97033 33.9361 6.88579 34.74 6.79552C36.5311 6.58775 39.1031 6.30691 42.3271 6.06475C51.4331 5.36264 58.619 7.01332 67.3596 9.25005C72.1181 10.4651 76.6633 11.7476 80.6882 13.3022C81.6884 13.7178 82.6728 14.1004 83.6099 14.5145C84.5341 14.9601 85.4296 15.4 86.2937 15.8284C87.9787 16.7025 89.5176 17.545 90.9219 18.3632C93.7389 19.9866 95.8911 21.5628 97.2122 22.8452C97.8971 23.4599 98.3428 24.0245 98.6308 24.4114C98.9216 24.8011 99.042 25.0332 98.979 25.0891C98.9159 25.1378 98.6867 25.0189 98.294 24.7452C97.9115 24.4716 97.3799 24.0388 96.6319 23.5574C95.7865 22.9642 94.8766 22.2305 93.8578 21.9912C92.7373 21.7247 91.5781 21.8508 90.4648 22.0758C90.2513 22.1173 90.0191 22.1675 89.7813 22.209C89.5449 22.2792 89.2998 22.3394 89.0391 22.4168C88.7826 22.487 88.5161 22.5572 88.2395 22.6346C87.9716 22.7249 87.705 22.8524 87.4271 22.957C86.2865 23.3124 85.219 24.152 84.2805 25.317C84.077 25.5706 83.8835 25.84 83.6944 26.128C84.1329 27.5752 84.9582 28.8046 85.8466 29.8062C86.7708 30.8235 87.7394 31.656 88.6851 32.3066C90.5565 33.6406 92.2287 34.3957 93.4996 34.9302C95.828 35.9346 98.1465 36.1094 100.63 35.6738C102.133 35.4245 103.927 34.9087 106.108 34.1822C106.178 33.5388 106.228 32.8998 106.277 32.2636C106.361 31.3222 106.446 30.4066 106.522 29.5311ZM108.339 29.6228C108.324 30.087 108.317 30.4968 108.288 30.9998C108.268 31.4526 108.247 31.9096 108.233 32.3768C108.198 33.3282 108.169 34.3255 108.051 35.3973C107.927 36.4576 107.71 37.6054 107.207 38.7302C107.088 39.0182 106.919 39.2804 106.771 39.5627C106.592 39.822 106.431 40.1 106.221 40.345C106.01 40.5843 105.831 40.8336 105.563 41.0715C105.311 41.3108 105.047 41.5458 104.837 41.6934L104.5 41.947L104.418 42.0057L104.369 42.0444L104.271 42.0974L104.074 42.2235C103.808 42.3855 103.544 42.5545 103.27 42.7093C102.712 42.9787 102.147 43.281 101.538 43.4744C99.6983 44.1694 97.6722 44.3628 95.6661 44.1594C95.5959 44.3557 95.4985 44.5663 95.3509 44.7913C95.3509 44.7913 94.9468 45.3501 94.2204 46.3617C93.4996 47.3762 92.4608 48.8506 91.1225 50.6245C90.459 51.5201 89.7383 52.5002 88.9731 53.5462C88.1894 54.5893 87.3225 55.6783 86.4412 56.8447C84.6946 59.1946 82.6441 61.6635 80.575 64.3043C78.4128 66.8677 76.424 69.3924 74.4752 71.5733C73.5095 72.6694 72.624 73.7412 71.7571 74.717C70.8758 75.6828 70.0577 76.5755 69.3097 77.4008C68.5546 78.219 67.8969 78.9884 67.2822 79.6232C66.6675 80.2594 66.1445 80.8111 65.7132 81.2667C64.7402 82.2855 63.4549 82.9002 62.5307 83.8101C62.2785 84.0623 61.9791 84.2657 61.6911 84.4448C61.4002 84.5795 61.0706 84.7687 60.8098 84.8246C59.728 85.1871 58.6677 85.306 57.6804 85.3547C54.6742 85.4952 51.3213 84.4663 48.434 83.7427C45.0095 82.8787 41.5218 82.2855 38.1474 81.2596C32.946 79.6719 28.4009 77.8851 25.1382 76.5368C23.0563 75.6684 20.8683 74.9563 18.6315 74.535C18.3679 74.4849 18.0999 74.4362 17.8134 74.3903C17.5354 74.3201 17.2474 74.2427 16.9493 74.1725C16.3446 74.0464 15.7084 73.7971 15.0307 73.5578C14.3529 73.2211 13.5835 72.9302 12.9057 72.2023C12.5862 71.8441 12.271 71.3913 12.1062 70.8826C11.9084 70.3625 11.8812 69.8739 11.8382 69.4211C11.811 69.007 11.7895 68.5886 11.7609 68.153C11.7121 67.7288 11.6563 67.2889 11.6004 66.8405C11.2522 63.9174 10.9857 60.4512 11.5015 57.5468C9.79781 57.2731 7.63129 58.2317 5.98778 57.8735C4.41447 57.5296 3.30399 56.9006 2.26801 55.6367C1.23634 54.3715 1.44697 52.4443 2.51447 51.2679C0.740561 49.0412 -0.288248 46.098 1.08159 44.4818C0.522763 43.2882 0.38234 41.8481 0.863789 40.3379C1.08159 39.6601 1.58023 39.0182 2.2193 38.4594C1.96281 36.6324 1.94848 33.4127 3.75821 32.212C2.54313 30.9224 2.11756 29.2817 3.70806 27.8001C3.43151 27.0593 3.28393 26.2684 3.27676 25.5348C3.26243 24.0173 3.84848 23.1361 4.71681 22.7048C4.45602 21.8938 4.37148 21.0255 4.54773 20.1758C4.72397 19.3017 5.39456 18.6168 6.29728 18.1382C6.61681 14.8698 11.3009 13.7378 14.3257 13.3022C14.3186 12.9412 14.3673 12.5829 14.4862 12.2419C15.2986 9.89914 18.5183 9.99085 20.6648 9.88625C20.96 9.17984 21.2795 8.52931 21.6649 7.95042C22.6235 6.46882 23.7684 5.42138 24.8402 4.68058C27.0039 3.22048 28.752 2.79205 29.8266 2.56995C30.4241 2.45818 30.8282 2.42236 31.0947 2.43669C31.4286 2.34499 31.794 2.25472 32.2124 2.14868C32.7211 2.02975 33.2899 1.89936 33.9118 1.75177C34.548 1.6529 35.2315 1.54114 35.9737 1.42937C36.7217 1.31618 37.5155 1.19725 38.3609 1.08118C39.2077 0.940762 40.1033 0.919268 41.0475 0.834728C41.9889 0.764517 42.9762 0.679977 44.0093 0.624095C45.0381 0.61693 46.1128 0.609766 47.2261 0.604034C47.7835 0.604034 48.3495 0.604034 48.9227 0.604034C49.4944 0.631259 50.0847 0.667081 50.6708 0.70147C51.8586 0.786011 53.0809 0.814668 54.3275 0.955091C59.3111 1.41505 64.7474 2.5241 70.2755 4.07734C75.782 5.62199 81.0249 7.30133 85.6431 9.20133C87.9515 10.1599 90.118 11.15 92.0882 12.1789C93.0955 12.6675 94.0155 13.212 94.911 13.7307C95.8137 14.2479 96.6706 14.7351 97.4615 15.2237C100.664 17.1409 103.235 18.9636 104.668 20.587C104.822 20.769 104.963 20.9409 105.096 21.11C105.55 21.517 106.003 22.0056 106.439 22.5988C107.271 23.7021 107.884 25.2324 108.148 26.9404C108.288 27.793 108.331 28.6742 108.339 29.6228Z" fill="#2C6471"/>
</g>
<path d="M72.3505 34.7898C72.3648 35.1996 72.309 35.5937 72.2531 35.9834L72.19 36.4262L72.1757 36.4993L72.1542 36.6125L72.147 36.6397L72.0109 37.1527C71.8562 37.8061 71.6097 38.5153 71.3704 39.2103C70.4018 41.9041 69.1767 44.2712 68.1722 46.5366C66.1805 51.1161 64.8322 55.3875 63.6415 59.0113C63.3491 59.914 63.0683 60.7823 62.8118 61.5933C62.5453 62.4115 62.306 63.191 62.0366 63.9175C61.4921 65.379 60.8531 66.6399 60.0062 67.461C59.6093 67.8966 59.1279 68.1674 58.6994 68.3436C58.261 68.497 57.8784 68.5399 57.5689 68.5041C57.2594 68.5185 57.0459 68.3995 56.8983 68.3565C56.7579 68.3007 56.6948 68.2519 56.702 68.209C56.7149 68.1144 57.0316 68.1287 57.5402 68.0298C58.0504 67.9525 58.7424 67.6301 59.3213 66.8535C59.9188 66.0912 60.3859 64.9262 60.7786 63.5134C61.154 62.0533 61.5724 60.3811 62.0438 58.5442C63.0196 54.8602 64.2519 50.404 66.1805 45.6769C67.1563 43.3169 68.3255 40.9455 69.1939 38.4595C69.3873 37.8548 69.5908 37.2544 69.7584 36.5552L69.8888 36.0465L69.9347 35.6596C69.9734 35.3544 70.0221 35.0521 70.002 34.754C70.0149 33.5533 69.7097 32.4041 68.9689 31.4527C68.2353 30.4969 67.1921 29.7289 66.0329 29.1285C64.8666 28.5339 63.62 28.0926 62.349 27.7229C61.0279 27.3432 59.7283 26.9677 58.4573 26.6024C57.1892 26.2198 55.954 25.8401 54.7805 25.5148C53.607 25.1494 52.389 24.8786 51.237 24.5834L50.8043 24.4774L50.383 24.3628C50.0921 24.2782 49.7969 24.1937 49.5018 24.1091C48.9157 23.9472 48.3426 23.7867 47.8196 23.579C46.7764 23.2064 45.7791 22.8525 44.8134 22.5014C44.5784 22.4241 44.3534 22.3281 44.1141 22.2579C43.8648 22.1948 43.6255 22.1318 43.3805 22.0687C42.8991 21.9426 42.4219 21.8165 41.962 21.6962C41.7613 21.6618 41.5507 21.6374 41.3544 21.6016C41.1294 21.56 40.9217 21.5385 40.7039 21.5171C40.2755 21.4612 39.8714 21.4612 39.4745 21.4468C38.6921 21.4683 37.9714 21.5944 37.3438 21.8237C36.7147 22.0544 36.1674 22.3954 35.7203 22.7895C35.2604 23.172 34.895 23.6005 34.5683 23.9974C33.3145 25.6337 32.7643 26.7156 32.588 26.6238C32.5178 26.5895 32.5737 26.29 32.75 25.7527C32.9463 25.2125 33.2414 24.4215 33.8132 23.4729C34.1055 23.0001 34.4565 22.48 34.9523 21.977C35.4251 21.4612 36.0542 20.9697 36.8265 20.6143C37.5859 20.249 38.4743 20.0355 39.3971 19.9509C39.8585 19.9294 40.3385 19.9022 40.8171 19.9366C41.0592 19.9437 41.3043 19.9509 41.5436 19.9867L41.9061 20.0211L42.0952 20.0426L42.1869 20.0498L42.2356 20.0569L42.3345 20.077C42.8016 20.1658 43.2745 20.2633 43.7674 20.3622C44.0095 20.418 44.2546 20.4668 44.5039 20.5169C44.7575 20.5799 45.0169 20.6717 45.2733 20.7419C45.8006 20.8995 46.3308 21.0614 46.8681 21.229C47.3811 21.391 47.8969 21.5529 48.4271 21.7177C48.9573 21.9068 49.4846 22.0343 50.0219 22.1604C50.2856 22.2306 50.5592 22.2894 50.8329 22.361L51.2642 22.4728L51.7041 22.5645C52.8733 22.8238 54.0669 23.056 55.3178 23.4027C56.5673 23.7337 57.8154 24.0819 59.0863 24.4358C60.3501 24.7869 61.6497 25.1379 62.9709 25.5005C64.3335 25.8759 65.7378 26.353 67.1033 27.0379C68.4602 27.7372 69.8157 28.6743 70.8546 30.0341C71.9192 31.3867 72.3935 33.1736 72.3505 34.7898Z" fill="#2C6471"/>
<path d="M63.1251 37.4378C63.1251 37.4163 63.1323 37.402 63.1323 37.3805C62.4402 37.0609 61.7424 36.76 61.0431 36.4649C60.0487 36.0465 58.9884 35.9619 57.9495 35.7241C57.7317 36.4792 57.4366 37.3748 57.0468 38.1227C58.0785 38.4523 59.1718 38.5511 60.2106 38.9481C60.5545 39.0741 62.0576 39.888 62.3069 39.4496C62.6795 38.8076 62.9145 38.1428 63.1251 37.4378ZM64.8747 35.8917C65.306 36.1167 65.4535 36.6325 65.3561 37.0796C65.3002 37.3876 65.23 37.69 65.1455 37.988C64.7127 39.4711 63.6768 42.4486 61.5246 41.7436C60.3654 41.3668 59.3151 40.8337 58.1072 40.5772C56.9623 40.3308 55.8905 40.0428 54.8731 39.4567C53.8085 38.842 55.2758 36.7027 55.634 35.7656C55.8346 35.2283 56.0524 34.691 56.2072 34.1393C56.3547 33.6306 56.9623 33.2022 57.4996 33.4057C59.017 33.9846 60.6047 34.006 62.1006 34.6551C63.0277 35.052 63.9791 35.4389 64.8747 35.8917Z" fill="#2C6471"/>
<path d="M59.6298 45.1251C59.6298 45.1037 59.6369 45.0893 59.6369 45.0693C58.9448 44.7497 58.2456 44.4474 57.5463 44.1522C56.5562 43.7338 55.4916 43.6507 54.4485 43.4114C54.235 44.1694 53.9398 45.0621 53.55 45.8101C54.5831 46.1396 55.675 46.2342 56.7138 46.6354C57.0577 46.7615 58.5623 47.5797 58.8116 47.1369C59.1827 46.495 59.4191 45.8316 59.6298 45.1251ZM61.3779 43.5791C61.8106 43.804 61.9582 44.3213 61.8593 44.7698C61.8034 45.0764 61.7332 45.3773 61.6487 45.6768C61.216 47.1584 60.18 50.1374 58.0278 49.431C56.8686 49.0512 55.8226 48.5211 54.6104 48.2646C53.4655 48.0196 52.3951 47.7316 51.3764 47.1441C50.1641 46.4463 51.7876 44.3772 52.1386 43.4573C52.3378 42.9156 52.5556 42.3783 52.7104 41.8266C52.858 41.318 53.4655 40.8895 54.0028 41.093C55.5202 41.6733 57.1079 41.6934 58.5995 42.3439C59.5309 42.7408 60.4823 43.1263 61.3779 43.5791Z" fill="#2C6471"/>
<path d="M56.1377 52.1134C56.1377 52.0934 56.1448 52.079 56.1448 52.0575C55.4527 51.738 54.7535 51.4357 54.0542 51.1448C53.0613 50.7235 52.0009 50.639 50.9578 50.404C50.7429 51.1591 50.4477 52.0504 50.0579 52.7983C51.091 53.1293 52.1829 53.2268 53.2232 53.6237C53.5671 53.7512 55.0659 54.5694 55.3195 54.1266C55.692 53.4833 55.927 52.8198 56.1377 52.1134ZM57.8858 50.5688C58.3185 50.7937 58.4661 51.3096 58.3672 51.7595C58.3113 52.0647 58.2411 52.367 58.1566 52.6651C57.7253 54.1481 56.6893 57.1256 54.5357 56.4192C53.3765 56.0438 52.3305 55.5108 51.1183 55.2543C49.9734 55.0078 48.903 54.7198 47.8843 54.1338C46.7637 53.4904 48.9245 49.8767 49.2183 48.8164C49.3659 48.3077 49.9734 47.8793 50.5107 48.0827C52.0282 48.6616 53.6158 48.6831 55.1088 49.3322C56.0388 49.7334 56.9902 50.116 57.8858 50.5688Z" fill="#2C6471"/>
<path d="M52.6408 60.5001C52.6408 60.48 52.6479 60.4657 52.6479 60.4442C51.9558 60.1246 51.2566 59.8223 50.5588 59.5314C49.5644 59.1102 48.504 59.0256 47.4609 58.7906C47.246 59.5458 46.9508 60.437 46.561 61.185C47.5942 61.516 48.686 61.6134 49.7263 62.0103C50.0702 62.1378 51.5704 62.956 51.8226 62.5133C52.1951 61.8699 52.4301 61.2065 52.6408 60.5001ZM54.386 58.9583C54.8216 59.1804 54.9692 59.7005 54.8718 60.1461C54.8144 60.4513 54.7442 60.7537 54.6597 61.0517C54.2284 62.5347 53.1924 65.5123 51.0388 64.8059C49.881 64.4304 48.8307 63.9003 47.6228 63.6409C46.4779 63.3945 45.4061 63.1108 44.3874 62.5204C43.1236 61.7925 44.8201 59.6933 45.1497 58.8322C45.3503 58.2948 45.5681 57.7547 45.7228 57.203C45.8704 56.6943 46.4779 56.2659 47.0153 56.4694C48.5313 57.0482 50.1189 57.0697 51.612 57.7188C52.5433 58.12 53.4948 58.5026 54.386 58.9583Z" fill="#2C6471"/>
<path d="M51.9416 33.9429C51.9416 33.9214 51.9488 33.907 51.9488 33.887C51.2567 33.5674 50.5589 33.2651 49.8597 32.9699C48.8652 32.5515 47.8049 32.4684 46.7618 32.2291C46.5483 32.9843 46.2531 33.8798 45.8633 34.6278C46.895 34.9573 47.9883 35.0519 49.0271 35.4531C49.371 35.5792 50.8741 36.3945 51.1235 35.9546C51.496 35.3127 51.731 34.6493 51.9416 33.9429ZM53.6912 32.3968C54.1225 32.6217 54.2701 33.139 54.1726 33.5846C54.1167 33.8941 54.0465 34.1951 53.962 34.4945C53.5293 35.9761 52.4933 38.9551 50.3411 38.2487C49.1819 37.869 48.1316 37.3388 46.9237 37.0794C45.7788 36.8373 44.707 36.5493 43.6897 35.9618C42.4918 35.2697 44.1066 33.1734 44.4505 32.2707C44.6511 31.7334 44.8689 31.196 45.0237 30.6444C45.1713 30.1328 45.7788 29.7073 46.3161 29.9107C47.8336 30.4911 49.4212 30.5111 50.9171 31.1616C51.8442 31.5585 52.7956 31.944 53.6912 32.3968Z" fill="#2C6471"/>
<path d="M48.4485 41.6304C48.4485 41.6089 48.4557 41.596 48.4557 41.5745C47.7636 41.255 47.0644 40.9527 46.3651 40.6575C45.3721 40.2405 44.3104 40.156 43.2672 39.921C43.0537 40.6718 42.7586 41.5674 42.3688 42.3153C43.4019 42.6463 44.4938 42.7409 45.5326 43.1407C45.8765 43.2668 47.381 44.0849 47.6304 43.6436C48.0015 43.0003 48.2379 42.3368 48.4485 41.6304ZM50.1967 40.0858C50.6294 40.3107 50.777 40.8266 50.6781 41.2765C50.6222 41.5817 50.552 41.884 50.4675 42.1821C50.0347 43.6637 48.9988 46.6426 46.8466 45.9362C45.6874 45.5565 44.6371 45.0263 43.4292 44.7699C42.2843 44.5248 41.2139 44.2368 40.1951 43.6508C39.2222 43.0848 40.0963 42.003 40.3943 41.3252C40.592 40.8753 40.7812 40.4225 40.9574 39.9625C41.1566 39.4223 41.3744 38.8836 41.5292 38.3334C41.6739 37.8232 42.2843 37.3948 42.8216 37.5983C44.339 38.1786 45.9267 38.2001 47.4183 38.8492C48.3497 39.249 49.3011 39.633 50.1967 40.0858Z" fill="#2C6471"/>
<path d="M44.9616 48.62C44.9616 48.5985 44.9687 48.5841 44.9687 48.5626C44.2767 48.2431 43.5774 47.9422 42.8782 47.647C41.8852 47.2286 40.8248 47.1441 39.7817 46.9091C39.5668 47.6642 39.2716 48.5569 38.879 49.3049C39.915 49.6344 41.004 49.7333 42.0471 50.1302C42.391 50.2563 43.8898 51.0745 44.1434 50.6317C44.5159 49.9898 44.7509 49.3249 44.9616 48.62ZM46.7068 47.0739C47.1424 47.2988 47.29 47.8147 47.1911 48.2646C47.1353 48.5698 47.065 48.8721 46.9805 49.1702C46.5492 50.6532 45.5132 53.6307 43.3596 52.9258C42.2004 52.5489 41.1515 52.0159 39.9422 51.7594C38.7973 51.5129 37.727 51.2249 36.7082 50.6389C35.4472 49.9124 37.0564 48.0325 37.4662 46.9478C37.6711 46.4105 37.8889 45.8731 38.0422 45.3215C38.1898 44.8128 38.7973 44.3844 39.3346 44.5878C40.8521 45.1667 42.4397 45.1882 43.9328 45.8373C44.8627 46.2342 45.8141 46.6211 46.7068 47.0739Z" fill="#2C6471"/>
<path d="M41.456 30.4481C41.456 30.4266 41.4632 30.4137 41.4632 30.3922C40.7711 30.0727 40.0718 29.7703 39.374 29.4751C38.3796 29.0582 37.3193 28.9736 36.2761 28.7343C36.0583 29.4895 35.766 30.385 35.3734 31.133C36.4094 31.4597 37.5012 31.5586 38.5415 31.9583C38.8854 32.0844 40.3856 32.8997 40.6378 32.4613C41.0061 31.8179 41.2454 31.1545 41.456 30.4481ZM43.2012 28.9034C43.6368 29.1284 43.7844 29.6442 43.687 30.0899C43.6297 30.3994 43.5595 30.7017 43.4749 30.9997C43.0436 32.4813 42.0076 35.4603 39.854 34.7539C38.6963 34.3742 37.646 33.844 36.438 33.5847C35.2932 33.3425 34.2214 33.0545 33.2026 32.4684C32.2168 31.9025 33.621 29.6729 33.9649 28.7773C34.1655 28.2386 34.3833 27.7012 34.538 27.151C34.6856 26.638 35.2932 26.2125 35.8305 26.4159C37.3465 26.9963 38.9313 27.0178 40.4272 27.6669C41.3571 28.0638 42.31 28.4506 43.2012 28.9034Z" fill="#2C6471"/>
<path d="M41.4636 57.0066C41.4636 56.9851 41.4708 56.9708 41.4708 56.9493C40.7787 56.6298 40.0795 56.3289 39.3817 56.0366C38.3872 55.6153 37.3269 55.5307 36.2838 55.2958C36.066 56.0509 35.7737 56.9436 35.3811 57.6915C36.417 58.0211 37.5089 58.12 38.5492 58.5169C38.8931 58.643 40.3933 59.4611 40.6455 59.0184C41.0137 58.3764 41.253 57.7116 41.4636 57.0066ZM43.2089 55.4648C43.6445 55.6855 43.7921 56.2013 43.6946 56.6513C43.6373 56.9565 43.5671 57.2588 43.4826 57.5611C43.0513 59.0399 42.0153 62.0174 39.8617 61.3124C38.7039 60.9356 37.6536 60.4025 36.4457 60.1461C35.2937 59.8996 32.6342 59.5027 32.7188 57.9996C32.7403 57.6142 33.3621 56.7988 33.5369 56.4062C33.9267 55.5379 34.2849 54.6252 34.5457 53.7081C34.6933 53.1994 35.3008 52.771 35.8382 52.9745C37.3541 53.5534 38.9389 53.5749 40.4348 54.224C41.3648 54.6252 42.3176 55.0077 43.2089 55.4648Z" fill="#2C6471"/>
<path d="M41.1399 64.8131C42.5585 65.2 43.328 65.4908 43.2993 65.6528C43.2706 65.8147 42.4568 65.829 40.9881 65.7158C40.2544 65.6671 39.366 65.5754 38.3301 65.4636C37.297 65.3232 36.1134 65.081 34.8138 64.8418C34.1647 64.7157 33.4798 64.5781 32.7734 64.4377C32.0755 64.2686 31.3476 64.0866 30.5997 63.9075C29.0966 63.5278 27.4917 63.1381 25.8267 62.6394C24.1488 62.1508 22.438 61.6908 20.5795 61.0733C20.1095 60.9228 19.6209 60.7322 19.1194 60.4872C18.6064 60.2164 18.0333 59.8654 17.5662 59.2363C17.0819 58.5944 16.9658 57.7819 16.973 57.1543C16.9801 56.9924 16.9801 56.8276 16.9945 56.6729L17.0618 56.2301C17.1034 55.9321 17.1807 55.6785 17.2509 55.3976C17.3914 54.8675 17.5604 54.3659 17.7453 53.8845L17.88 53.5191L17.9631 53.3156L18.0333 53.1494L18.3213 52.4788C18.7053 51.5833 19.0908 50.7021 19.4604 49.8423C19.8359 48.9783 20.2084 48.1315 20.5738 47.3061C20.9764 46.4808 21.3662 45.677 21.7531 44.8932C22.5368 43.3371 23.2705 41.8411 23.9969 40.4856C24.732 39.1301 25.4227 37.8692 26.0517 36.7243C28.5951 32.1477 30.316 29.398 30.6068 29.5384C30.902 29.686 29.7013 32.7065 27.5405 37.4723C26.9859 38.6601 26.3927 39.9626 25.7494 41.3496C25.1218 42.741 24.444 44.2226 23.7376 45.7887C23.3822 46.5653 23.0169 47.3692 22.6457 48.1802C22.3047 49.0199 21.9465 49.8696 21.5911 50.7379C21.2301 51.6119 20.8575 52.4932 20.4893 53.3859L20.2012 54.0665L20.131 54.2313L20.0737 54.3717L19.9548 54.7027C19.79 55.1411 19.6496 55.581 19.5307 56.0095C19.4805 56.2158 19.4031 56.4408 19.3902 56.6299L19.3401 56.9222C19.3258 57.0139 19.3329 57.097 19.3258 57.1816C19.3258 57.5226 19.3616 57.7332 19.4805 57.8808C19.5937 58.0356 19.8531 58.2319 20.1798 58.411C20.5308 58.5801 20.9206 58.7477 21.3461 58.8953C23.0527 59.4899 24.8338 60.0273 26.4558 60.5646C28.0921 61.1077 29.6583 61.5719 31.1155 62.0175C31.8434 62.2497 32.5527 62.4646 33.2304 62.6752C33.9082 62.8644 34.5573 63.0463 35.1792 63.2126C36.4301 63.5636 37.5534 63.8832 38.5479 64.164C39.5623 64.4033 40.4335 64.6168 41.1399 64.8131Z" fill="#2C6471"/>
<path d="M37.9686 38.1355C37.9686 38.1155 37.9757 38.1012 37.9757 38.0797C37.2836 37.7601 36.5858 37.4578 35.8866 37.164C34.8922 36.7456 33.8318 36.6611 32.7887 36.4261C32.5709 37.1769 32.28 38.0725 31.8903 38.8205C32.9219 39.1515 34.0109 39.2489 35.0541 39.6458C35.3951 39.7733 36.8982 40.5915 37.1504 40.1487C37.5201 39.5054 37.7579 38.842 37.9686 38.1355ZM39.7152 36.5909C40.1494 36.8159 40.297 37.3317 40.1996 37.7816C40.1437 38.0868 40.0735 38.3892 39.9889 38.6872C39.5562 40.1702 38.5202 43.1478 36.368 42.4413C35.2088 42.0631 34.1585 41.5329 32.9506 41.2764C31.8057 41.03 30.7339 40.742 29.7123 40.1559C28.9471 39.7088 29.3369 38.6872 29.804 37.7745C30.0705 37.2615 30.3514 36.7872 30.4774 36.4648C30.6781 35.9275 30.8959 35.3901 31.0506 34.8385C31.1939 34.3255 31.8057 33.9014 32.3431 34.1048C33.8605 34.6837 35.4438 34.7052 36.9397 35.3543C37.8711 35.7512 38.8226 36.1381 39.7152 36.5909Z" fill="#2C6471"/>
<path d="M34.4687 45.1251C34.4687 45.1037 34.4759 45.0893 34.4759 45.0693C33.7838 44.7497 33.0846 44.4474 32.3853 44.1522C31.3923 43.7338 30.3306 43.6507 29.2874 43.4114C29.0739 44.1694 28.7788 45.0621 28.3847 45.8101C29.4221 46.1396 30.5097 46.2342 31.5528 46.6354C31.8939 46.7615 33.3969 47.5797 33.6506 47.1369C34.0188 46.495 34.2581 45.8316 34.4687 45.1251ZM36.214 43.5791C36.6496 43.804 36.7929 44.3213 36.6983 44.7698C36.6424 45.0764 36.5722 45.3773 36.4877 45.6768C36.0521 47.1584 35.019 50.1374 32.8668 49.431C31.7076 49.0512 30.6573 48.5211 29.4494 48.2646C28.3016 48.0196 27.2341 47.7316 26.211 47.1441C25.1994 46.558 26.6466 44.3285 26.9733 43.4573C27.1768 42.9156 27.3946 42.3783 27.5494 41.8266C27.6941 41.318 28.3016 40.8895 28.8418 41.093C30.3592 41.6733 31.9426 41.6934 33.4385 42.3439C34.3699 42.7408 35.3213 43.1263 36.214 43.5791Z" fill="#2C6471"/>
<path d="M30.9824 53.5118C30.9824 53.4903 30.9896 53.476 30.9896 53.4559C30.2975 53.1364 29.5983 52.834 28.899 52.5417C27.906 52.1205 26.8457 52.0374 25.8026 51.8009C25.5848 52.5561 25.2924 53.4488 24.8998 54.1967C25.9358 54.5263 27.0248 54.6252 28.0679 55.0221C28.4075 55.1482 29.9106 55.9663 30.1642 55.5236C30.5325 54.8816 30.7718 54.2182 30.9824 53.5118ZM32.7277 51.9657C33.1633 52.1907 33.3066 52.708 33.212 53.1564C33.1561 53.4631 33.0859 53.764 33.0014 54.0663C32.5701 55.5451 31.5341 58.524 29.3805 57.8176C28.2213 57.4422 27.1724 56.9077 25.963 56.6512C24.8153 56.4062 23.7478 56.1182 22.729 55.5307C21.2933 54.7025 23.775 51.2249 24.063 50.2133C24.2078 49.7046 24.8153 49.2762 25.3555 49.4797C26.8729 50.06 28.4577 50.08 29.9536 50.7306C30.8836 51.1304 31.835 51.5129 32.7277 51.9657Z" fill="#2C6471"/>
</svg>
