<svg width="151" height="137" viewBox="0 0 151 137" fill="none" xmlns="http://www.w3.org/2000/svg">
<path d="M60.3615 108.21C84.369 98.8906 104.898 85.0545 118.165 69.2503C119.335 67.8563 120.436 66.4624 121.465 65.0734C126.213 57.0306 128.817 48.9468 128.853 41.2983L82.4957 14.5586L29.6348 45.0465C29.6348 69.3893 38.0343 92.5264 52.7702 110.955C55.3045 110.101 57.8371 109.188 60.3615 108.21Z" fill="#3871C1"/>
<mask id="mask0_356_3890" style="mask-type:luminance" maskUnits="userSpaceOnUse" x="0" y="0" width="151" height="137">
<path d="M0.5 0.89917H150.5V136.6H0.5V0.89917Z" fill="white"/>
</mask>
<g mask="url(#mask0_356_3890)">
<path d="M148.267 27.0728C141.998 10.9494 122.674 1.91679 97.6687 0.948242C115.827 4.22035 129.367 12.6068 134.423 25.6085C145.299 53.5703 112.809 92.2712 61.8555 112.049C40.2841 120.421 18.8616 124.06 0.503418 123.348C21.4073 127.114 48.4333 124.097 75.6997 113.515C84.4723 110.109 92.6967 106.143 100.249 101.767C89.6766 109.579 77.1509 116.603 63.1774 122.199C68.9837 127.625 75.4429 132.446 82.4959 136.515C104.88 123.602 121.373 103.195 129.559 79.505C146.678 62.1743 154.423 42.9032 148.267 27.0728Z" fill="#00ADEF"/>
</g>
<path d="M56.6903 46.0297C57.672 46.0297 58.5047 46.226 59.1902 46.6186C59.8741 47.008 60.3911 47.5283 60.7412 48.1827C61.0946 48.8339 61.2713 49.5603 61.2713 50.3619C61.2713 51.1701 61.0946 51.8998 60.7412 52.5542C60.3911 53.2054 59.8741 53.7257 59.1902 54.1183C58.5047 54.5077 57.672 54.7007 56.6903 54.7007H54.3148V59.2228H51.8083V46.0297H56.6903ZM56.638 52.3056C57.2662 52.3056 57.7652 52.1256 58.1366 51.7624C58.5064 51.3959 58.6929 50.9296 58.6929 50.3619C58.6929 49.7991 58.5064 49.3394 58.1366 48.9811C57.7652 48.6244 57.2662 48.4445 56.638 48.4445H54.3148V52.3056H56.638Z" fill="white"/>
<path d="M68.811 45.9184C69.7534 45.9184 70.6172 46.0885 71.4025 46.4288C72.1879 46.7658 72.8619 47.2403 73.4247 47.8555C73.9908 48.4706 74.4276 49.1888 74.7336 50.0085C75.0428 50.8249 75.1982 51.7035 75.1982 52.6458C75.1982 53.5882 75.0428 54.4684 74.7336 55.2831C74.4276 56.0995 73.9908 56.8178 73.4247 57.4362C72.8619 58.0513 72.1879 58.5291 71.4025 58.8694C70.6172 59.2064 69.7534 59.3733 68.811 59.3733C67.8687 59.3733 67.0048 59.2064 66.2195 58.8694C65.4342 58.5291 64.7553 58.0513 64.1843 57.4362C63.6117 56.8178 63.1716 56.0995 62.8623 55.2831C62.5515 54.4684 62.3977 53.5882 62.3977 52.6458C62.3977 51.7035 62.5515 50.8249 62.8623 50.0085C63.1716 49.1888 63.6117 48.4706 64.1843 47.8555C64.7553 47.2403 65.4342 46.7658 66.2195 46.4288C67.0048 46.0885 67.8687 45.9184 68.811 45.9184ZM68.811 56.8472C69.6127 56.8472 70.2966 56.6623 70.8594 56.291C71.4255 55.9212 71.8623 55.4189 72.1682 54.7858C72.4774 54.1494 72.6329 53.436 72.6329 52.6458C72.6329 51.8442 72.4774 51.1259 72.1682 50.4928C71.8623 49.8563 71.4255 49.3524 70.8594 48.9811C70.2966 48.6113 69.6127 48.4248 68.811 48.4248C68.0028 48.4248 67.314 48.6113 66.7431 48.9811C66.1704 49.3524 65.7303 49.8563 65.4211 50.4928C65.1152 51.1259 64.963 51.8442 64.963 52.6458C64.963 53.436 65.1152 54.1494 65.4211 54.7858C65.7303 55.4189 66.1704 55.9212 66.7431 56.291C67.314 56.6623 68.0028 56.8472 68.811 56.8472Z" fill="white"/>
<path d="M81.6752 46.0297C82.6568 46.0297 83.4896 46.226 84.1751 46.6186C84.859 47.008 85.376 47.5283 85.7261 48.1827C86.0795 48.8339 86.2562 49.5603 86.2562 50.3619C86.2562 51.1701 86.0795 51.8998 85.7261 52.5542C85.376 53.2054 84.859 53.7257 84.1751 54.1183C83.4896 54.5077 82.6568 54.7007 81.6752 54.7007H79.2996V59.2228H76.7932V46.0297H81.6752ZM81.6228 52.3056C82.2511 52.3056 82.7501 52.1256 83.1215 51.7624C83.4912 51.3959 83.6777 50.9296 83.6777 50.3619C83.6777 49.7991 83.4912 49.3394 83.1215 48.9811C82.7501 48.6244 82.2511 48.4445 81.6228 48.4445H79.2996V52.3056H81.6228Z" fill="white"/>
<path d="M87.8538 46.0297H90.3602V59.2228H87.8538V46.0297Z" fill="white"/>
<path d="M100.953 59.2228L99.9192 56.2452H95.4495L94.4351 59.2228H91.5884L96.4115 46.0297H98.9768L103.8 59.2228H100.953ZM96.3002 53.85H99.0881L97.6941 49.7991L96.3002 53.85Z" fill="white"/>
<path d="M54.906 72.1896C55.3674 72.1896 55.7862 72.0849 56.1625 71.8755C56.5372 71.6628 56.8398 71.3781 57.0721 71.0247L57.6873 71.3323C57.3994 71.7953 57.0132 72.1683 56.529 72.4513C56.0447 72.736 55.5032 72.8767 54.906 72.8767C54.4299 72.8767 53.9898 72.7884 53.5841 72.6084C53.1816 72.4252 52.8315 72.1765 52.5305 71.8624C52.2327 71.5482 52.0004 71.185 51.8302 70.7695C51.6633 70.3556 51.5815 69.9106 51.5815 69.4345C51.5815 68.96 51.6633 68.515 51.8302 68.0994C52.0004 67.6855 52.2327 67.3207 52.5305 67.0066C52.8315 66.6924 53.1816 66.447 53.5841 66.2671C53.9898 66.0887 54.4299 65.9987 54.906 65.9987C55.5032 65.9987 56.0447 66.1394 56.529 66.4176C57.0132 66.6973 57.3994 67.0704 57.6873 67.5366L57.0721 67.8377C56.8398 67.4892 56.5372 67.2094 56.1625 67C55.7862 66.7873 55.3674 66.6793 54.906 66.6793C54.3988 66.6793 53.9505 66.8037 53.5579 67.0524C53.1652 67.301 52.8544 67.6348 52.6286 68.0536C52.4061 68.4692 52.2949 68.9289 52.2949 69.4345C52.2949 69.9449 52.4061 70.4096 52.6286 70.8284C52.8544 71.2439 53.1652 71.5744 53.5579 71.8231C53.9505 72.0685 54.3988 72.1896 54.906 72.1896Z" fill="#FCFCFC"/>
<path d="M61.6876 65.9987C62.162 65.9987 62.5989 66.0887 62.9964 66.2671C63.3924 66.447 63.7376 66.6924 64.0304 67.0066C64.3216 67.3207 64.549 67.6855 64.711 68.0994C64.8714 68.515 64.9532 68.96 64.9532 69.4345C64.9532 69.9106 64.8714 70.3556 64.711 70.7695C64.549 71.185 64.3216 71.5482 64.0304 71.8624C63.7376 72.1765 63.3924 72.4252 62.9964 72.6084C62.5989 72.7884 62.162 72.8767 61.6876 72.8767C61.2115 72.8767 60.773 72.7884 60.3722 72.6084C59.9746 72.4252 59.6278 72.1765 59.3317 71.8624C59.0388 71.5482 58.8114 71.185 58.6511 70.7695C58.4891 70.3556 58.4089 69.9106 58.4089 69.4345C58.4089 68.96 58.4891 68.515 58.6511 68.0994C58.8114 67.6855 59.0388 67.3207 59.3317 67.0066C59.6278 66.6924 59.9746 66.447 60.3722 66.2671C60.773 66.0887 61.2115 65.9987 61.6876 65.9987ZM61.6876 72.1896C62.1931 72.1896 62.6365 72.0685 63.0161 71.8231C63.3989 71.5744 63.6983 71.2439 63.9126 70.8284C64.1302 70.4096 64.2398 69.9449 64.2398 69.4345C64.2398 68.9289 64.1302 68.4692 63.9126 68.0536C63.6983 67.6348 63.3989 67.301 63.0161 67.0524C62.6365 66.8037 62.1931 66.6793 61.6876 66.6793C61.1771 66.6793 60.7289 66.8037 60.346 67.0524C59.9616 67.301 59.6605 67.6348 59.4429 68.0536C59.2286 68.4692 59.1223 68.9289 59.1223 69.4345C59.1223 69.9449 59.2286 70.4096 59.4429 70.8284C59.6605 71.2439 59.9616 71.5744 60.346 71.8231C60.7289 72.0685 61.1771 72.1896 61.6876 72.1896Z" fill="#FCFCFC"/>
<path d="M71.9791 66.0576H72.6269V72.7982H71.9202V67.3927L69.5446 71.1098H69.0734L66.711 67.3927V72.7982H66.0107V66.0576H66.6521L69.3156 70.2525L71.9791 66.0576Z" fill="#FCFCFC"/>
<path d="M76.411 66.0576C76.8331 66.0576 77.2029 66.1525 77.517 66.339C77.8311 66.5272 78.0749 66.7808 78.25 67.0982C78.4283 67.4172 78.5183 67.7657 78.5183 68.1453C78.5183 68.5248 78.4266 68.8749 78.2434 69.1923C78.0602 69.5114 77.8115 69.7649 77.4974 69.9515C77.1832 70.1396 76.82 70.2329 76.411 70.2329H74.5786V72.7982H73.8784V66.0576H76.411ZM76.411 69.5392C76.6941 69.5392 76.9378 69.477 77.144 69.3494C77.3534 69.2234 77.5137 69.0533 77.6283 68.8389C77.7411 68.6263 77.7984 68.3939 77.7984 68.1453C77.7984 67.8966 77.7411 67.6659 77.6283 67.4516C77.5137 67.2389 77.355 67.0687 77.1505 66.9411C76.9444 66.8151 76.699 66.7513 76.411 66.7513H74.5786V69.5392H76.411Z" fill="#FCFCFC"/>
<path d="M80.1724 72.1045H83.5296V72.7982H79.4788V66.0576H80.1724V72.1045Z" fill="#FCFCFC"/>
<path d="M84.3459 66.0576H85.0396V72.7982H84.3459V66.0576Z" fill="#FCFCFC"/>
<path d="M90.9114 72.7982L90.1785 70.8415H87.4561L86.7231 72.7982H85.9509L88.4966 66.0576H89.1314L91.6837 72.7982H90.9114ZM87.7179 70.1478H89.9233L88.8108 67.1636L87.7179 70.1478Z" fill="#FCFCFC"/>
<path d="M97.0291 66.0576H97.7228V72.7982H97.088L93.2923 67.3272V72.7982H92.5986V66.0576H93.2334L97.0291 71.509V66.0576Z" fill="#FCFCFC"/>
<path d="M103.424 66.0576V66.7513H101.33V72.7982H100.636V66.7513H98.5352V66.0576H103.424Z" fill="#FCFCFC"/>
</svg>
