<svg width="33" height="32" viewBox="0 0 33 32" fill="none" xmlns="http://www.w3.org/2000/svg">
<path d="M28.8901 1H3.32568C2.10107 1 1.11084 1.9668 1.11084 3.16211V28.832C1.11084 30.0273 2.10107 31 3.32568 31H28.8901C30.1147 31 31.1108 30.0273 31.1108 28.8379V3.16211C31.1108 1.9668 30.1147 1 28.8901 1ZM10.0112 26.5645H5.55811V12.2441H10.0112V26.5645ZM7.78467 10.293C6.35498 10.293 5.20068 9.13867 5.20068 7.71484C5.20068 6.29102 6.35498 5.13672 7.78467 5.13672C9.2085 5.13672 10.3628 6.29102 10.3628 7.71484C10.3628 9.13281 9.2085 10.293 7.78467 10.293ZM26.6753 26.5645H22.228V19.6035C22.228 17.9453 22.1987 15.8066 19.9136 15.8066C17.5991 15.8066 17.2476 17.6172 17.2476 19.4863V26.5645H12.8062V12.2441H17.0718V14.2012H17.1304C17.7222 13.0762 19.1753 11.8867 21.3374 11.8867C25.8433 11.8867 26.6753 14.8516 26.6753 18.707V26.5645Z" fill="white"/>
</svg>
