<svg width="136" height="136" viewBox="0 0 136 136" fill="none" xmlns="http://www.w3.org/2000/svg">
<rect x="0.636719" y="0.311523" width="135" height="135" rx="67.5" fill="white"/>
<rect x="1.13672" y="0.811523" width="134" height="134" rx="67" stroke="#53545B" stroke-opacity="0.7" stroke-dasharray="2 3"/>
<ellipse cx="20.4119" cy="94.7299" rx="3.3451" ry="3.3451" fill="white"/>
<ellipse cx="20.4119" cy="94.7299" rx="3.3451" ry="3.3451" fill="white"/>
<ellipse cx="20.4119" cy="94.7299" rx="3.3451" ry="3.3451" fill="white"/>
<ellipse cx="115.747" cy="93.8937" rx="3.3451" ry="3.3451" fill="white"/>
<ellipse cx="115.747" cy="93.8937" rx="3.3451" ry="3.3451" fill="white"/>
<ellipse cx="115.747" cy="93.8937" rx="3.3451" ry="3.3451" fill="white"/>
<circle cx="25.8477" cy="35.7727" r="5.43579" fill="white"/>
<circle cx="25.8477" cy="35.7727" r="5.43579" fill="white"/>
<circle cx="25.8477" cy="35.7727" r="5.43579" fill="white"/>
<mask id="mask0_145_2656" style="mask-type:luminance" maskUnits="userSpaceOnUse" x="17" y="28" width="103" height="79">
<path d="M17.181 28.979H119.207V106.644H17.181V28.979Z" fill="white"/>
</mask>
<g mask="url(#mask0_145_2656)">
<path d="M117.677 95.5902C117.677 96.1304 117.238 96.5701 116.698 96.5701H108.745C108.745 96.5663 108.745 96.5638 108.745 96.56C108.757 96.4105 108.769 96.261 108.775 96.1116C108.776 96.099 108.778 96.0864 108.778 96.0739C108.785 95.9118 108.79 95.751 108.79 95.5902C108.79 95.4332 108.785 95.2762 108.779 95.1191C108.776 95.0701 108.774 95.0211 108.771 94.9734C108.765 94.8641 108.757 94.7548 108.749 94.6455C108.744 94.5915 108.739 94.5375 108.734 94.4822C108.722 94.3742 108.71 94.2674 108.696 94.1606C108.69 94.1116 108.683 94.0614 108.677 94.0124C108.657 93.873 108.634 93.7348 108.609 93.5953C108.607 93.5815 108.605 93.5677 108.602 93.5526C108.574 93.3994 108.541 93.2461 108.506 93.0954C108.496 93.0526 108.486 93.0112 108.476 92.9685C108.448 92.8592 108.421 92.7499 108.392 92.6406C108.378 92.5903 108.363 92.5401 108.348 92.4899C108.318 92.3856 108.288 92.2826 108.254 92.1796C108.239 92.1331 108.224 92.0853 108.208 92.0389C108.166 91.9132 108.122 91.7901 108.075 91.667C108.066 91.6444 108.06 91.6231 108.051 91.6017C107.996 91.456 107.936 91.3115 107.876 91.1683C107.859 91.1331 107.843 91.098 107.828 91.0628C107.779 90.956 107.731 90.8492 107.68 90.7437C107.657 90.6985 107.634 90.652 107.612 90.6068C107.564 90.5088 107.514 90.4133 107.461 90.3178C107.438 90.2739 107.415 90.2299 107.391 90.1859C107.33 90.0766 107.266 89.9673 107.202 89.8593C107.187 89.8342 107.171 89.8078 107.156 89.7814C107.08 89.6571 107.001 89.5352 106.921 89.4134H116.698C117.238 89.4134 117.677 89.853 117.677 90.3932V95.5902ZM107.144 97.1982C106.363 101.854 102.366 105.234 97.6386 105.234C92.9126 105.234 88.9141 101.854 88.1327 97.2007C88.0397 96.6555 87.9958 96.1141 87.9958 95.5902C87.9958 93.2147 88.8688 90.9321 90.4529 89.1621C92.282 87.1207 94.9012 85.9487 97.6386 85.9487C100.377 85.9487 102.995 87.1207 104.824 89.1621C106.408 90.9321 107.283 93.2147 107.283 95.5902C107.283 96.1141 107.236 96.6555 107.144 97.1982ZM87.8161 90.3178C87.7646 90.4133 87.7144 90.5088 87.6654 90.6068C87.6428 90.652 87.6189 90.6985 87.5975 90.745C87.5473 90.8492 87.4983 90.9547 87.4506 91.0615C87.4342 91.098 87.4179 91.1331 87.4028 91.1696C87.34 91.3115 87.281 91.456 87.2257 91.6017C87.2169 91.6231 87.2094 91.6457 87.2018 91.6683C87.1553 91.7914 87.1114 91.9145 87.0687 92.0389C87.0536 92.0853 87.0385 92.1331 87.0234 92.1796C86.9908 92.2826 86.9594 92.3856 86.9292 92.4886C86.9142 92.5401 86.9003 92.5903 86.8865 92.6406C86.8564 92.7499 86.8287 92.8592 86.8023 92.9685C86.791 93.0112 86.7797 93.0526 86.7709 93.0954C86.7358 93.2461 86.7044 93.3994 86.6755 93.5526C86.673 93.5677 86.6704 93.5828 86.6679 93.5978C86.6428 93.7348 86.6215 93.8742 86.6014 94.0124C86.5938 94.0614 86.5888 94.1116 86.5825 94.1606C86.5674 94.2674 86.5561 94.3742 86.5448 94.4822C86.5385 94.5375 86.5335 94.5915 86.5297 94.6455C86.521 94.7548 86.5122 94.8641 86.5071 94.9734C86.5034 95.0211 86.5009 95.0701 86.4996 95.1191C86.4921 95.2762 86.4883 95.4332 86.4883 95.5902C86.4883 95.751 86.4921 95.9118 86.4996 96.0739C86.4996 96.0852 86.5009 96.0977 86.5009 96.1103C86.5084 96.2598 86.5184 96.4105 86.5323 96.5613C86.5323 96.5638 86.5323 96.5663 86.5335 96.5701H46.3682C46.3694 96.5613 46.3694 96.5525 46.3707 96.5437C46.3795 96.4382 46.3858 96.3339 46.3921 96.2284C46.3946 96.1744 46.3996 96.1191 46.4021 96.0651C46.4096 95.9068 46.4122 95.7485 46.4122 95.5902C46.4122 95.4332 46.4084 95.2762 46.4021 95.1191C46.3996 95.0714 46.3971 95.0224 46.3946 94.9734C46.3883 94.8641 46.3808 94.7548 46.3707 94.6455C46.3669 94.5915 46.3619 94.5375 46.3556 94.4822C46.3456 94.3754 46.333 94.2674 46.3192 94.1594C46.3129 94.1116 46.3079 94.0626 46.3004 94.0137C46.279 93.8704 46.2576 93.7285 46.2313 93.5865C46.2288 93.5752 46.2275 93.5652 46.2262 93.5539C46.1973 93.3994 46.1647 93.2461 46.1295 93.0928C46.1207 93.0539 46.1107 93.015 46.1006 92.976C46.073 92.8617 46.0441 92.7486 46.0139 92.6356C46.0001 92.5891 45.9876 92.5439 45.9737 92.4974C45.9423 92.3868 45.9084 92.2763 45.8732 92.1657C45.8607 92.1268 45.8481 92.0866 45.8343 92.0464C45.7866 91.9057 45.7376 91.765 45.6848 91.6256C45.6823 91.6193 45.6798 91.6143 45.6785 91.6092C45.6207 91.4572 45.5592 91.3077 45.4951 91.1583C45.4851 91.1369 45.475 91.1168 45.4662 91.0954C45.4122 90.9723 45.3557 90.8505 45.2966 90.7286C45.2803 90.6947 45.2627 90.6608 45.2464 90.6269C45.1899 90.5151 45.1333 90.4033 45.073 90.294C45.0567 90.2626 45.0391 90.2312 45.0228 90.201C44.9499 90.0704 44.8758 89.941 44.7992 89.8128C44.7941 89.8066 44.7904 89.799 44.7866 89.7927C44.7075 89.6646 44.6283 89.5377 44.5454 89.4134H88.3563C88.2759 89.5352 88.1968 89.6571 88.1214 89.7814C88.1051 89.8078 88.0912 89.8342 88.0749 89.8606C88.0108 89.9686 87.948 90.0754 87.8877 90.1859C87.8626 90.2299 87.84 90.2739 87.8161 90.3178ZM44.769 97.1982C43.9864 101.854 39.9891 105.234 35.2619 105.234C30.536 105.234 26.5374 101.854 25.756 97.1982C25.6656 96.6618 25.6204 96.1203 25.6204 95.5902C25.6204 93.2147 26.4922 90.9321 28.0763 89.1621C29.9053 87.1207 32.5246 85.9487 35.2619 85.9487C38.0005 85.9487 40.6197 87.1207 42.4488 89.1621C44.0329 90.9321 44.9059 93.2147 44.9059 95.5902C44.9059 96.1203 44.8595 96.6618 44.769 97.1982ZM25.452 90.294C25.393 90.4033 25.3352 90.5151 25.2787 90.6269C25.2623 90.6608 25.246 90.6947 25.2284 90.7286C25.1694 90.8505 25.1141 90.9723 25.0588 91.0954C25.05 91.1168 25.04 91.1369 25.0312 91.1583C24.9659 91.3077 24.9043 91.4572 24.8465 91.6092C24.844 91.6143 24.8428 91.6193 24.8402 91.6256C24.7875 91.765 24.7372 91.9057 24.6908 92.0464C24.6769 92.0866 24.6656 92.1268 24.6518 92.1657C24.6166 92.2763 24.5827 92.3856 24.5501 92.4974C24.5375 92.5426 24.5237 92.5891 24.5111 92.6356C24.481 92.7486 24.4521 92.8617 24.4244 92.976C24.4156 93.015 24.4043 93.0539 24.3955 93.0928C24.3604 93.2461 24.3277 93.3994 24.3001 93.5539C24.2976 93.5652 24.2963 93.5752 24.2938 93.5865C24.2687 93.7285 24.2448 93.8704 24.2259 94.0137C24.2184 94.0626 24.2121 94.1116 24.2058 94.1594C24.192 94.2674 24.1795 94.3754 24.1682 94.4822C24.1631 94.5375 24.1581 94.5915 24.1531 94.6455C24.1443 94.7548 24.1368 94.8641 24.1317 94.9734C24.128 95.0224 24.1254 95.0714 24.1229 95.1191C24.1167 95.2762 24.1116 95.4332 24.1116 95.5902C24.1116 95.7485 24.1167 95.9068 24.1229 96.0651C24.1254 96.1191 24.1305 96.1744 24.1342 96.2284C24.1393 96.3339 24.1455 96.4382 24.1543 96.5437C24.1556 96.5525 24.1556 96.5613 24.1569 96.5701H19.6684C19.1282 96.5701 18.6898 96.1304 18.6898 95.5902V90.3932C18.6898 89.853 19.1282 89.4134 19.6684 89.4134H25.9796C25.8967 89.5377 25.8163 89.6646 25.7384 89.7927C25.7347 89.799 25.7309 89.8066 25.7271 89.8128C25.6493 89.941 25.5751 90.0704 25.5023 90.201C25.4847 90.2312 25.4696 90.2626 25.452 90.294ZM20.4221 36.6795C20.4221 33.2739 23.1921 30.5026 26.599 30.5026H71.6485C75.0554 30.5026 77.8266 33.2739 77.8266 36.6795V87.9059H43.3394C43.308 87.872 43.2729 87.8393 43.2402 87.8054C43.1824 87.7463 43.1234 87.6886 43.0643 87.6308C42.9852 87.5529 42.9048 87.475 42.8231 87.3996C42.7616 87.3443 42.7013 87.2903 42.6397 87.2363C42.5568 87.1622 42.4714 87.0893 42.386 87.019C42.3231 86.9662 42.2603 86.916 42.1975 86.8657C42.1096 86.7954 42.0204 86.7275 41.9312 86.661C41.8671 86.6132 41.8018 86.5655 41.7365 86.519C41.646 86.4537 41.5543 86.3909 41.4614 86.3293C41.3948 86.2841 41.3282 86.2401 41.2591 86.1962C41.1662 86.1371 41.0707 86.0781 40.9752 86.0215C40.9074 85.9801 40.837 85.9399 40.7679 85.8997C40.6712 85.8457 40.5732 85.7929 40.4752 85.7401C40.4049 85.7037 40.3333 85.6648 40.2617 85.6296C40.1624 85.5794 40.0632 85.5329 39.9627 85.4864C39.8898 85.4525 39.817 85.4173 39.7429 85.3859C39.6411 85.3407 39.5393 85.2992 39.4376 85.2578C39.3622 85.2276 39.2881 85.1962 39.2115 85.1673C39.1085 85.1284 39.0042 85.0932 38.8999 85.0568C38.8233 85.0304 38.7467 85.0027 38.6713 84.9776C38.5645 84.945 38.4577 84.9136 38.3522 84.8821C38.2743 84.8608 38.1977 84.8369 38.1198 84.8168C38.0118 84.7879 37.9025 84.7628 37.7944 84.7377C37.7166 84.7188 37.6387 84.6987 37.5595 84.6824C37.449 84.6598 37.3372 84.6397 37.2254 84.6196C37.1475 84.6058 37.0709 84.5894 36.9942 84.5781C36.8774 84.5593 36.7593 84.5467 36.6425 84.5317C36.5684 84.5216 36.4955 84.5103 36.4214 84.5028C36.292 84.4889 36.1626 84.4814 36.032 84.4714C35.9692 84.4676 35.9063 84.4601 35.8435 84.4575C35.6501 84.4462 35.4566 84.4412 35.2619 84.4412C35.0684 84.4412 34.8737 84.4462 34.6803 84.4575C34.6175 84.4601 34.5546 84.4676 34.4931 84.4714C34.3624 84.4814 34.2318 84.4889 34.1024 84.5028C34.0283 84.5103 33.9554 84.5216 33.8813 84.5317C33.7645 84.5467 33.6476 84.5593 33.5308 84.5781C33.4529 84.5894 33.3763 84.6058 33.2984 84.6196C33.1879 84.6397 33.0748 84.6598 32.9643 84.6824C32.8851 84.6987 32.8085 84.7188 32.7293 84.7377C32.6213 84.7628 32.512 84.7879 32.4052 84.8168C32.3261 84.8369 32.2495 84.8608 32.1716 84.8834C32.0661 84.9136 31.9593 84.945 31.8538 84.9776C31.7771 85.0027 31.7005 85.0304 31.6239 85.0568C31.5196 85.0932 31.4153 85.1284 31.3136 85.1673C31.2369 85.1962 31.1628 85.2276 31.0862 85.259C30.9844 85.2992 30.8839 85.3407 30.7822 85.3859C30.7081 85.4186 30.6352 85.4525 30.5611 85.4864C30.4619 85.5329 30.3626 85.5794 30.2646 85.6296C30.1918 85.6648 30.1202 85.7037 30.0486 85.7414C29.9506 85.7929 29.8538 85.8457 29.7571 85.8997C29.6868 85.9399 29.6177 85.9813 29.5486 86.0228C29.4544 86.0793 29.3589 86.1371 29.2659 86.1962C29.1981 86.2401 29.1303 86.2841 29.0624 86.3293C28.9707 86.3909 28.879 86.4537 28.7898 86.519C28.7232 86.5655 28.6579 86.6132 28.5926 86.6622C28.5034 86.7275 28.4155 86.7954 28.3288 86.8645C28.2647 86.916 28.2019 86.9675 28.1391 87.019C28.0524 87.0893 27.9695 87.1622 27.8853 87.2363C27.8238 87.2903 27.7622 87.3443 27.7032 87.4009C27.6215 87.475 27.5399 87.5529 27.4607 87.6308C27.4017 87.6886 27.3426 87.7463 27.2849 87.8066C27.2522 87.8393 27.2183 87.872 27.1856 87.9059H20.4221V36.6795ZM79.3328 48.8084C79.3328 47.3122 80.5501 46.0962 82.0438 46.0962H102.363C102.366 46.0962 102.366 46.0962 102.366 46.0962C103.413 46.0962 104.377 46.7105 104.82 47.6614L115.289 70.0913C115.723 71.0247 115.943 72.0222 115.943 73.0548V87.9059H105.715C105.683 87.872 105.65 87.8406 105.617 87.8079C105.559 87.7476 105.499 87.6886 105.438 87.6283C105.361 87.5516 105.28 87.4763 105.2 87.4009C105.138 87.3443 105.077 87.2903 105.014 87.2351C104.931 87.1622 104.848 87.0893 104.763 87.0202C104.7 86.9675 104.637 86.916 104.572 86.8645C104.485 86.7954 104.397 86.7275 104.309 86.6622C104.244 86.6132 104.178 86.5655 104.112 86.5178C104.021 86.4537 103.931 86.3909 103.839 86.3293C103.771 86.2841 103.704 86.2401 103.635 86.1962C103.542 86.1371 103.447 86.0793 103.353 86.0228C103.283 85.9813 103.214 85.9399 103.143 85.8997C103.048 85.8457 102.95 85.7929 102.853 85.7414C102.782 85.7037 102.71 85.6648 102.637 85.6296C102.539 85.5794 102.44 85.5329 102.339 85.4864C102.265 85.4525 102.194 85.4173 102.12 85.3859C102.018 85.3407 101.916 85.2992 101.814 85.259C101.739 85.2276 101.664 85.1962 101.588 85.1673C101.485 85.1284 101.381 85.0932 101.277 85.0568C101.2 85.0304 101.123 85.0027 101.047 84.9776C100.941 84.945 100.836 84.9136 100.729 84.8834C100.651 84.8608 100.574 84.8369 100.495 84.8168C100.388 84.7879 100.28 84.7628 100.171 84.7377C100.092 84.7188 100.015 84.6987 99.9362 84.6824C99.8256 84.6598 99.7138 84.6397 99.602 84.6196C99.5254 84.6058 99.4475 84.5894 99.3709 84.5781C99.2541 84.5593 99.136 84.5467 99.0192 84.5317C98.9463 84.5216 98.8722 84.5103 98.7981 84.5028C98.6687 84.4889 98.538 84.4814 98.4086 84.4714C98.3458 84.4676 98.283 84.4601 98.2202 84.4575C98.0267 84.4462 97.8333 84.4412 97.6386 84.4412C97.4438 84.4412 97.2504 84.4462 97.0569 84.4575C96.9941 84.4601 96.9326 84.4676 96.8685 84.4714C96.7391 84.4814 96.6097 84.4889 96.4791 84.5028C96.4049 84.5103 96.3321 84.5216 96.258 84.5317C96.1411 84.5467 96.0231 84.5593 95.9075 84.5781C95.8296 84.5894 95.753 84.6058 95.6751 84.6196C95.5633 84.6397 95.4515 84.6598 95.3409 84.6824C95.263 84.6987 95.1839 84.7188 95.106 84.7377C94.998 84.7628 94.8887 84.7879 94.7806 84.8168C94.7028 84.8369 94.6261 84.8608 94.5495 84.8834C94.4427 84.9136 94.3359 84.945 94.2304 84.9776C94.1538 85.0027 94.0772 85.0304 94.0005 85.0568C93.8963 85.0932 93.792 85.1284 93.689 85.1673C93.6136 85.1962 93.5382 85.2276 93.4641 85.259C93.3624 85.2992 93.2594 85.3407 93.1589 85.3859C93.0847 85.4173 93.0119 85.4525 92.9378 85.4864C92.8385 85.5329 92.7393 85.5794 92.64 85.6296C92.5672 85.6648 92.4968 85.7037 92.4252 85.7414C92.3272 85.7929 92.2292 85.8457 92.1338 85.8997C92.0634 85.9399 91.9943 85.9813 91.9252 86.0228C91.8298 86.0793 91.7356 86.1371 91.6426 86.1962C91.5735 86.2401 91.5057 86.2853 91.4378 86.3306C91.3461 86.3909 91.2557 86.4537 91.1652 86.5178C91.0999 86.5655 91.0333 86.6132 90.968 86.6622C90.8801 86.7275 90.7921 86.7954 90.7054 86.8645C90.6414 86.916 90.5773 86.9675 90.5132 87.0202C90.4291 87.0893 90.3462 87.1622 90.2633 87.2351C90.2004 87.2903 90.1389 87.3456 90.0773 87.4021C89.9969 87.4763 89.9178 87.5516 89.8386 87.6283C89.7796 87.6886 89.7193 87.7476 89.659 87.8079C89.6276 87.8418 89.5937 87.872 89.561 87.9059H79.3328V48.8084ZM117.452 88.0227V73.0548C117.452 71.8011 117.183 70.5901 116.654 69.4557L106.186 47.0245C105.498 45.5447 103.998 44.5887 102.367 44.5887C102.366 44.5887 102.366 44.5887 102.363 44.5887H82.0438C81.0124 44.5887 80.0677 44.963 79.3328 45.5799V36.6795C79.3328 32.4422 75.887 28.9939 71.6485 28.9939H26.599C22.3617 28.9939 18.9146 32.4422 18.9146 36.6795V88.0227C17.9109 88.343 17.181 89.284 17.181 90.3932V95.5902C17.181 96.962 18.2978 98.0775 19.6684 98.0775H24.3955C25.5412 103.134 30.0121 106.742 35.2619 106.742C40.5129 106.742 44.9838 103.134 46.1295 98.0775H86.7709C87.9179 103.134 92.39 106.742 97.6386 106.742C102.887 106.742 107.359 103.135 108.506 98.0775H116.698C118.07 98.0775 119.184 96.962 119.184 95.5902V90.3932C119.184 89.284 118.455 88.343 117.452 88.0227Z" fill="#53545B"/>
</g>
<path d="M86.2635 67.8668V54.0069C86.2635 53.4667 86.702 53.027 87.2421 53.027H99.0544C99.4313 53.027 99.778 53.2481 99.9388 53.5923L106.411 67.4535C106.553 67.7588 106.529 68.1093 106.348 68.3932C106.167 68.6783 105.859 68.8467 105.524 68.8467H87.2421C86.702 68.8467 86.2635 68.4082 86.2635 67.8668ZM105.524 70.3541C106.377 70.3541 107.162 69.9245 107.621 69.2022C108.079 68.4836 108.138 67.5917 107.776 66.8166L101.306 52.9554C100.899 52.0823 100.015 51.5195 99.0544 51.5195H87.2421C85.8716 51.5195 84.7573 52.6351 84.7573 54.0069V67.8668C84.7573 69.2399 85.8716 70.3541 87.2421 70.3541H105.524Z" fill="#53545B"/>
<path d="M97.6388 98.3039C96.1451 98.3039 94.9278 97.0866 94.9278 95.5905C94.9278 94.0968 96.1451 92.8795 97.6388 92.8795C99.1349 92.8795 100.352 94.0968 100.352 95.5905C100.352 97.0866 99.1349 98.3039 97.6388 98.3039ZM97.6388 91.3721C95.3135 91.3721 93.4216 93.2639 93.4216 95.5905C93.4216 97.9183 95.3135 99.8114 97.6388 99.8114C99.9666 99.8114 101.858 97.9183 101.858 95.5905C101.858 93.2639 99.9666 91.3721 97.6388 91.3721Z" fill="#53545B"/>
<path d="M35.2621 98.3039C33.7672 98.3039 32.5511 97.0866 32.5511 95.5905C32.5511 94.0968 33.7672 92.8795 35.2621 92.8795C36.7582 92.8795 37.9743 94.0968 37.9743 95.5905C37.9743 97.0866 36.7582 98.3039 35.2621 98.3039ZM35.2621 91.3721C32.9368 91.3721 31.0449 93.2639 31.0449 95.5905C31.0449 97.9183 32.9368 99.8114 35.2621 99.8114C37.5873 99.8114 39.4817 97.9183 39.4817 95.5905C39.4817 93.2639 37.5873 91.3721 35.2621 91.3721Z" fill="#53545B"/>
<path d="M87.9958 76.5305C87.9958 75.9916 88.4342 75.5519 88.9769 75.5519H94.1739C94.7141 75.5519 95.1512 75.9916 95.1512 76.5305C95.1512 77.0707 94.7141 77.5091 94.1739 77.5091H88.9769C88.4342 77.5091 87.9958 77.0707 87.9958 76.5305ZM96.6599 76.5305C96.6599 75.1587 95.5444 74.0444 94.1739 74.0444H88.9769C87.6038 74.0444 86.4883 75.1587 86.4883 76.5305C86.4883 77.901 87.6038 79.0166 88.9769 79.0166H94.1739C95.5444 79.0166 96.6599 77.901 96.6599 76.5305Z" fill="#53545B"/>
</svg>
