<svg width="33" height="32" viewBox="0 0 33 32" fill="none" xmlns="http://www.w3.org/2000/svg">
<path d="M16.0551 1C7.74047 1 1 7.74047 1 16.0551C1 23.1153 5.86099 29.0398 12.4184 30.667V20.6559H9.31403V16.0551H12.4184V14.0726C12.4184 8.94849 14.7375 6.5734 19.7683 6.5734C20.7222 6.5734 22.368 6.76068 23.0413 6.94737V11.1176C22.686 11.0803 22.0687 11.0616 21.3021 11.0616C18.8337 11.0616 17.8798 11.9968 17.8798 14.4279V16.0551H22.7974L21.9525 20.6559H17.8798V31C25.3345 30.0997 31.1108 23.7525 31.1108 16.0551C31.1102 7.74047 24.3697 1 16.0551 1Z" fill="white"/>
</svg>
