<svg width="65" height="39" viewBox="0 0 65 39" fill="none" xmlns="http://www.w3.org/2000/svg">
<mask id="mask0_171_4067" style="mask-type:luminance" maskUnits="userSpaceOnUse" x="40" y="0" width="25" height="39">
<path d="M40.7561 0.931885H64.9178V38.223H40.7561V0.931885Z" fill="white"/>
</mask>
<g mask="url(#mask0_171_4067)">
<path d="M57.2181 26.931C57.6779 26.7022 58.0489 26.8582 58.3959 27.1307C58.7632 26.9618 59.1232 27.1104 59.4147 27.5179C59.6033 27.5253 59.8153 27.4729 59.9971 27.6234C60.1549 27.7541 60.2991 27.8817 60.2775 28.1117C60.4563 28.2005 60.6258 28.2708 60.7275 28.4404C60.8359 28.6216 60.8131 28.79 60.7028 28.9762C61.0202 29.2734 60.8994 29.655 60.8926 30.0127C60.8902 30.1674 60.8409 30.324 60.7965 30.4745C60.733 30.6921 60.5876 30.8296 60.3638 30.8931C60.1118 30.9647 59.864 31.0516 59.6125 31.1324C59.5947 31.1712 59.5651 31.2057 59.5645 31.2403C59.5534 31.6793 59.4073 32.093 59.3377 32.5203C59.223 33.222 59.0412 33.907 58.8434 34.5871C58.6714 35.1778 58.4933 35.7728 58.1112 36.2778C58.0076 36.4147 57.9189 36.5602 57.8449 36.715C57.6613 37.1022 57.3365 37.3223 56.9765 37.5239C56.5309 37.7742 56.0483 37.8797 55.5565 37.9765C54.8841 38.1054 54.2055 38.1787 53.5214 38.196C53.416 38.204 53.3106 38.1997 53.2065 38.183C52.8274 38.1041 52.4472 38.1312 52.0657 38.146C51.9215 38.1541 51.7772 38.1534 51.633 38.1436C50.9125 38.077 50.1859 38.0862 49.4716 37.9561C49.4321 37.9531 49.3927 37.9481 49.3545 37.9401C48.7172 37.7329 48.0608 37.5714 47.4648 37.26C46.9687 37.001 46.5428 36.6502 46.3604 36.0836C46.292 35.8708 46.2205 35.6594 46.1533 35.4466C45.9197 34.7055 45.757 33.9489 45.6313 33.1831C45.5518 32.7028 45.4649 32.2243 45.3761 31.7465C45.3478 31.593 45.3015 31.4431 45.2621 31.2865C45.0501 31.2088 44.8473 31.1509 44.6599 31.0609C44.4344 30.9542 44.218 30.8309 44.0103 30.6921C43.8871 30.6095 43.8396 30.464 43.8433 30.3092C43.8476 30.1384 43.8464 29.967 43.8544 29.7962C43.8674 29.5077 43.8834 29.221 43.8211 28.9336C43.7829 28.7548 43.7761 28.5674 43.8415 28.3873C43.9111 28.1956 43.9764 28.1512 44.1946 28.1499C44.2458 28.1499 44.2963 28.1543 44.374 28.1573C44.3764 28.0729 44.3814 27.9989 44.3801 27.9243C44.3758 27.6228 44.5262 27.4242 44.8183 27.365C44.9465 27.3391 45.079 27.333 45.2245 27.3163C45.4069 27.1702 45.5807 26.9821 45.8525 26.9612C45.9123 26.9569 45.969 26.9044 46.0263 26.873C46.1514 26.8046 46.2759 26.7355 46.4017 26.6658C46.4165 25.9728 47.2091 25.7076 47.8124 26.0856C47.8654 26.0381 47.9215 25.9944 47.9807 25.9555C48.4195 25.7058 48.8614 25.6065 49.3058 25.9456C49.3366 25.9691 49.3711 25.9894 49.4044 26.0104C49.4229 26.019 49.4414 26.0264 49.4605 26.032L50.2044 25.7958C50.1988 25.7126 50.1994 25.6226 50.1859 25.535C50.1563 25.3445 50.2019 25.1607 50.2746 24.9961C50.3831 24.7495 50.5489 24.5429 50.8534 24.5226C50.9526 24.5183 51.0463 24.4936 51.1344 24.4486C51.2225 24.4029 51.2971 24.3407 51.3581 24.2624C51.5344 24.0484 51.7834 23.9602 52.0626 23.9707C52.1526 23.9738 52.2426 23.9806 52.3566 23.9874C52.3751 23.5743 52.3899 23.1698 52.3436 22.7647C52.3276 22.621 52.3147 22.4774 52.3036 22.3331C52.2832 22.1117 52.2506 21.8916 52.2056 21.6733C51.9979 20.5437 51.5665 19.482 51.2238 18.3943C51.1258 18.0836 50.9489 17.7987 50.8201 17.4966C50.5846 16.9398 50.2346 16.4366 50.0565 15.8534C50.0491 15.8305 50.0238 15.8139 49.9967 15.7818C49.5807 15.9495 49.1406 15.9452 48.6938 15.944C48.1422 15.9428 47.593 15.9391 47.0482 15.8441C46.5946 15.7658 46.1459 15.6678 45.7139 15.4982C45.1968 15.2953 44.7216 15.0185 44.2563 14.7225C43.4544 14.2132 42.8412 13.5134 42.2791 12.763C42.1207 12.5515 42.0079 12.3154 41.8914 12.0786C41.746 11.7833 41.5962 11.491 41.4902 11.1802C41.2061 10.3466 40.9152 9.51423 40.8689 8.62203C40.8622 8.49132 40.8381 8.36122 40.8221 8.23112C40.7518 7.68112 40.7475 7.13051 40.8085 6.57928C40.8702 6.0447 40.9238 5.50889 40.9854 4.97369C40.9978 4.85592 41.0224 4.74 41.0582 4.62717C41.0723 4.58647 41.0951 4.55071 41.126 4.5205C41.1568 4.48967 41.1925 4.46809 41.2338 4.45391C41.2751 4.44034 41.317 4.43664 41.3602 4.44281C41.4027 4.44897 41.4421 4.46377 41.4785 4.48843C41.5654 4.54824 41.6357 4.62347 41.6899 4.71411C41.8409 4.98047 42.0375 5.20737 42.2797 5.39482C42.4862 5.5576 42.6735 5.74442 42.8763 5.91213C43.0384 6.04593 43.2097 6.1674 43.3786 6.29318C43.6196 6.47199 43.8754 6.63046 44.104 6.82776C44.2371 6.93505 44.3783 7.03124 44.5274 7.11571C45.0926 7.4536 45.6362 7.82355 46.1588 8.22372C46.65 8.60353 47.0864 9.03761 47.4679 9.52718C47.7496 9.88912 48.0473 10.2375 48.3326 10.5859C48.4374 10.5538 48.4275 10.4823 48.4251 10.4194C48.3949 9.62398 48.5261 8.84894 48.695 8.07574C48.8546 7.34261 49.0821 6.62922 49.3033 5.9146C49.4833 5.34919 49.7101 4.80289 49.985 4.27695C50.2253 3.80957 50.4879 3.35638 50.764 2.90874C50.9304 2.63929 51.0906 2.36923 51.2977 2.13246C51.5566 1.83588 51.8296 1.55102 52.1045 1.26924C52.1754 1.19586 52.2826 1.15887 52.3627 1.09289C52.5359 0.949228 52.7103 0.989306 52.8743 1.09228C52.9988 1.16873 53.1091 1.26122 53.2059 1.36974C53.4536 1.65892 53.7211 1.93947 53.9177 2.26194C54.2518 2.81132 54.5297 3.39276 54.6709 4.02908C54.6906 4.11787 54.7183 4.20542 54.7448 4.29298C54.7861 4.43109 54.8521 4.56612 54.8675 4.70671C54.9383 5.36029 55.0154 6.01449 54.934 6.67362C54.8502 7.35186 54.7159 8.02086 54.5328 8.67937C54.3954 9.17511 54.1895 9.64063 54.0274 10.1234C53.8629 10.6124 53.617 11.0619 53.4228 11.5354C53.2324 11.9985 52.9674 12.4214 52.7097 12.85C52.4312 13.3124 52.1045 13.7391 51.7815 14.1682C51.633 14.3655 51.4383 14.5289 51.2558 14.6985C51.0833 14.8594 50.8934 15.0019 50.7227 15.1652C50.6204 15.2627 50.5409 15.3848 50.4404 15.5087C50.6568 15.9717 50.8515 16.4305 51.0814 16.8713C51.4722 17.6205 51.7742 18.4036 52.0416 19.202C52.1236 19.4481 52.2093 19.6928 52.3393 19.9302C52.3393 19.8723 52.3406 19.8143 52.3387 19.757C52.335 19.6521 52.3153 19.5449 52.3276 19.4419C52.4459 18.4646 52.5433 17.4842 52.8373 16.5365C52.9692 16.1099 53.0543 15.6696 53.1751 15.2399C53.2453 14.9883 53.3402 14.7429 53.4302 14.4969C53.58 14.0905 53.7248 13.6817 53.8918 13.2828C53.9978 13.0423 54.1199 12.8105 54.2585 12.5873C54.335 12.4603 54.3904 12.3394 54.3978 12.1865C54.4231 11.6526 54.579 11.1587 54.8416 10.6894C55.1732 10.0969 55.6071 9.59007 56.0779 9.10975C56.5094 8.66519 56.9845 8.27366 57.5047 7.937C58.1352 7.53252 58.77 7.13359 59.4135 6.74946C59.864 6.48063 60.3287 6.23461 60.794 5.99044C60.9352 5.91953 61.0837 5.87082 61.2396 5.84554C61.276 5.83753 61.3124 5.83753 61.3493 5.84431C61.3857 5.85109 61.4196 5.86404 61.451 5.88377C61.4825 5.90412 61.509 5.92878 61.5305 5.95899C61.5527 5.98921 61.5675 6.0225 61.5768 6.05826C61.6976 6.48679 61.8405 6.91162 61.774 7.37221C61.7351 7.64413 61.7512 7.92406 61.7117 8.19597C61.6778 8.42781 61.5946 8.65286 61.541 8.88223C61.3512 9.68996 60.9771 10.4077 60.4729 11.0588C60.1487 11.4774 59.7432 11.8141 59.3241 12.1335C59.0431 12.3468 58.7626 12.5602 58.4557 12.7408C57.7099 13.1792 56.9112 13.3235 56.0631 13.199C55.8678 13.1657 55.6798 13.1071 55.4998 13.0232C55.2551 12.9147 55.0012 12.866 54.7276 12.8228C54.6844 12.8703 54.6456 12.9209 54.6117 12.9757C54.3011 13.5849 54.0792 14.2317 53.8179 14.8625C53.7279 15.0795 53.6786 15.3132 53.6151 15.5407C53.4999 15.9582 53.363 16.3719 53.2786 16.7955C53.1282 17.5551 52.9914 18.3191 52.8835 19.0855C52.7892 19.7514 52.817 20.4229 52.9045 21.09C52.9174 21.1412 52.9328 21.1918 52.9526 21.2405C53.0684 21.0352 53.1677 20.8557 53.2693 20.6781C53.5103 20.257 53.7384 19.8291 54.049 19.4499C54.2481 19.2064 54.4213 18.9418 54.6764 18.7495C54.7547 18.6909 54.7787 18.6089 54.7997 18.5145C54.857 18.2537 55.0037 18.0435 55.1713 17.8326C55.6342 17.2505 56.2184 16.7961 56.7762 16.3232C57.3753 15.8151 57.9848 15.3089 58.6924 14.9433C59.3013 14.6288 59.9151 14.344 60.5906 14.1873C61.2834 14.0307 61.9829 13.9142 62.6892 13.839C63.2248 13.7792 63.7628 13.7428 64.2997 13.699C64.4051 13.6904 64.5104 13.6916 64.6152 13.7015C64.7755 13.7169 64.8396 13.7816 64.8716 13.95C64.8969 14.0788 64.9172 14.2083 64.8691 14.3384C64.81 14.4987 64.7767 14.672 64.696 14.82C64.3175 15.5093 63.9496 16.2036 63.4331 16.8085C63.1453 17.1463 62.9136 17.5317 62.6017 17.8511C62.3823 18.0755 62.145 18.2827 61.917 18.4991C61.5213 18.8752 61.0147 19.0867 60.5777 19.4012C60.5154 19.4462 60.4353 19.4678 60.3632 19.498C60.0489 19.6306 59.734 19.7613 59.4196 19.8945C58.8329 20.1442 58.2123 20.2576 57.5848 20.3366C57.4566 20.3526 57.3223 20.3304 57.1916 20.3156C56.6412 20.2539 56.0977 20.1676 55.5923 19.9173C55.3094 19.7767 55.0259 19.6429 54.7849 19.3981C54.6844 19.5103 54.5723 19.6041 54.4989 19.7224C54.2234 20.1695 53.9448 20.614 53.6847 21.0715C53.3328 21.6912 53.1824 22.3633 53.0703 23.0526C53.0302 23.2962 52.955 23.5348 53.0123 23.8129C53.3396 23.7857 53.6428 23.8382 53.9023 24.0447C54.1476 24.2402 54.3103 24.4856 54.3584 24.8062C54.4854 24.8062 54.6025 24.7852 54.7078 24.8117C54.836 24.8444 54.955 24.8987 55.0635 24.9745C55.1565 25.0399 55.2212 25.1453 55.3131 25.2508C55.7821 25.2353 56.1198 25.4456 56.2511 25.9401C56.4644 26.0474 56.7023 26.0924 56.8748 26.2718C57.0456 26.45 57.106 26.6788 57.2181 26.931ZM45.8575 31.5011C45.8544 31.5443 45.8544 31.5868 45.8581 31.6293C45.9807 32.315 46.0978 33.0013 46.2309 33.685C46.316 34.1234 46.4146 34.5587 46.5262 34.9916C46.5921 35.2456 46.6901 35.4916 46.7869 35.7358C46.9292 36.0971 47.1357 36.4282 47.4679 36.6311C47.7902 36.8284 48.1261 37.0146 48.4972 37.12C48.687 37.1737 48.8737 37.2384 49.0617 37.297C49.5653 37.4542 50.0725 37.5831 50.6081 37.5572C50.7529 37.5541 50.8977 37.5609 51.0413 37.5776C51.4746 37.6139 51.9073 37.6528 52.3424 37.6065C52.4324 37.5973 52.5254 37.6133 52.6179 37.6176C52.9852 37.6355 53.3532 37.6719 53.7199 37.6657C54.3399 37.6522 54.9519 37.5794 55.5578 37.4481C56.0101 37.3531 56.465 37.276 56.8416 36.9789C56.8625 36.9622 56.8859 36.9499 56.9118 36.9431C57.0369 36.9141 57.1164 36.8266 57.1818 36.726C57.3753 36.4295 57.5787 36.1384 57.7537 35.8314C57.9109 35.557 58.0483 35.274 58.1673 34.9811C58.2696 34.7265 58.3392 34.4576 58.4101 34.1913C58.5253 33.7609 58.6394 33.3293 58.7349 32.894C58.8391 32.4192 58.9235 31.9401 59.0129 31.4616C59.0239 31.4018 59.0085 31.3371 59.0055 31.273C58.64 31.3463 58.2924 31.4111 57.9466 31.4851C57.6274 31.5535 57.3112 31.6398 56.9901 31.7033C56.6567 31.7699 56.3146 31.7995 55.9842 31.8791C55.5115 31.9894 55.0339 32.0708 54.5507 32.1232C54.0681 32.1793 53.5855 32.2453 53.1005 32.2718C52.4983 32.3051 51.8943 32.3064 51.291 32.3138C51.148 32.3156 51.005 32.2866 50.8614 32.2749C50.6266 32.257 50.3917 32.2361 50.1563 32.2262C49.9474 32.2182 49.7372 32.2361 49.5295 32.2182C49.3082 32.1997 49.0901 32.1454 48.8688 32.1183C47.9006 31.9993 46.9502 31.7977 46.0171 31.5128C45.9715 31.4992 45.9197 31.5054 45.8575 31.5011ZM44.8929 27.8638C44.8609 28.2202 44.9102 28.2992 45.1752 28.3565C45.2263 28.3676 45.2787 28.3725 45.3311 28.3799C45.8112 28.4502 46.2932 28.5137 46.7721 28.5914C47.7335 28.748 48.7036 28.8239 49.6719 28.9028C50.5101 28.9712 51.3526 28.9934 52.1926 29.0292C52.6524 29.0483 53.1122 29.0631 53.572 29.0619C54.5051 29.0594 55.4376 29.0656 56.3694 29.0132C56.8422 28.986 57.3155 28.9651 57.7876 28.9379C57.9842 28.9268 58.1808 28.9022 58.3774 28.8917C58.9025 28.8646 59.427 28.8381 59.9472 28.7561C59.962 28.7536 59.9719 28.7215 59.9842 28.7024L59.7364 28.5119C59.6865 28.3577 59.7629 28.2239 59.7019 28.1117C59.6803 28.1099 59.6581 28.1099 59.6366 28.1123C59.2643 28.2357 59.2618 28.2344 59.0696 27.9237C59.0313 27.8546 58.9857 27.7905 58.9321 27.7325C58.8803 27.682 58.8089 27.6511 58.7392 27.6073C58.6874 27.7122 58.6548 27.7997 58.6036 27.8743C58.4779 28.0593 58.2233 28.0402 58.1235 27.8373C58.0834 27.7566 58.0736 27.661 58.0428 27.5753C57.9922 27.4366 57.8431 27.3317 57.7038 27.3607C57.5768 27.3909 57.4554 27.4359 57.3389 27.4957C57.2693 27.5284 57.2175 27.5975 57.1503 27.6369C56.9956 27.7282 56.8218 27.6832 56.7516 27.5216C56.701 27.4137 56.6739 27.3009 56.6696 27.1819C56.6727 26.8983 56.579 26.6738 56.346 26.508C56.3023 26.5117 56.2628 26.5111 56.2252 26.5178C55.9306 26.5684 55.8092 26.4901 55.7513 26.2083C55.7408 26.1571 55.7426 26.1029 55.7291 26.0523C55.6779 25.855 55.5528 25.7736 55.3464 25.8045C55.3081 25.8106 55.2724 25.834 55.2342 25.8408C55.0135 25.8797 54.886 25.7971 54.828 25.5806C54.7547 25.3075 54.7356 25.2958 54.4909 25.3815C54.4416 25.3987 54.3935 25.4228 54.3436 25.4376C54.1217 25.5048 53.9602 25.4203 53.8863 25.1934C53.8376 25.0436 53.792 24.8919 53.7525 24.7396C53.71 24.5731 53.5954 24.4665 53.4567 24.3869C53.368 24.3364 53.2632 24.3148 53.1849 24.2864C52.9717 24.3616 52.8176 24.4424 52.7239 24.6533C52.5877 24.9603 52.3689 24.9449 52.1834 24.6428C52.176 24.6317 52.1735 24.6181 52.1667 24.607C52.0688 24.456 51.9418 24.4381 51.8056 24.5602C51.7674 24.5947 51.7211 24.6348 51.7082 24.6804C51.6373 24.9326 51.4561 24.998 51.2219 24.9869C51.1825 24.9844 51.143 24.9869 51.1042 24.9943C50.8016 25.059 50.6543 25.2464 50.6956 25.5627C50.7054 25.6398 50.7449 25.712 50.7615 25.789C50.8065 26.0011 50.7209 26.1393 50.5039 26.1263C50.3141 26.1152 50.1865 26.2367 50.0213 26.2718C49.8451 26.3082 49.7421 26.4525 49.638 26.5924C49.5307 26.7367 49.3563 26.7454 49.2281 26.6245C49.1714 26.569 49.1233 26.5067 49.0845 26.4383C48.9915 26.2829 48.8398 26.2416 48.6796 26.2391C48.4879 26.2367 48.3178 26.3014 48.2007 26.4673C48.1157 26.5869 48.0195 26.6917 47.8389 26.7127C47.7403 26.6529 47.6355 26.5684 47.516 26.5209C47.3853 26.4691 47.2411 26.4519 47.0772 26.4124C47.0439 26.5166 47.0131 26.598 46.9921 26.6825C46.9631 26.7953 46.9557 26.9162 46.9145 27.0241C46.8682 27.1437 46.7708 27.2029 46.6316 27.1819C46.5558 27.1708 46.4516 27.1449 46.4048 27.1819C46.1773 27.3626 45.908 27.4594 45.6553 27.5901C45.6442 27.5975 45.6356 27.6067 45.6282 27.6184C45.4988 27.7966 45.312 27.8398 45.1068 27.8435C45.0433 27.8435 44.9798 27.8546 44.8929 27.8638ZM44.4257 28.7505C44.414 28.814 44.3949 28.864 44.3974 28.9127C44.406 29.1087 44.4319 29.3042 44.4307 29.4997C44.4282 29.7222 44.4029 29.9448 44.3888 30.1674C44.3801 30.3012 44.4356 30.3949 44.5619 30.4455C44.83 30.5528 45.0772 30.7026 45.3564 30.7889C46.2217 31.0621 47.1006 31.2816 47.993 31.4468C48.4448 31.5282 48.8928 31.6423 49.3569 31.6472C49.5548 31.6478 49.7514 31.662 49.9468 31.6898C50.2981 31.7403 50.6506 31.7625 51.005 31.757C51.7403 31.7502 52.4749 31.757 53.2077 31.6972C53.7445 31.6534 54.2807 31.6016 54.8151 31.5387C55.0752 31.5079 55.3309 31.4401 55.5892 31.3932C56.1963 31.2841 56.8107 31.2064 57.4092 31.0621C58.0859 30.8993 58.7663 30.7556 59.4455 30.6052C59.676 30.5546 59.9022 30.4825 60.1284 30.4128C60.2313 30.3808 60.3256 30.3191 60.3453 30.2038C60.3971 29.8937 60.3614 29.5872 60.3213 29.2808C60.2295 29.2808 60.1635 29.2752 60.0994 29.2814C59.6421 29.3282 59.1854 29.3893 58.7269 29.4226C58.0582 29.4719 57.3888 29.5027 56.7189 29.5391C56.4829 29.5521 56.2468 29.5607 56.0101 29.5681C55.7217 29.5767 55.4326 29.5804 55.1436 29.5891C55.0388 29.5915 54.934 29.6069 54.8293 29.6063C54.0804 29.5995 53.331 29.5934 52.5828 29.5817C52.0047 29.573 51.4265 29.5687 50.8491 29.541C50.364 29.5175 49.8796 29.4713 49.3964 29.422C48.5194 29.3332 47.6423 29.2456 46.7678 29.1359C46.0639 29.0477 45.3595 28.9577 44.6704 28.7776C44.5965 28.7585 44.517 28.7604 44.4257 28.7505ZM54.2333 4.68266C53.0241 6.25742 53.0931 5.91583 52.2241 6.5355C52.1772 6.77844 52.1365 7.0374 52.0755 7.29205C51.9319 7.89199 51.7778 8.48947 51.6275 9.08879C51.6022 9.18929 51.5554 9.28979 51.6404 9.40078C51.9775 9.35392 52.2993 9.25712 52.6056 9.11037C52.8657 8.98458 53.1344 8.87976 53.4105 8.79591C53.6361 8.73178 53.869 8.67321 54.0484 8.51043C54.0576 8.49933 54.065 8.487 54.0712 8.47405C54.3091 7.64906 54.4459 6.80803 54.4465 5.94975C54.4459 5.5317 54.4206 5.10995 54.2333 4.68266ZM49.2368 8.01346C49.2066 8.1263 49.1788 8.21015 49.1628 8.29586C49.103 8.61895 49.0303 8.94019 48.9933 9.26575C48.9224 9.89528 48.9021 10.5242 49.0913 11.1433C49.1566 11.356 49.2257 11.5755 49.2374 11.795C49.2497 12.017 49.328 12.1995 49.4278 12.3863C49.6879 12.8715 49.9381 13.3617 50.1101 13.8877C50.1144 13.9006 50.1526 13.9031 50.1964 13.9173C50.3332 13.2791 50.4053 12.6323 50.5347 11.996C50.6685 11.3418 50.7967 10.6864 50.9378 9.9816C50.5957 9.96927 50.4638 9.70476 50.3042 9.48834C50.0324 9.11838 49.7834 8.73117 49.5326 8.34642C49.4549 8.22742 49.3896 8.1041 49.2368 8.01284V8.01346ZM51.7174 6.56695C51.601 6.38382 51.5054 6.27284 51.4537 6.14459C51.2817 5.71729 51.0413 5.32514 50.8336 4.91635C50.7517 4.75418 50.658 4.59572 50.5199 4.46747C50.1859 4.93299 49.5036 6.77967 49.434 7.39749C49.5252 7.49059 49.6293 7.57322 49.7027 7.6768C49.9665 8.05107 50.2118 8.43767 50.4805 8.80824C50.6309 9.01541 50.7615 9.2454 51.0093 9.41311C51.1338 8.93341 51.2552 8.47898 51.3686 8.02271C51.4919 7.52697 51.6065 7.02939 51.7168 6.56695H51.7174ZM42.2298 11.5588C42.5416 11.6143 42.8276 11.6563 43.1099 11.7185C43.5389 11.8135 43.9721 11.811 44.406 11.7907C44.5114 11.7839 44.615 11.766 44.716 11.7376C44.8091 11.713 44.9262 11.7561 44.9983 11.6519C44.9416 11.5027 44.8276 11.4109 44.7234 11.3134C44.1379 10.7622 43.6153 10.1561 43.1567 9.49512C43.0298 9.31322 42.917 9.10235 42.745 8.97719C42.5718 8.85079 42.3346 8.80886 42.1219 8.74103C41.889 8.66704 41.6523 8.60538 41.3916 8.53139C41.5105 9.59994 41.7324 10.6037 42.2292 11.5588H42.2298ZM43.2042 8.5764C43.7305 9.47477 44.3783 10.2301 45.0649 10.9552C45.1339 11.028 45.1924 11.1235 45.3305 11.1235C45.6565 10.2954 45.778 9.43716 45.7095 8.52091C45.1493 8.15219 44.5804 7.77607 44.0097 7.40366C43.9456 7.36235 43.8698 7.33891 43.7915 7.30377C43.6085 7.73908 43.5456 8.21077 43.2042 8.5764ZM46.8682 13.1879C46.8386 13.1379 46.8306 13.1095 46.8115 13.0941C46.4615 12.8167 46.1089 12.5423 45.7601 12.2636C45.6072 12.1415 45.4427 12.0817 45.2479 12.1286C45.1703 12.1427 45.0938 12.16 45.018 12.1822C44.7407 12.2815 44.4516 12.3037 44.162 12.295C43.8865 12.2864 43.6103 12.2611 43.3367 12.2303C43.0785 12.2013 42.8227 12.1557 42.5299 12.1119C42.562 12.1982 42.5731 12.2611 42.6051 12.3098C42.9614 12.85 43.3909 13.3284 43.8532 13.7798C43.9678 13.8914 44.109 13.913 44.255 13.9037C44.6482 13.8784 45.0445 13.8667 45.434 13.8112C45.9585 13.7372 46.4627 13.593 46.8676 13.1879H46.8682ZM44.7715 14.3748C44.9866 14.5653 45.2288 14.7121 45.4969 14.815C45.8125 14.9427 46.1422 15.0351 46.4596 15.1585C46.7561 15.2725 47.063 15.3385 47.3804 15.3564C47.9813 15.3946 48.5835 15.4082 49.185 15.4224C49.3797 15.4267 49.5788 15.4193 49.7612 15.3397C49.7514 15.1375 49.7489 15.14 49.6657 15.0561C49.2824 14.6714 48.8294 14.3809 48.3745 14.093C48.1526 13.953 47.9271 13.8192 47.7027 13.6842C47.5906 13.617 47.4772 13.5535 47.3601 13.4857C47.2972 13.5338 47.2448 13.572 47.1943 13.6127C46.7795 13.9555 46.3055 14.1639 45.7724 14.2379C45.4618 14.2817 45.1505 14.323 44.7715 14.3748ZM62.6042 16.9737C62.5684 16.9416 62.5512 16.9145 62.529 16.909C62.1444 16.8165 61.7764 16.679 61.4251 16.4977C61.3074 16.436 61.1977 16.4477 61.0855 16.4989C60.9185 16.5748 60.7533 16.6555 60.5857 16.7308C60.1309 16.9355 59.6742 17.1365 59.2206 17.3436C59.1435 17.3788 59.0782 17.4392 59.0018 17.4916C59.4788 17.9232 60.3546 18.3814 60.9099 18.5818C61.2704 18.3955 61.5638 18.1335 61.8399 17.8511C62.1123 17.5736 62.3798 17.2912 62.6042 16.9737ZM53.8099 9.21519C53.3821 9.36563 53.0321 9.47415 52.6937 9.61227C52.462 9.70722 52.2339 9.80033 51.9849 9.83794C51.882 9.85336 51.7809 9.88603 51.6786 9.907C51.5338 9.93721 51.4549 10.0186 51.4259 10.1678C51.3378 10.6173 51.2349 11.0637 51.1504 11.5138C51.1258 11.6464 51.0678 11.7907 51.1739 11.9504C51.7815 11.8431 52.3412 11.5897 52.915 11.3985C53.2693 10.6938 53.5676 9.96619 53.8099 9.21519ZM55.6163 12.4443C55.8154 12.5589 56.028 12.6397 56.2536 12.6866C57.0314 12.8444 57.7038 12.5719 58.3472 12.1847C58.7312 11.9534 59.0615 11.6501 59.3937 11.3517C59.4357 11.314 59.4578 11.2536 59.5071 11.1753C59.2113 11.1303 58.9488 11.1056 58.6948 11.0471C58.4292 10.9854 58.1716 10.8911 57.9066 10.8097C57.5898 11.0575 57.2822 11.3029 56.9685 11.5403C56.8329 11.6433 56.6936 11.7524 56.5396 11.8196C56.2456 11.9473 56.0083 12.1582 55.7377 12.3197C55.6977 12.3444 55.6693 12.3888 55.6163 12.4443ZM45.7385 11.5206C46.1268 11.9257 46.5576 12.279 47.0309 12.5805C47.0599 12.5546 47.0741 12.5478 47.079 12.5367C47.3792 11.8449 47.4161 11.1124 47.4038 10.3731C47.4044 10.3065 47.3853 10.2455 47.3477 10.19C47.0426 9.79663 46.7474 9.39277 46.3585 9.07399C46.3326 9.05241 46.2907 9.05118 46.2365 9.03391C46.2303 9.89528 46.0978 10.716 45.7385 11.5206ZM58.8791 7.73785C58.7583 7.80012 58.7016 7.82479 58.6486 7.85746C58.0995 8.19104 57.5719 8.55606 57.0665 8.95376C56.8958 9.0894 56.8046 9.22937 56.8218 9.45011C56.8483 9.80218 56.8163 10.1536 56.7787 10.5045C56.7639 10.6444 56.7479 10.7887 56.8033 10.9385C56.95 10.9244 57.0493 10.8442 57.1466 10.756C57.2434 10.6685 57.3432 10.5828 57.4474 10.5039C57.8554 10.1956 58.2332 9.85335 58.5808 9.47724C58.6948 9.36132 58.7565 9.22259 58.7663 9.06042C58.7873 8.77371 58.8286 8.48823 58.8563 8.20214C58.8686 8.07327 58.8693 7.94379 58.8791 7.73785ZM61.8085 14.5332C61.7647 14.5197 61.7407 14.5043 61.7179 14.5067C60.9031 14.598 60.1222 14.8076 59.3826 15.1677C59.2532 15.2312 59.1688 15.3182 59.133 15.452C59.0936 15.5771 59.0652 15.7048 59.048 15.8342C59.0233 16.0833 58.9728 16.3269 58.8964 16.5655C58.8668 16.6605 58.8643 16.7641 58.8452 16.8905C58.9278 16.8707 58.9796 16.8664 59.0233 16.8461C59.6064 16.5741 60.1882 16.3004 60.77 16.0254C60.9691 15.9341 61.1133 15.7886 61.2026 15.5882C61.3302 15.2972 61.5077 15.0376 61.6729 14.7706C61.7204 14.6942 61.7623 14.6146 61.8085 14.5332ZM52.8669 1.85314C52.7985 2.49069 52.7381 3.05179 52.6777 3.61288C52.6635 3.74298 52.6536 3.87431 52.6333 4.00318C52.5538 4.50817 52.5217 5.02055 52.3806 5.51567C52.3584 5.59274 52.3461 5.6914 52.4324 5.77155C52.5963 5.66242 52.751 5.56499 52.8989 5.45894C52.9772 5.40838 53.0444 5.34672 53.1005 5.27335C53.3803 4.86024 53.6478 4.43972 53.9282 4.02723C54.0219 3.88973 54.0163 3.75655 53.9639 3.61596C53.9085 3.4686 53.8438 3.32494 53.784 3.17942C53.6545 2.86188 53.4623 2.57948 53.2804 2.29277C53.1861 2.14479 53.061 2.00976 52.8669 1.85314ZM49.6028 14.2299C49.5751 13.9789 49.5122 13.7366 49.4136 13.5035C49.1252 12.8099 48.7246 12.1785 48.3295 11.5447C48.2204 11.3689 48.0953 11.2031 47.961 11.0082C47.8124 11.216 47.8895 11.4367 47.8309 11.6297C47.7668 11.8418 47.7446 12.0669 47.6824 12.2802C47.6245 12.4782 47.5382 12.6681 47.4642 12.8623C47.7477 13.128 49.1517 14.0307 49.6028 14.2299ZM58.579 15.6505C58.4816 15.6967 58.4465 15.7103 58.415 15.7294C57.8153 16.087 57.3112 16.5667 56.7756 17.007C56.4311 17.2906 56.1229 17.6106 55.816 17.9343C55.6243 18.1372 55.4844 18.369 55.3334 18.5972C55.3266 18.607 55.3482 18.636 55.3642 18.6742C55.4363 18.6514 55.5072 18.6243 55.5762 18.5922C55.9707 18.3857 56.3633 18.1748 56.7571 17.967C57.1509 17.7598 57.5429 17.5496 57.9417 17.351C58.0828 17.2808 58.1525 17.1784 58.2104 17.036C58.3842 16.6093 58.444 16.1561 58.579 15.6505ZM51.8087 5.70373C51.8925 5.57116 51.9393 5.42626 51.9486 5.26903C51.988 4.90401 52.0361 4.54023 52.0768 4.17521C52.1569 3.45689 52.2352 2.73856 52.3116 2.02024C52.3165 1.97214 52.3301 1.91172 52.2592 1.89076C51.7378 2.30633 50.9877 3.35268 50.8176 3.90144C50.9834 4.18384 51.1547 4.46315 51.3125 4.74925C51.4759 5.04521 51.625 5.34857 51.8087 5.70373ZM60.2695 18.9301L58.3867 17.774C57.9836 17.9837 57.5386 18.102 57.1676 18.4128C57.2298 18.4813 57.2643 18.5441 57.3174 18.5731C57.5725 18.7131 57.7833 18.911 58.0144 19.0812C58.2745 19.2723 58.5247 19.5023 58.9013 19.5325C59.3321 19.3488 59.8289 19.252 60.2695 18.9301ZM50.65 14.4303C50.674 14.4303 50.7042 14.4401 50.7215 14.429C51.0913 14.1904 51.3772 13.8575 51.6497 13.5251C51.906 13.2125 52.0996 12.8475 52.3122 12.501C52.3831 12.3925 52.4318 12.2753 52.4577 12.1483L50.9914 12.488C50.8891 12.8173 50.6796 14.0165 50.65 14.4303ZM58.3706 10.4354C58.6659 10.5193 58.9235 10.5452 59.178 10.5914C59.4338 10.637 59.6846 10.7116 59.9472 10.7764C60.2282 10.5291 60.4427 10.2338 60.5906 9.88973C60.6233 9.81204 60.7034 9.73497 60.603 9.62029C60.1265 9.73127 59.6286 9.68811 59.162 9.68626L58.3706 10.4354ZM54.9544 12.1643C55.0783 12.0971 55.1726 12.0521 55.2601 11.9972C55.5356 11.8227 55.8104 11.647 56.0829 11.467C56.134 11.4361 56.1747 11.3948 56.2043 11.343C56.2339 11.2912 56.2486 11.2351 56.2486 11.1753C56.2653 10.7449 56.2973 10.3146 56.3201 9.88418C56.3226 9.83794 56.3399 9.77751 56.2462 9.74484C56.0502 9.94523 55.869 10.1586 55.7032 10.3849C55.4283 10.7517 55.1578 11.1198 55.0123 11.5631C54.9507 11.7506 54.9026 11.935 54.9544 12.1643ZM61.2624 7.13482C61.1472 7.27787 61.0905 7.34878 61.0332 7.41907C60.5962 7.95858 60.1598 8.49871 59.7235 9.03884C59.6976 9.07152 59.6957 9.12393 59.6779 9.18374C60.0366 9.19299 60.3589 9.12825 60.6843 9.10852C60.897 9.09557 60.9931 9.00432 61.035 8.81626C61.0695 8.66334 61.1059 8.51105 61.1404 8.35813C61.1607 8.26873 61.1651 8.17377 61.2008 8.09115C61.2963 7.86733 61.284 7.62809 61.3124 7.39564C61.3197 7.3383 61.2914 7.27726 61.2624 7.13482ZM57.9528 19.7372C57.8523 19.6293 57.7919 19.5449 57.7143 19.4832C57.3556 19.2014 57.0375 18.8611 56.5667 18.7057C56.2499 18.8925 55.8733 19.0158 55.5485 19.2526C56.1174 19.6417 57.1959 19.9253 57.9528 19.7372ZM41.3817 7.98571C41.7201 8.07142 42.0239 8.22063 42.3444 8.28229C42.3678 8.24715 42.3832 8.2342 42.3808 8.2268C42.1151 7.46223 41.8101 6.71246 41.5087 5.96146C41.5031 5.94728 41.4668 5.94543 41.4446 5.93803C41.3256 6.32956 41.2843 7.51403 41.3817 7.98571ZM60.9641 6.51331C60.4033 6.79077 59.864 7.10523 59.3463 7.4573C59.3192 7.87226 59.2933 8.27366 59.2674 8.67814C59.305 8.67198 59.337 8.67629 59.3494 8.66273C59.9355 8.02271 60.4285 7.3087 60.9629 6.62737C60.9746 6.61196 60.9641 6.5799 60.9641 6.51331ZM61.7703 15.5975C61.8615 15.5771 61.912 15.574 61.9552 15.5549C62.0624 15.5075 62.1672 15.4544 62.2713 15.4002C62.8279 15.1122 63.398 14.8465 63.8806 14.4358C63.9293 14.3945 63.9934 14.3631 63.9588 14.2619C63.4535 14.2373 62.9573 14.3384 62.4575 14.4198C62.2473 14.7632 62.0439 15.0956 61.8424 15.4285C61.8153 15.4834 61.7912 15.5395 61.7703 15.5975ZM42.223 6.07183L42.178 6.10451C42.4104 6.73651 42.6427 7.36913 42.8757 8.00113C42.8825 8.01963 42.9145 8.02888 42.9367 8.04429C43.0569 8.00729 43.0711 7.88953 43.105 7.79766C43.203 7.53129 43.3225 7.26924 43.3546 6.97328L42.223 6.07183ZM61.9767 16.1808C62.4162 16.3855 62.7022 16.4675 62.9906 16.4749C63.1324 16.2776 63.3043 16.0889 63.4165 15.8694C63.5299 15.6474 63.7992 15.5081 63.7875 15.2022L61.9767 16.1808Z" fill="#53545B"/>
</g>
<path d="M57.3379 35.0349C57.3182 35.1058 57.2991 35.239 57.2448 35.3555C57.1401 35.5806 57.0199 35.7982 56.8985 36.0152C56.822 36.1466 56.7099 36.2317 56.5619 36.2693C56.4843 36.2927 56.406 36.2859 56.3475 36.2156C56.2883 36.1435 56.2747 36.0344 56.3456 35.9628C56.6328 35.673 56.7703 35.3099 56.8775 34.9294C56.8849 34.9042 56.8948 34.8801 56.9065 34.8567C56.9675 34.729 57.0858 34.6588 57.1826 34.6908C57.2867 34.7253 57.3478 34.8357 57.3379 35.0349Z" fill="#53545B"/>
<path d="M57.5039 33.4872C57.4941 33.5649 57.4904 33.6432 57.4744 33.7191C57.4583 33.7937 57.3677 33.8559 57.295 33.8319C57.2395 33.8134 57.1625 33.7672 57.1539 33.7215C57.1317 33.5933 57.1249 33.4644 57.1341 33.3343C57.1348 33.3078 57.1409 33.2825 57.152 33.2585C57.1631 33.2344 57.1779 33.2128 57.1976 33.195C57.2173 33.1771 57.2395 33.1641 57.2642 33.1549C57.2895 33.1463 57.3153 33.1426 57.3418 33.1438C57.4398 33.15 57.5076 33.2394 57.5101 33.3701C57.5089 33.4089 57.5052 33.4484 57.4996 33.4872H57.5039Z" fill="#53545B"/>
<path d="M49.047 27.7913C49.0439 27.6291 49.0951 27.5489 49.1974 27.5323C49.2504 27.5224 49.3009 27.5311 49.3478 27.557C49.3952 27.5829 49.4291 27.6211 49.4488 27.671C49.5222 27.827 49.4809 27.9713 49.3324 28.0792C49.2381 28.1483 49.1222 28.1094 49.0834 27.996C49.0741 27.9719 49.0667 27.9473 49.0624 27.9214C49.0544 27.8702 49.0501 27.8184 49.047 27.7913Z" fill="#53545B"/>
<path d="M48.6681 27.4653C48.6644 27.5189 48.6577 27.572 48.6478 27.625C48.6416 27.6644 48.6231 27.6977 48.5929 27.7243C48.5627 27.7514 48.5276 27.7649 48.4876 27.7662C48.4481 27.7705 48.4105 27.7637 48.3754 27.7452C48.3403 27.7267 48.3131 27.7002 48.294 27.6651C48.2355 27.5701 48.2281 27.4708 48.2712 27.3679C48.3119 27.2606 48.4056 27.1977 48.5079 27.2076C48.6102 27.2174 48.6644 27.2939 48.6681 27.4653Z" fill="#53545B"/>
<path d="M54.11 26.7895C54.0822 26.8271 54.0514 26.9029 53.9947 26.9405C53.9263 26.9862 53.8394 26.959 53.7889 26.8937C53.734 26.8228 53.6896 26.7457 53.657 26.6618C53.6255 26.5817 53.6687 26.5114 53.7346 26.4621C53.7661 26.4368 53.8018 26.4238 53.8419 26.4238C53.8819 26.4238 53.9177 26.4362 53.9491 26.4614C54.0465 26.5336 54.1013 26.6329 54.11 26.7895Z" fill="#53545B"/>
<path d="M53.4115 27.1361C53.3714 27.1934 53.3517 27.2532 53.3135 27.2693C53.2537 27.2958 53.1927 27.3001 53.1298 27.2816C52.9751 27.2175 52.9308 26.9863 53.0355 26.8506C53.0799 26.7933 53.2001 26.7766 53.2426 26.8364C53.3079 26.9277 53.3548 27.0325 53.4115 27.1361Z" fill="#53545B"/>
<mask id="mask1_171_4067" style="mask-type:luminance" maskUnits="userSpaceOnUse" x="21" y="11" width="18" height="28">
<path d="M21.3496 11.9468H38.5475V38.2238H21.3496V11.9468Z" fill="white"/>
</mask>
<g mask="url(#mask1_171_4067)">
<path d="M29.938 23.9693C29.9922 23.7036 30.0064 23.4582 29.9608 23.2097C29.864 22.6807 29.7611 22.1523 29.6742 21.622C29.5922 21.1164 29.5164 20.6096 29.5299 20.0935C29.541 19.66 29.533 19.2259 29.5417 18.7919C29.546 18.5687 29.5663 18.3461 29.5836 18.1235C29.6021 17.8775 29.5219 17.7147 29.2853 17.5871C28.6616 17.2498 28.0539 16.8823 27.5066 16.4242C27.4264 16.357 27.334 16.3052 27.2489 16.2423C26.791 15.9038 26.4989 15.4383 26.2715 14.9296C26.1704 14.7027 26.1007 14.461 26.0175 14.226C26.0034 14.189 25.9929 14.1508 25.9855 14.112C25.9238 13.7229 26.0613 13.4997 26.4884 13.4128C26.6117 13.3881 26.7516 13.4109 26.8773 13.4387C27.1238 13.4942 27.3463 13.6095 27.5553 13.7507C27.8166 13.927 28.081 14.0996 28.3411 14.2785C28.5944 14.4517 28.7799 14.6934 28.966 14.9308C29.1195 15.1275 29.2606 15.3347 29.3987 15.5425C29.5053 15.7046 29.5984 15.8754 29.7185 16.0783C29.7605 15.9919 29.7999 15.9414 29.8091 15.8859C29.9312 15.1596 30.3158 14.5689 30.7743 14.0164C30.8335 13.9455 30.8988 13.8795 30.9512 13.8049C31.3234 13.2728 31.7783 12.8202 32.2837 12.4182C32.4285 12.3041 32.5814 12.203 32.7435 12.1155C33.075 11.9348 33.382 12.0797 33.459 12.4441C33.4695 12.4959 33.4732 12.5483 33.4707 12.6007C33.4479 13.2272 33.2975 13.8216 33.0183 14.3833C32.6695 15.0775 32.2547 15.7324 31.8208 16.3748C31.6378 16.6461 31.4264 16.8983 31.2267 17.1585C30.9228 17.5531 30.5481 17.8516 30.0501 18.0014C29.9903 18.6297 29.9934 19.258 30.0175 19.8845C30.0415 20.501 30.1296 21.1115 30.251 21.765C30.304 21.6867 30.3453 21.6442 30.3657 21.593C30.4908 21.2718 30.664 20.9789 30.8859 20.715C30.9672 20.6213 31.0017 20.5134 30.9888 20.3901C30.9549 19.8419 31.2033 19.3961 31.5422 19.0009C31.8079 18.6914 32.1345 18.4441 32.4673 18.2061C32.7737 17.9872 33.1145 17.8584 33.4682 17.7505C33.4806 17.7461 33.4935 17.7437 33.5065 17.7412C33.8263 17.6709 34.0809 17.7338 34.1203 18.1932C34.1579 18.6328 34.063 19.0558 33.8972 19.4627C33.8756 19.5256 33.8411 19.5811 33.7949 19.6292C33.4442 19.9418 33.1262 20.2926 32.6837 20.4943C32.2824 20.6774 31.8812 20.8223 31.4313 20.7471C31.3993 20.7483 31.3684 20.7538 31.3382 20.7643C31.0886 21.2286 30.7842 21.6793 30.6782 22.2195C30.6159 22.5401 30.5512 22.8626 30.5222 23.1875C30.505 23.378 30.5549 23.5747 30.5771 23.7881C30.6387 23.8022 30.7016 23.8115 30.7644 23.8158C31.3432 23.8189 31.7567 24.1327 31.9157 24.6907C31.9311 24.7308 31.9502 24.7697 31.9718 24.8067C32.0815 24.8067 32.1986 24.7857 32.304 24.8122C32.4328 24.8443 32.5512 24.8985 32.6596 24.975C32.7521 25.0404 32.8156 25.1464 32.9117 25.2574C32.9758 25.2574 33.0701 25.2395 33.1539 25.2605C33.4467 25.3357 33.692 25.4812 33.79 25.7901C33.83 25.9159 33.9009 25.9905 34.0297 26.022C34.3823 26.1083 34.5838 26.3568 34.7126 26.6768C34.741 26.7483 34.7576 26.8241 34.7872 26.9228C35.2297 26.7304 35.6155 26.8081 35.973 27.13C36.413 26.945 36.7366 27.1318 37.0022 27.5227C37.2303 27.4827 37.4571 27.4962 37.65 27.6689C37.7862 27.7909 37.8035 27.8039 37.8996 28.1227C38.0907 28.2102 38.291 28.3126 38.3686 28.5475C38.4007 28.6443 38.3902 28.7238 38.3039 28.989C38.6244 29.2708 38.4944 29.6549 38.487 30.0125C38.4833 30.166 38.4303 30.3208 38.3871 30.4712C38.3242 30.6908 38.1782 30.827 37.9557 30.8911C37.7036 30.9639 37.4559 31.0496 37.197 31.1322C37.1779 31.1957 37.1421 31.2574 37.1421 31.3184C37.1397 31.7316 36.993 32.1182 36.9314 32.5202C36.8278 33.1959 36.6361 33.8514 36.4562 34.5087C36.3428 34.9255 36.1776 35.3281 36.0291 35.7351C35.9878 35.8325 35.9378 35.9243 35.8781 36.0119C35.7055 36.2912 35.5132 36.5607 35.3591 36.8498C35.2026 37.1452 34.9376 37.3055 34.6732 37.467C34.2054 37.7513 33.6833 37.8765 33.1496 37.9757C32.4772 38.1021 31.7986 38.1749 31.1145 38.194C30.9968 38.1971 30.8741 38.2032 30.7607 38.1773C30.4212 38.099 30.0791 38.1404 29.7383 38.136C29.4757 38.133 29.2138 38.1243 28.9518 38.1157C28.7417 38.1089 28.5309 38.1083 28.3213 38.0886C27.8893 38.0485 27.4579 37.9979 27.0258 37.9511C26.9999 37.9498 26.9741 37.9455 26.9482 37.9375C26.4422 37.7538 25.9134 37.6403 25.4191 37.4177C25.1664 37.3043 24.9236 37.1877 24.6955 37.028C24.3609 36.7937 24.1026 36.5095 23.9695 36.1204C23.8931 35.8966 23.8197 35.6715 23.747 35.4465C23.5005 34.6825 23.3427 33.8982 23.2065 33.109C23.1264 32.6429 23.0462 32.1773 22.9612 31.7131C22.9353 31.5719 22.8934 31.4344 22.8564 31.2876C22.6481 31.2105 22.4466 31.1507 22.2586 31.0613C22.0336 30.954 21.8167 30.8326 21.6071 30.6963C21.4796 30.6137 21.4358 30.4688 21.4401 30.3146C21.4457 30.1173 21.4518 29.9206 21.4549 29.7233C21.4592 29.4607 21.4685 29.2011 21.4081 28.939C21.3618 28.7362 21.3557 28.5222 21.4598 28.3212C21.5282 28.1886 21.6176 28.1159 21.7735 28.1461C21.8352 28.1578 21.8993 28.1584 21.9899 28.1671C21.9849 28.082 21.9849 28.0203 21.9782 27.9593C21.9443 27.6719 22.0946 27.4426 22.3683 27.3704C22.4318 27.3495 22.4965 27.3384 22.563 27.3384C22.7479 27.3501 22.8928 27.2829 23.0167 27.1497C23.0604 27.1028 23.1184 27.0492 23.1763 27.0393C23.4838 26.9894 23.715 26.781 24.0046 26.6601C24.0151 26.4813 24.0515 26.3007 24.1864 26.1619C24.2407 26.1064 24.2992 26.0417 24.3689 26.0183C24.669 25.9171 24.9735 25.8173 25.2742 26.0238C25.31 26.0442 25.347 26.0608 25.3852 26.0744C25.5183 25.9991 25.6471 25.911 25.7876 25.8487C26.1735 25.6761 26.5506 25.6656 26.9001 25.9455C26.9451 25.9782 26.9913 26.0078 27.0394 26.0355L27.7605 25.8049C27.8375 25.7118 27.7753 25.591 27.7771 25.4769C27.7808 25.221 27.8363 24.9861 27.9972 24.7783C28.1087 24.6346 28.2425 24.5378 28.4237 24.5243C28.6437 24.507 28.8169 24.4299 28.9635 24.2487C29.1281 24.0458 29.3685 23.9638 29.6335 23.9693C29.7241 23.9712 29.8147 23.9693 29.938 23.9693ZM26.751 14.5701C26.751 14.5454 26.7491 14.5208 26.7454 14.4961C26.7436 14.4856 26.73 14.477 26.7214 14.4677C26.7121 14.4764 26.6949 14.4924 26.6955 14.493C26.7158 14.5171 26.7374 14.5399 26.759 14.5627C26.791 14.818 26.9685 15.0073 27.0591 15.2348C27.1349 15.4247 27.2619 15.5702 27.4055 15.704C27.538 15.8304 27.6798 15.9463 27.8301 16.0518C27.9127 16.1072 27.9972 16.1942 28.1395 16.1843C27.7593 15.7126 27.3999 15.2644 27.0357 14.8192C26.9562 14.7218 26.8995 14.5923 26.751 14.5701ZM36.6331 31.2555C36.3853 31.3092 36.1936 31.3493 36.0032 31.3918C35.7986 31.4374 35.5952 31.4905 35.3899 31.5312C35.0047 31.607 34.6177 31.6748 34.2325 31.7488C33.9755 31.7981 33.7203 31.8573 33.4633 31.9036C33.0769 31.9726 32.6904 32.0417 32.3022 32.0972C32.0033 32.1397 31.6982 32.1422 31.4011 32.1952C30.7903 32.3044 30.174 32.2828 29.5595 32.3031C29.1133 32.3173 28.6677 32.3321 28.224 32.2489C27.9805 32.2032 27.7284 32.2501 27.4825 32.2365C27.13 32.2174 26.7805 32.1545 26.4292 32.1114C25.4752 31.9936 24.539 31.7944 23.6194 31.5139C23.5584 31.496 23.4925 31.4714 23.4432 31.5515C23.4475 31.5848 23.4505 31.6236 23.4573 31.6619C23.5812 32.3463 23.7014 33.0307 23.8302 33.7139C23.9005 34.0881 23.9689 34.4643 24.0687 34.8318C24.1575 35.1758 24.2733 35.5106 24.4163 35.8362C24.5568 36.1463 24.7485 36.4503 25.0511 36.6236C25.3562 36.798 25.6582 36.9892 26.0046 37.0866C26.2702 37.1612 26.5278 37.2636 26.7941 37.3357C27.0844 37.4146 27.3778 37.5133 27.6742 37.5318C28.6837 37.5959 29.6951 37.6243 30.7071 37.6403C30.8908 37.6428 31.0745 37.6779 31.2575 37.673C32.1012 37.6483 32.9283 37.5053 33.7493 37.316C34.0926 37.2371 34.3527 37.0046 34.6565 36.8529C34.7539 36.8048 34.8217 36.6852 34.8864 36.5872C35.0023 36.4121 35.0972 36.2234 35.2155 36.0501C35.6063 35.4767 35.8337 34.8361 36.0056 34.172C36.111 33.7651 36.2177 33.3587 36.3089 32.9493C36.4063 32.5146 36.4882 32.0762 36.5745 31.6391C36.5967 31.5268 36.6096 31.4122 36.6331 31.2555ZM24.6487 26.4542C24.6265 26.5084 24.608 26.5639 24.5932 26.6207C24.576 26.7107 24.576 26.8044 24.5556 26.8938C24.5038 27.125 24.4323 27.1682 24.1667 27.1633C24.0903 27.1614 23.9911 27.1577 23.9405 27.2003C23.7569 27.3563 23.5603 27.4759 23.3224 27.527C23.2891 27.5338 23.257 27.5721 23.2342 27.6029C23.0955 27.794 22.8983 27.8409 22.6777 27.8409C22.6185 27.844 22.56 27.8514 22.502 27.8619C22.4324 28.1806 22.4922 28.2916 22.7473 28.3502C22.7985 28.3619 22.8509 28.3681 22.9033 28.3755C23.384 28.4451 23.866 28.508 24.3454 28.5857C25.3328 28.746 26.3294 28.8213 27.3247 28.9051C28.1636 28.976 29.0048 29.0124 29.8467 29.0291C30.4378 29.0408 31.0295 29.0667 31.6199 29.0568C32.4353 29.0426 33.2507 29.0704 34.0655 29.0087C34.4322 28.981 34.8007 28.9754 35.1687 28.9526C35.5884 28.9261 36.0087 28.8953 36.4284 28.8601C36.7939 28.8293 37.1594 28.7892 37.5243 28.7504C37.536 28.7491 37.544 28.7115 37.5551 28.6881L37.311 28.5013V28.0974C37.2574 28.1103 37.2204 28.1165 37.1853 28.1276C36.8734 28.2306 36.8401 28.2195 36.6762 27.9513C36.5942 27.8175 36.5246 27.6719 36.3385 27.6121C36.3033 27.6775 36.2657 27.7435 36.2337 27.8119C36.1776 27.9291 36.0907 28.0024 35.957 27.9963C35.8041 27.9895 35.7228 27.8921 35.6808 27.7552C35.6611 27.6923 35.6506 27.6263 35.6272 27.5653C35.5718 27.4228 35.4318 27.3285 35.2858 27.3612C35.1601 27.3945 35.0386 27.4407 34.9228 27.5005C34.8648 27.5277 34.8217 27.585 34.7662 27.6195C34.5776 27.7379 34.4014 27.6849 34.3237 27.4728C34.2849 27.3649 34.2775 27.244 34.2676 27.1275C34.2454 26.8661 34.1536 26.6472 33.9274 26.501C33.8787 26.5091 33.8405 26.5152 33.8023 26.5214C33.5397 26.5639 33.3949 26.4745 33.3382 26.2322C33.3296 26.194 33.3333 26.1527 33.3265 26.1144C33.2747 25.8364 33.1706 25.7661 32.8864 25.8185C32.8476 25.8253 32.8112 25.8456 32.773 25.8499C32.7367 25.8555 32.7009 25.8542 32.6652 25.8468C32.6294 25.8394 32.5955 25.8259 32.5647 25.8068C32.5339 25.787 32.5074 25.763 32.4846 25.734C32.4624 25.705 32.4458 25.673 32.4347 25.6384C32.418 25.5897 32.4291 25.5324 32.4156 25.4824C32.3823 25.3597 32.2917 25.3055 32.1783 25.3406C32.1031 25.3634 32.0322 25.4017 31.9576 25.4257C31.7086 25.5065 31.5626 25.43 31.4775 25.1742C31.4282 25.0379 31.3869 24.8998 31.3518 24.7598C31.3142 24.5902 31.2057 24.4805 31.0695 24.3966C30.982 24.343 30.8772 24.3171 30.7946 24.2838C30.5648 24.3467 30.3786 24.4312 30.3139 24.6679C30.2997 24.7049 30.2788 24.7382 30.251 24.7666C30.2264 24.7987 30.1962 24.8233 30.1604 24.8406C30.1241 24.8585 30.0865 24.8671 30.0458 24.8671C30.0057 24.8671 29.9675 24.8578 29.9318 24.84C29.896 24.8221 29.8658 24.7974 29.8418 24.7654C29.7944 24.7037 29.7722 24.6235 29.7296 24.5582C29.6754 24.4756 29.5768 24.4595 29.4862 24.5027C29.3863 24.5502 29.3093 24.6192 29.2754 24.7253C29.2132 24.9207 29.0671 24.9812 28.8791 24.9824C28.8132 24.9805 28.7478 24.9849 28.6825 24.9947C28.3928 25.049 28.2295 25.2839 28.2819 25.5712C28.2936 25.6354 28.3275 25.6952 28.3417 25.7587C28.3971 26.0035 28.3244 26.0929 28.0822 26.1317C27.7568 26.1841 27.4505 26.2729 27.2422 26.5695C27.1127 26.7551 26.9297 26.7495 26.7793 26.5831C26.7368 26.5325 26.6986 26.4789 26.6653 26.4221C26.5864 26.3 26.4699 26.2556 26.3319 26.2427C26.1205 26.223 25.9411 26.2778 25.8067 26.4486C25.7174 26.5633 25.6286 26.6786 25.4567 26.7113C25.2077 26.6145 24.9889 26.3808 24.6487 26.4542ZM22.0287 28.7417C22.0121 28.8176 21.9966 28.8552 21.9973 28.8922C22.0016 29.1148 22.0164 29.3367 22.0151 29.5593C22.0139 29.769 21.9954 29.9792 21.988 30.1895C21.9831 30.2437 21.9954 30.2943 22.0244 30.3405C22.0533 30.3868 22.0934 30.4195 22.1446 30.4386C22.457 30.5748 22.7541 30.7444 23.0894 30.8276C23.4456 30.917 23.7988 31.0206 24.1513 31.123C24.632 31.2617 25.122 31.3585 25.6126 31.4541C25.9091 31.5114 26.2067 31.6082 26.5044 31.6113C27.228 31.6187 27.9361 31.7753 28.664 31.7618C29.6224 31.7433 30.5795 31.7303 31.5336 31.6434C32.084 31.5934 32.6288 31.512 33.1699 31.3998C33.8756 31.2531 34.5906 31.1507 35.2926 30.9805C35.6747 30.8881 36.0648 30.827 36.4482 30.7382C36.8574 30.6433 37.2642 30.5354 37.6703 30.4293C37.8565 30.3806 37.9655 30.2591 37.9643 30.0606C37.9637 29.9299 37.9508 29.7992 37.9458 29.6685C37.9409 29.5433 37.939 29.4181 37.936 29.2806C37.8306 29.2806 37.7535 29.2738 37.6777 29.2812C37.2204 29.3269 36.7637 29.3867 36.3052 29.4206C35.6235 29.4711 34.9406 29.5051 34.2584 29.5433C34.0353 29.5556 33.8122 29.5599 33.5884 29.5655C33.3129 29.5729 33.0374 29.576 32.7619 29.584C32.6566 29.5871 32.5518 29.6049 32.447 29.6049C31.8294 29.6043 31.2119 29.6117 30.595 29.5951C29.7284 29.5729 28.8631 29.5396 27.9972 29.4958C27.4856 29.4705 26.9747 29.4261 26.465 29.375C25.8499 29.3127 25.236 29.2356 24.6216 29.1629C23.8388 29.0704 23.0567 28.9705 22.2888 28.7806C22.2136 28.7621 22.1347 28.7571 22.0287 28.7417ZM32.6707 13.7642C32.6516 13.7642 32.6374 13.7605 32.6331 13.7648C32.1777 14.2711 31.7056 14.7649 31.4171 15.3963C31.3518 15.5388 31.2507 15.6645 31.1768 15.8033C31.0116 16.1159 30.852 16.4316 30.6936 16.7479C30.6671 16.8009 30.6584 16.8632 30.6215 16.992C30.733 16.9156 30.7946 16.8915 30.8304 16.8472C31.0005 16.6313 31.1768 16.4186 31.3271 16.1899C31.7013 15.6201 32.0784 15.051 32.3989 14.448C32.4969 14.263 32.5789 14.0688 32.6639 13.8771C32.6775 13.845 32.6689 13.8031 32.6707 13.7642ZM32.4784 13.0447L32.4088 12.9923C32.2066 13.1766 31.9872 13.3449 31.8066 13.5484C31.5379 13.8518 31.2982 14.181 31.043 14.4961C30.6646 14.9635 30.4273 15.5005 30.264 16.0727C30.2319 16.1849 30.1888 16.3132 30.2652 16.4643C30.4125 16.1973 30.5475 15.9611 30.6738 15.7213C30.8027 15.4771 30.9136 15.2237 31.051 14.9851C31.1823 14.7588 31.3321 14.5424 31.4849 14.329C31.6446 14.1058 31.827 13.8986 31.9811 13.6717C32.1314 13.4504 32.3607 13.2894 32.4784 13.0447ZM29.2828 16.6498C29.0412 15.6966 28.0193 14.4406 27.2348 14.2667C27.4388 14.5793 27.689 14.826 27.9133 15.0905C28.1327 15.3501 28.3602 15.5986 28.5629 15.8742C28.7706 16.1566 29.0406 16.3933 29.2828 16.6498ZM31.7456 19.8697C31.9915 19.6199 32.2331 19.3659 32.484 19.1217C32.6146 18.9953 32.7632 18.8868 32.9006 18.7672C32.9992 18.6821 33.0948 18.5921 33.1903 18.5033C33.1983 18.4922 33.202 18.4805 33.2008 18.4675C33.2001 18.4577 33.1909 18.4484 33.186 18.4386C32.6282 18.6063 31.9675 19.2229 31.7456 19.8697ZM33.5286 18.8955L33.4627 18.8455C33.2907 19.02 33.1169 19.1926 32.9487 19.3702C32.77 19.5595 32.5955 19.7531 32.4199 19.9449C32.4113 19.9547 32.4076 19.9658 32.41 19.9788C32.4143 19.9887 32.4297 19.9936 32.4581 20.0133C32.9585 19.7809 33.3505 19.4399 33.5286 18.8955Z" fill="#53545B"/>
</g>
<path d="M34.9345 34.968C34.9154 35.063 34.913 35.1881 34.8649 35.2917C34.7472 35.5544 34.6122 35.8084 34.4593 36.0526C34.3952 36.1525 34.2584 36.2123 34.1444 36.2696C34.0748 36.3054 33.9916 36.282 33.9342 36.2117C33.8726 36.1364 33.8615 36.039 33.9379 35.9619C34.2054 35.6925 34.3429 35.3577 34.4464 35.0025C34.4686 34.9273 34.5 34.8552 34.5388 34.7873C34.5654 34.7485 34.6005 34.7208 34.6449 34.7041C34.6886 34.6875 34.7336 34.685 34.7786 34.6967C34.8637 34.7238 34.9006 34.7904 34.921 34.8694C34.9271 34.902 34.9314 34.9347 34.9345 34.968Z" fill="#53545B"/>
<path d="M34.717 33.4741C34.7201 33.4099 34.7281 33.347 34.7411 33.2842C34.7497 33.2447 34.7694 33.2114 34.8009 33.1855C34.8317 33.1596 34.8674 33.1454 34.9081 33.1436C34.9488 33.1386 34.9864 33.1485 35.0197 33.1719C35.0536 33.196 35.0751 33.228 35.0838 33.2681C35.1312 33.4352 35.0979 33.6023 35.0369 33.7583C35.0215 33.7984 34.9309 33.8268 34.8742 33.8286C34.8206 33.8212 34.7824 33.7941 34.7583 33.7454C34.7312 33.6603 34.73 33.5672 34.717 33.4741Z" fill="#53545B"/>
<path d="M26.6267 27.7033C26.66 27.6589 26.6927 27.5849 26.75 27.5461C26.8252 27.4949 26.9324 27.5307 26.9953 27.6016C27.0359 27.6441 27.0624 27.6941 27.0729 27.7527C27.084 27.8106 27.0779 27.8667 27.0544 27.9216C27.031 27.9759 26.9947 28.019 26.9453 28.0517C26.896 28.0838 26.8418 28.0998 26.7826 28.0998C26.742 28.0973 26.6933 28.0153 26.6723 27.9604C26.6458 27.8883 26.644 27.8075 26.6267 27.7033Z" fill="#53545B"/>
<path d="M26.2643 27.4939C26.2588 27.5426 26.2502 27.5907 26.2372 27.6388C26.2323 27.6542 26.2255 27.6684 26.2169 27.6826C26.2083 27.6961 26.1984 27.7085 26.1861 27.7196C26.1744 27.7307 26.1614 27.7405 26.1472 27.7479C26.1331 27.756 26.1177 27.7615 26.1016 27.7652C26.0862 27.7695 26.0702 27.7708 26.0536 27.7708C26.0375 27.7708 26.0215 27.7683 26.0061 27.764C25.9901 27.759 25.9753 27.7529 25.9617 27.7449C25.9476 27.7362 25.9346 27.7264 25.9235 27.7153C25.8921 27.6813 25.8687 27.6431 25.8539 27.5993C25.8391 27.5562 25.8335 27.5118 25.8378 27.4655C25.8422 27.4199 25.8551 27.3774 25.8779 27.3373C25.9001 27.2972 25.9297 27.2633 25.9667 27.2356C26.0776 27.156 26.2465 27.2312 26.2637 27.3694C26.2674 27.3946 26.2643 27.4211 26.2643 27.4939Z" fill="#53545B"/>
<path d="M31.7137 26.8039C31.6731 26.8508 31.6398 26.9198 31.588 26.9389C31.5356 26.9587 31.4364 26.9506 31.4087 26.9149C31.3378 26.823 31.2854 26.7207 31.2527 26.6091C31.241 26.5677 31.3002 26.4827 31.3483 26.4555C31.4087 26.429 31.4691 26.4302 31.5288 26.4592C31.6546 26.5277 31.6897 26.6565 31.7137 26.8039Z" fill="#53545B"/>
<path d="M30.9829 27.1065C30.9841 27.1336 30.9798 27.1601 30.97 27.1848C30.9595 27.2101 30.9447 27.2323 30.925 27.2508C30.9053 27.2693 30.8825 27.2828 30.8566 27.2915C30.8307 27.3001 30.8048 27.3032 30.7777 27.3001C30.6735 27.2847 30.6193 27.2138 30.5848 27.1262C30.5626 27.0769 30.5564 27.0257 30.5657 26.9727C30.5755 26.9197 30.5996 26.874 30.6372 26.8352C30.6834 26.7853 30.814 26.7816 30.8504 26.8414C30.8991 26.9271 30.9435 27.0159 30.9829 27.1065Z" fill="#53545B"/>
<mask id="mask2_171_4067" style="mask-type:luminance" maskUnits="userSpaceOnUse" x="0" y="20" width="18" height="19">
<path d="M0.307861 20.47H17.563V38.2233H0.307861V20.47Z" fill="white"/>
</mask>
<g mask="url(#mask2_171_4067)">
<path d="M16.1647 31.1399C16.1462 31.2052 16.121 31.2552 16.1197 31.3051C16.1062 31.783 15.9299 32.2312 15.8652 32.698C15.7758 33.338 15.5841 33.9521 15.4146 34.5706C15.2489 35.1761 15.0553 35.7797 14.6677 36.2964C14.5425 36.466 14.4341 36.646 14.3422 36.8359C14.1943 37.1343 13.9281 37.299 13.6643 37.4611C13.1984 37.7466 12.6776 37.8767 12.1426 37.9741C11.4702 38.0999 10.7922 38.1733 10.1081 38.1942C9.99039 38.1967 9.86775 38.206 9.75434 38.1801C9.44125 38.1092 9.12631 38.1332 8.81137 38.1363C8.62771 38.1381 8.44281 38.1505 8.26038 38.1381C7.51278 38.0882 6.75963 38.0931 6.0219 37.9488C5.67614 37.881 5.33839 37.7639 5.00312 37.6498C4.69249 37.5444 4.37632 37.4395 4.08726 37.2879C3.58064 37.0215 3.12765 36.6861 2.93782 36.104C2.86078 35.8666 2.78312 35.6292 2.70608 35.3919C2.46695 34.6538 2.31842 33.8942 2.18529 33.1315C2.10455 32.6659 2.02381 32.2004 1.93938 31.7361C1.91349 31.5943 1.87466 31.4556 1.84015 31.3082C1.691 31.2416 1.55356 31.1497 1.40441 31.1195C1.12152 31.0628 0.911353 30.8766 0.66544 30.7551C0.481776 30.6645 0.410283 30.5005 0.416446 30.2995C0.421993 30.1287 0.423842 29.9573 0.428157 29.7865C0.435552 29.4979 0.43925 29.2124 0.381932 28.9239C0.307974 28.5502 0.354198 28.4318 0.580388 28.1494H0.966206C0.963124 28.0847 0.963741 28.0335 0.958193 27.9836C0.918749 27.6432 1.06913 27.4286 1.39825 27.3608C1.46235 27.3436 1.52768 27.3349 1.59362 27.3349C1.66018 27.3399 1.72428 27.33 1.78591 27.3047C1.84755 27.28 1.90117 27.2431 1.94554 27.1931C1.99978 27.1376 2.06264 27.063 2.13044 27.0525C2.43983 27.0038 2.66972 26.7899 2.96679 26.6758C3.00993 26.5136 3.00192 26.3163 3.14799 26.1838C3.22441 26.1147 3.3033 26.029 3.39575 26.0012C3.6848 25.9131 3.98125 25.8274 4.26353 26.0315C4.30297 26.0524 4.34365 26.0697 4.38618 26.082C4.6173 25.8915 4.878 25.7614 5.19356 25.738C5.41667 25.7213 5.60958 25.7645 5.78954 25.889C5.86535 25.9408 5.94301 25.9889 6.03114 26.0456C6.15194 25.9975 6.27089 25.9427 6.39477 25.9026C6.50509 25.8668 6.62096 25.8477 6.75347 25.8163C6.75347 25.6948 6.75409 25.5795 6.75347 25.4648C6.751 25.2071 6.81757 24.9746 6.98089 24.7687C7.08443 24.638 7.20893 24.5424 7.37287 24.5295C7.60769 24.511 7.79197 24.4302 7.9479 24.2409C8.10383 24.0516 8.33125 23.9702 8.5821 23.9714C8.67331 23.9721 8.76515 23.9714 8.85698 23.9714C8.91738 23.8938 8.84588 23.8524 8.80582 23.8136C8.68379 23.6958 8.56854 23.5626 8.42555 23.4757C7.9855 23.21 7.59722 22.8776 7.21078 22.5459C7.03944 22.3991 6.89646 22.2284 6.78182 22.0341C6.66718 21.8399 6.58706 21.6321 6.54207 21.4114C6.52112 21.2942 6.51988 21.1771 6.53961 21.0599C6.5581 20.9255 6.63699 20.8324 6.76765 20.7627C7.20647 20.5278 7.62557 20.5821 8.0385 20.8188C8.46438 21.0636 8.73063 21.4533 8.9636 21.8677C9.05358 22.0273 9.11768 22.2012 9.19719 22.3665C9.21629 22.3961 9.23971 22.422 9.26683 22.4448C9.29765 22.4275 9.33216 22.4201 9.33894 22.4022C9.4659 22.0582 9.64587 21.7468 9.85234 21.441C10.0033 21.2079 10.1944 21.0143 10.4255 20.8608C10.8606 20.5802 11.3494 20.4779 11.8566 20.5167C12.444 20.5617 12.8218 21.1351 12.6924 21.7104C12.5851 22.1889 12.2689 22.4873 11.8683 22.7118C11.3981 22.9757 10.9173 23.2204 10.4422 23.4745C10.2807 23.5614 10.1217 23.6527 9.95711 23.7445C10.1771 23.8845 10.3941 23.9973 10.5802 24.1484C10.6794 24.2298 10.7589 24.3272 10.8181 24.4407C10.8773 24.5547 10.9124 24.6756 10.9223 24.8032C11.048 24.8032 11.1639 24.7823 11.2686 24.8088C11.3975 24.8402 11.5164 24.8939 11.6255 24.9691C11.7186 25.0338 11.7833 25.1386 11.8862 25.2552C11.9404 25.2552 12.0335 25.2379 12.1179 25.2589C12.4113 25.331 12.6591 25.4728 12.7614 25.7799C12.8027 25.9026 12.8618 25.9883 12.9931 26.0204C13.3783 26.1135 13.586 26.3854 13.7087 26.7405C13.7253 26.7892 13.737 26.8392 13.7567 26.9095C13.978 26.8762 14.1771 26.7609 14.4082 26.8423C14.6085 26.9132 14.8113 26.9619 14.9438 27.1444C15.4233 26.9274 15.7265 27.1678 15.9736 27.5174C16.5197 27.4909 16.7157 27.6241 16.8858 28.1229C17.3635 28.3831 17.4263 28.5169 17.2858 29.0145C17.4892 29.1872 17.5132 29.4264 17.4787 29.6866C17.4504 29.8931 17.4534 30.1046 17.414 30.3087C17.3554 30.6115 17.2044 30.8371 16.8692 30.9105C16.6399 30.9605 16.4205 31.0548 16.1647 31.1399ZM2.40778 31.463C2.50948 32.0487 2.59391 32.5642 2.68944 33.0772C2.77388 33.5285 2.89098 33.9756 2.95693 34.4294C3.02965 34.9313 3.26324 35.3783 3.39575 35.8586C3.41609 35.9314 3.47649 35.993 3.51346 36.0621C3.77417 36.5455 4.23456 36.7786 4.70482 36.9814C5.05365 37.1313 5.42345 37.2336 5.78831 37.3446C6.22836 37.479 6.6752 37.5826 7.14299 37.5555C7.28782 37.5511 7.43204 37.5573 7.57626 37.574C8.02186 37.6122 8.46685 37.6547 8.91491 37.6054C9.00489 37.5955 9.09796 37.6134 9.18979 37.6177C9.55712 37.6356 9.92445 37.6695 10.2918 37.6671C11.0172 37.6621 11.7253 37.5129 12.4372 37.3902C12.8803 37.3144 13.2378 37.0702 13.6199 36.8717C13.6742 36.8439 13.713 36.7792 13.7493 36.7249C13.8942 36.5073 14.031 36.2834 14.1789 36.0676C14.5789 35.485 14.8008 34.8295 14.9888 34.155C15.1897 33.4336 15.3549 32.7048 15.5009 31.9717C15.5459 31.7454 15.594 31.5154 15.5897 31.2509C15.4116 31.2996 15.2661 31.3545 15.1151 31.3785C14.6227 31.4556 14.1333 31.5419 13.6563 31.688C13.5922 31.7034 13.5275 31.7152 13.4621 31.7232C13.0763 31.7965 12.6917 31.8755 12.3053 31.9427C11.97 32.0013 11.6341 32.0543 11.297 32.0974C10.9839 32.1381 10.6659 32.1437 10.3565 32.2004C9.7716 32.3071 9.18116 32.2855 8.59319 32.3058C8.12232 32.3225 7.64837 32.3428 7.17935 32.2504C6.93529 32.2023 6.68321 32.259 6.4373 32.2386C6.08538 32.2097 5.73592 32.1498 5.384 32.1116C4.55875 32.0216 3.75568 31.8218 2.95076 31.6288C2.78682 31.5894 2.62719 31.5308 2.40778 31.463ZM1.49932 27.8559C1.39147 27.978 1.42598 28.0884 1.47714 28.2006C1.5209 28.2968 1.60656 28.3258 1.6984 28.3449C1.76311 28.3585 1.82782 28.3689 1.89315 28.3782C2.37389 28.4485 2.85523 28.5114 3.33473 28.5903C4.29619 28.7481 5.2669 28.8221 6.23576 28.9017C7.0869 28.9713 7.94297 28.9923 8.79658 29.0287C9.24341 29.0478 9.69024 29.0614 10.1371 29.0632C10.7682 29.0651 11.3993 29.0595 12.0304 29.0466C12.8588 29.0299 13.6871 29.0083 14.513 28.927C14.6566 28.9128 14.8008 28.9017 14.945 28.8906C15.4036 28.8554 15.8621 28.8234 16.32 28.7839C16.3915 28.7777 16.4797 28.7969 16.5388 28.7031L16.2812 28.4941V28.0841C16.1943 28.1186 16.1364 28.1476 16.0747 28.1649C15.8781 28.2203 15.7906 28.1846 15.6809 28.0101C15.639 27.9429 15.6051 27.8714 15.5589 27.8072C15.4991 27.7234 15.4393 27.634 15.2988 27.6241C15.2643 27.7049 15.2254 27.7838 15.1829 27.8603C15.157 27.9084 15.1194 27.9447 15.0714 27.9694C15.0227 27.9941 14.9715 28.0033 14.9179 27.9971C14.8637 27.9934 14.815 27.9749 14.7718 27.9423C14.7281 27.909 14.6972 27.867 14.6794 27.8165C14.6486 27.7443 14.6368 27.6642 14.6097 27.5902C14.5425 27.4071 14.3996 27.3226 14.2079 27.3713C14.0957 27.4058 13.9885 27.4521 13.8868 27.5107C13.8295 27.5409 13.7851 27.5951 13.729 27.6284C13.5564 27.7326 13.3826 27.6864 13.3105 27.4965C13.2655 27.3775 13.2606 27.2431 13.244 27.1148C13.2113 26.8571 13.1269 26.6326 12.8914 26.5019C12.8532 26.5081 12.8273 26.5105 12.8014 26.5155C12.5118 26.5679 12.3688 26.4822 12.3121 26.2189C12.2985 26.1548 12.3035 26.087 12.2874 26.0234C12.248 25.8693 12.1241 25.7836 11.9626 25.7984C11.9115 25.8027 11.8622 25.8274 11.811 25.8366C11.5614 25.881 11.4671 25.8144 11.3993 25.5474C11.3931 25.5222 11.3962 25.4944 11.3882 25.4698C11.3518 25.3557 11.2594 25.3082 11.1398 25.347C11.0653 25.3711 10.9944 25.4087 10.9192 25.4321C10.6875 25.5049 10.542 25.4321 10.4606 25.1991C10.407 25.0511 10.3614 24.9 10.3232 24.7471C10.2831 24.5775 10.1685 24.4721 10.0323 24.3907C9.94417 24.3383 9.83878 24.3155 9.75434 24.2847C9.4166 24.4277 9.4092 24.424 9.31799 24.6115C9.25759 24.7354 9.19595 24.8538 9.04557 24.8655C8.87239 24.8791 8.80151 24.7564 8.73186 24.6176C8.64866 24.4511 8.518 24.4327 8.38179 24.5523C8.32879 24.593 8.28934 24.6435 8.26284 24.7046C8.1932 24.913 8.04713 24.9894 7.84005 24.9845C7.7741 24.982 7.70877 24.9863 7.64344 24.9981C7.35685 25.0579 7.20339 25.2959 7.2607 25.5863C7.26872 25.6251 7.28659 25.6609 7.2983 25.6985C7.31124 25.7361 7.3211 25.7743 7.3285 25.8132C7.36055 26.0068 7.28227 26.1073 7.08135 26.132C6.70047 26.1788 6.44901 26.2984 6.2598 26.5223C6.04778 26.7738 5.90664 26.7707 5.69833 26.5099C5.68169 26.489 5.66751 26.4668 5.65457 26.444C5.55657 26.2707 5.38893 26.2349 5.2139 26.2386C5.12638 26.2374 5.04379 26.2565 4.96614 26.296C4.88786 26.3354 4.82315 26.3903 4.77261 26.4612C4.68633 26.579 4.59264 26.69 4.42192 26.7122C4.17724 26.5938 3.94736 26.3965 3.61886 26.4452C3.59667 26.5408 3.57386 26.6271 3.55661 26.7146C3.5412 26.7917 3.53997 26.8725 3.51778 26.9471C3.46478 27.1278 3.37602 27.1795 3.16586 27.1703C3.10115 27.1678 3.01671 27.1469 2.97542 27.1783C2.74676 27.3559 2.48051 27.4589 2.22658 27.5865C2.21549 27.5939 2.20625 27.6031 2.19885 27.6142C2.06881 27.7912 1.88453 27.8405 1.67806 27.8418C1.61334 27.8418 1.54925 27.8522 1.49932 27.8559ZM16.9142 29.2901C16.8254 29.2833 16.7367 29.2815 16.6473 29.2846C16.1894 29.3283 15.7333 29.3882 15.2747 29.4221C14.5931 29.4726 13.9102 29.5078 13.2279 29.5454C13.0048 29.5583 12.7817 29.5614 12.558 29.567C12.2825 29.5744 12.007 29.5781 11.7315 29.5861C11.6397 29.5885 11.5478 29.607 11.456 29.607C10.8255 29.6064 10.195 29.6132 9.56452 29.5966C8.68502 29.5731 7.80615 29.5374 6.92727 29.4948C6.44223 29.4708 5.95718 29.4307 5.47337 29.382C4.79295 29.3136 4.11191 29.242 3.43396 29.1508C2.70547 29.0527 1.97389 28.9639 1.25834 28.7821C1.17576 28.7605 1.08577 28.7654 1.00688 28.7592C0.98901 28.811 0.973602 28.8357 0.973602 28.8597C0.968671 29.3055 0.96559 29.7507 0.963124 30.1965C0.960043 30.2508 0.973602 30.3007 1.0038 30.3463C1.03338 30.3913 1.07406 30.424 1.12522 30.4425C1.43708 30.58 1.73599 30.7459 2.07065 30.8304C2.43983 30.9235 2.80161 31.0443 3.17079 31.1349C3.64289 31.2515 4.11808 31.3545 4.59388 31.4556C4.88971 31.5178 5.18801 31.6103 5.4857 31.6128C6.20926 31.6196 6.91741 31.7787 7.64529 31.7639C8.60305 31.7435 9.56082 31.7318 10.5149 31.6436C11.0388 31.5962 11.5583 31.5197 12.0729 31.4143C12.8304 31.2576 13.5983 31.1516 14.3496 30.9605C14.6301 30.8895 14.9099 30.8119 15.1946 30.7681C15.6747 30.6892 16.1475 30.5794 16.6128 30.4382C16.8716 30.3624 16.9326 30.2865 16.937 30.0165C16.9413 29.7834 16.9234 29.5497 16.9142 29.2901ZM9.6773 23.2229C9.72907 23.2229 9.75742 23.2309 9.77653 23.2217C10.3398 22.9368 10.9038 22.6538 11.4634 22.3628C11.5934 22.2968 11.7124 22.2148 11.8196 22.1168C11.9374 22.0101 12.0347 21.888 12.113 21.7505C12.2924 21.4151 12.1759 21.1672 11.8092 21.0593C11.7709 21.0476 11.7327 21.0402 11.6927 21.0377C11.3278 21.0205 10.9808 21.0827 10.6918 21.322C10.4483 21.5236 10.2375 21.7573 10.0964 22.044C10.0268 22.1852 9.96081 22.3289 9.90103 22.4744C9.8018 22.7136 9.71367 22.9565 9.6773 23.2229ZM8.88348 23.0965C8.75159 22.4861 8.51677 22.0212 8.18026 21.613C7.959 21.3448 7.67919 21.1506 7.30939 21.1376C7.1208 21.1314 7.0339 21.2283 7.08135 21.4077C7.13744 21.6142 7.24098 21.7949 7.39075 21.9478C7.69952 22.2734 8.05268 22.5465 8.41199 22.811C8.53711 22.9029 8.67763 22.9732 8.88348 23.0965Z" fill="#53545B"/>
</g>
<path d="M13.9086 34.9973C13.8846 35.0922 13.8698 35.2266 13.8168 35.3432C13.7139 35.5688 13.5931 35.7871 13.4723 36.0041C13.4335 36.0744 13.3823 36.133 13.3176 36.1799C13.2529 36.2273 13.182 36.2594 13.1037 36.2754C13.0643 36.2865 13.0255 36.2853 12.9872 36.2705C12.949 36.2557 12.9194 36.231 12.8979 36.1959C12.8492 36.1219 12.8406 36.0387 12.9003 35.9782C13.1869 35.6891 13.3293 35.3277 13.439 34.9473C13.4538 34.8968 13.4748 34.8493 13.5025 34.8043C13.5253 34.763 13.558 34.7315 13.5999 34.7105C13.6424 34.6896 13.6868 34.6822 13.7336 34.689C13.8131 34.6982 13.8871 34.7895 13.9 34.8857C13.9037 34.9116 13.9043 34.9381 13.9086 34.9973Z" fill="#53545B"/>
<path d="M14.0643 33.4872C14.0618 33.5575 14.0556 33.6278 14.0446 33.6975C14.0384 33.7375 14.0193 33.7708 13.9879 33.7967C13.957 33.8232 13.9207 33.8356 13.88 33.835C13.8387 33.838 13.8023 33.8269 13.7709 33.8011C13.7389 33.7752 13.721 33.7419 13.7161 33.7012C13.7031 33.5846 13.6982 33.4681 13.7019 33.3509C13.7068 33.2295 13.7925 33.1438 13.8917 33.1407C13.9989 33.1376 14.0858 33.2492 14.0815 33.3886C14.0778 33.4219 14.0717 33.4551 14.0643 33.4872Z" fill="#53545B"/>
<path d="M5.8272 27.5249C5.86479 27.5477 5.9443 27.573 5.98806 27.6273C6.0916 27.7543 6.06448 27.9281 5.9406 28.049C5.82473 28.1618 5.68421 28.1255 5.64785 27.9682C5.62751 27.8794 5.6158 27.79 5.61333 27.6988C5.61087 27.6069 5.69777 27.5298 5.8272 27.5249Z" fill="#53545B"/>
<path d="M5.24218 27.472C5.23417 27.5361 5.22061 27.599 5.20273 27.6613C5.1639 27.7753 5.00058 27.8056 4.90936 27.7223C4.7559 27.5823 4.78425 27.3228 4.96422 27.2235C5.09673 27.1501 5.24156 27.2593 5.24218 27.472Z" fill="#53545B"/>
<path d="M10.4217 26.4275C10.4556 26.4343 10.487 26.446 10.5166 26.4626C10.6207 26.5372 10.6744 26.6384 10.6774 26.766C10.6805 26.8474 10.6374 26.9288 10.5523 26.9454C10.495 26.9565 10.4057 26.9448 10.373 26.9072C10.307 26.8264 10.2577 26.7358 10.2263 26.6359C10.1943 26.5378 10.3052 26.4213 10.4217 26.4275Z" fill="#53545B"/>
<path d="M9.69283 26.7808C9.75138 26.811 9.81116 26.8227 9.83766 26.8585C9.88019 26.9244 9.91408 26.9941 9.94059 27.0675C9.95969 27.1039 9.96339 27.1415 9.9523 27.1815C9.9412 27.221 9.9184 27.2512 9.88327 27.2728C9.84259 27.2975 9.79883 27.3073 9.75199 27.3018C9.70454 27.2956 9.66447 27.2759 9.63119 27.2426C9.5332 27.1396 9.50978 27.0052 9.57942 26.8837C9.60223 26.843 9.65092 26.8178 9.69283 26.7808Z" fill="#53545B"/>
</svg>
