<svg width="31" height="32" viewBox="0 0 31 32" fill="none" xmlns="http://www.w3.org/2000/svg">
<mask id="mask0_171_3997" style="mask-type:luminance" maskUnits="userSpaceOnUse" x="0" y="0" width="31" height="32">
<path d="M0.5 0.104736H30.4999V31.0512H0.5V0.104736Z" fill="white"/>
</mask>
<g mask="url(#mask0_171_3997)">
<path d="M30.3917 20.1115C30.4412 20.1863 30.4165 20.1529 30.4078 20.0533C30.3998 19.9537 30.3917 19.8288 30.3917 19.7212C30.375 19.4051 30.375 19.0891 30.3664 18.7737C30.3584 18.1502 30.3497 17.5349 30.3584 16.9115C30.375 15.6485 30.3664 14.385 30.3584 13.1214C30.3578 13.0955 30.352 13.0708 30.3417 13.0472V12.9885C30.3273 12.9269 30.2974 12.8739 30.2502 12.8307C30.2099 12.7876 30.1604 12.7651 30.1011 12.7645L29.6115 12.5982L30.2916 12.216C30.5241 12.091 30.4332 11.8003 30.2335 11.7169L28.4912 11.0192L28.5159 11.0025L29.9763 9.82187C30.1673 9.66414 30.0263 9.42295 29.8273 9.3815L27.9434 8.45875C28.7398 7.56132 29.5119 6.6472 30.2755 5.72445L30.3002 5.683C30.3353 5.65077 30.3595 5.61162 30.3727 5.56557C30.386 5.5201 30.3865 5.47405 30.3745 5.42799C30.3624 5.38137 30.3394 5.34165 30.3048 5.30884C30.2709 5.27545 30.2306 5.25358 30.184 5.24264C25.1608 4.06027 20.3148 2.37019 15.6449 0.172388C15.6064 0.155119 15.5661 0.146484 15.5241 0.146484C15.4821 0.14706 15.4424 0.155695 15.4038 0.172964C15.3659 0.190809 15.3331 0.215561 15.3054 0.247222C15.2778 0.278882 15.2583 0.315147 15.2462 0.355442C11.9935 3.90139 8.57161 7.2758 4.98114 10.4787C3.96327 11.3876 2.92871 12.2793 1.87746 13.1548C1.84352 13.1802 1.81935 13.2118 1.80439 13.251C1.78943 13.2901 1.78598 13.3298 1.79403 13.3713C1.79461 13.4156 1.80669 13.4565 1.83086 13.4939C1.85502 13.5313 1.88667 13.5595 1.92695 13.5791C2.22558 13.7368 2.53284 13.8778 2.84816 14.0108L1.41255 14.8754L1.313 14.9088C1.28423 14.9255 1.26007 14.9468 1.23993 14.9727C1.21921 14.9986 1.20425 15.0274 1.19505 15.0591C1.18584 15.0907 1.18296 15.1229 1.18584 15.1558C1.18929 15.1891 1.1985 15.2202 1.21346 15.2496C1.24453 15.344 1.3084 15.405 1.40449 15.4321L1.59495 15.557L1.66975 15.6071L0.640942 16.2967C0.581101 16.3341 0.542549 16.3865 0.524712 16.4544C0.509177 16.5039 0.506299 16.5534 0.516081 16.6041C0.505149 16.6478 0.502272 16.6921 0.508026 16.737C0.757171 18.5739 0.922885 20.4275 1.00574 22.281C1.00689 22.3173 1.01495 22.3519 1.02991 22.3852C1.04487 22.4186 1.06558 22.4474 1.09205 22.4722C1.11852 22.4975 1.14844 22.5165 1.18239 22.5292C1.21634 22.5418 1.25201 22.5481 1.28826 22.547C1.4954 22.7381 1.81935 22.8958 2.00981 23.0288C2.71524 23.5359 3.4293 24.0264 4.14279 24.5249L10.2005 28.7553C11.2052 29.4535 12.2006 30.1432 13.1966 30.85L13.23 30.8915C13.2576 30.9358 13.2967 30.9669 13.3468 30.9842C13.3963 31.0009 13.4458 31.0009 13.4953 30.983C13.566 30.9709 13.6218 30.9347 13.6615 30.8748C17.794 27.8659 22.0427 24.9906 26.4744 22.4388C27.6528 21.763 28.8422 21.1142 30.043 20.4937C30.2588 20.5852 30.5494 20.3527 30.3917 20.1115ZM29.8186 14.2854C28.5407 15.1166 27.2598 15.9392 25.9767 16.7537C23.2212 18.5158 20.4495 20.2611 17.6444 21.965C16.1927 22.8463 14.7404 23.7104 13.2628 24.5497C13.2381 24.3257 13.2047 24.1093 13.1799 23.8848C15.993 22.2977 18.74 20.5938 21.4789 18.8733C23.9185 17.3438 26.3473 15.7953 28.7651 14.2273L29.8106 13.5457C29.8186 13.7949 29.8186 14.0361 29.8186 14.2854ZM12.6322 23.8934C12.6575 24.0759 12.6822 24.259 12.6989 24.4334L9.01408 22.3559L2.59095 18.7316L1.20483 17.9505C1.17203 17.6431 1.1306 17.3357 1.08917 17.0364L4.72394 19.1973L11.2466 23.0703L12.6322 23.8934ZM1.40449 19.9203L3.26302 21.0342C3.4621 21.1585 3.64508 20.8431 3.44599 20.7182L1.36249 19.4713C1.32969 19.1144 1.29632 18.757 1.25489 18.3995L4.96446 20.4856L11.3876 24.1093L12.757 24.8824C12.8065 25.3809 12.8566 25.88 12.898 26.3785L6.18429 22.3639L5.18023 21.7572C4.98114 21.6323 4.79011 21.9483 4.99783 22.0732L12.093 26.3203L12.9308 26.8188C12.9642 27.2845 12.9975 27.7496 13.0223 28.2153L9.32135 25.8961L2.88153 21.8487L1.47872 20.9761L1.40449 19.9203ZM13.3048 24.9486C16.1179 23.3615 18.8729 21.6576 21.6112 19.9451C24.0014 18.4496 26.3829 16.9368 28.7565 15.4073L29.8186 14.7177V16.1804C28.5407 17.0168 27.2598 17.848 25.9767 18.6735C23.2212 20.4522 20.4495 22.2143 17.6444 23.9268C16.2589 24.7742 14.8566 25.614 13.4458 26.4199C13.4043 25.9295 13.3543 25.431 13.3048 24.9486ZM29.52 12.0162L22.2505 16.0307L28.0096 11.4095L29.52 12.0162ZM27.8686 10.8275C27.8209 10.8402 27.7852 10.8678 27.761 10.911L25.5699 12.673C23.5117 14.324 21.4512 15.9697 19.3873 17.6097L19.3459 17.6264C19.3073 17.6454 19.2774 17.673 19.2544 17.7099L18.1761 18.5572C17.2296 19.2969 16.2923 20.0366 15.321 20.7435C11.4457 18.8899 7.74419 16.6875 4.00182 14.5847L4.14279 14.5099L4.88966 14.7758C6.09281 15.1995 7.30459 15.5904 8.51637 15.9807C10.1758 16.5125 11.6367 17.0531 13.3295 17.593L16.9891 18.765C17.0184 18.776 17.0483 18.7811 17.08 18.7806C17.111 18.78 17.141 18.7731 17.1697 18.761C17.1979 18.7483 17.2232 18.7311 17.2451 18.7086C17.267 18.6867 17.2842 18.6608 17.2963 18.6321C20.8643 15.5322 24.4082 12.4151 27.57 8.88299L29.2547 9.70559L27.8686 10.8275ZM12.8646 3.67171C13.7939 2.71845 14.7099 1.74907 15.6116 0.762421C20.1152 2.86351 24.7816 4.49833 29.6115 5.66631C28.242 7.30401 26.8479 8.92444 25.3708 10.462C23.6947 12.2073 21.9104 13.845 20.1014 15.4488C19.0639 16.3715 18.0184 17.2776 16.9724 18.1836C13.1466 16.9201 9.42894 15.7562 5.62846 14.4518C4.59908 14.1023 3.54553 13.7616 2.56621 13.2878C6.15092 10.2542 9.59523 7.04612 12.8646 3.67171ZM3.50353 14.2768L3.39593 14.3769C3.3522 14.4207 3.32746 14.473 3.32113 14.5346C3.30214 14.564 3.29063 14.5957 3.28546 14.6302C3.28028 14.6647 3.28258 14.6981 3.29179 14.7321C3.30157 14.7655 3.31768 14.7954 3.34012 14.8219C3.36256 14.8484 3.3896 14.8691 3.42067 14.8835C6.88973 16.8286 10.3168 18.8646 13.8773 20.6434L12.1511 21.5909C11.5533 21.3169 10.9894 20.9674 10.425 20.6267C9.50375 20.07 8.59923 19.488 7.69471 18.9066C5.98521 17.8008 4.28377 16.6708 2.57427 15.5489L1.99369 15.1661L3.48742 14.2687L3.50353 14.2768ZM2.25895 15.9973L4.45005 17.4434C6.2591 18.6321 8.07619 19.8288 9.92724 20.9594C10.5826 21.3664 11.2466 21.7906 11.952 22.1061C11.9941 22.151 12.0453 22.1774 12.1063 22.1849C12.1672 22.193 12.2236 22.1803 12.2754 22.1481L14.4746 20.9427L15.2548 21.3169C15.2876 21.333 15.3227 21.3422 15.3595 21.3445C15.3958 21.3468 15.432 21.3422 15.4666 21.3307C15.5017 21.3186 15.5327 21.3007 15.5609 21.2771C15.5891 21.253 15.611 21.2247 15.6282 21.1919C17.0224 20.1863 18.3752 19.1225 19.7193 18.0507L28.9555 12.9557L29.4538 13.1214C28.2501 13.9112 27.0303 14.6924 25.8104 15.4741C23.0054 17.2805 20.1785 19.0534 17.3291 20.793C15.8688 21.691 14.3917 22.5717 12.898 23.4197L8.94792 21.0676L2.42524 17.1941L1.29632 16.5212L2.16746 15.9311L2.25895 15.9973ZM2.62433 22.7962L1.84409 22.2477L1.62026 22.0813L1.5702 22.0479L1.53683 22.0232L1.51209 21.4164L5.25503 23.7771L11.7029 27.8164L13.047 28.6638L13.1218 30.127C9.62803 27.6748 6.11812 25.2479 2.62433 22.7962ZM16.798 27.9741C15.7525 28.7058 14.7099 29.4455 13.6696 30.1932L13.5948 28.7058C16.6737 26.9604 19.6779 25.0815 22.6653 23.1952C22.8644 23.0703 22.682 22.7548 22.4829 22.8791C19.545 24.7327 16.5909 26.5776 13.5701 28.2982C13.5453 27.7997 13.5119 27.3093 13.4705 26.8188C16.2341 25.2565 18.931 23.5774 21.6112 21.8902C24.0014 20.3832 26.3829 18.8566 28.7565 17.3104L29.8186 16.6208C29.8106 16.7871 29.8106 16.9535 29.8106 17.1112C29.8019 17.4601 29.8106 17.8095 29.8106 18.1583C28.3002 19.1559 26.7731 20.1368 25.2465 21.1171C25.0555 21.242 25.2379 21.558 25.4289 21.4331C26.8951 20.4914 28.3583 19.5439 29.8186 18.5906C29.8186 18.7403 29.8186 18.8813 29.8273 19.031C29.8273 19.3246 29.8353 19.6158 29.852 19.9037V19.9704C25.3127 22.3139 20.9892 25.0568 16.798 27.9741Z" fill="#53545B"/>
</g>
<path d="M16.1093 4.46162C16.2745 4.59459 16.4626 4.66942 16.6738 4.68554C16.9396 4.71893 17.1882 4.66079 17.454 4.61934C17.935 4.54451 18.267 4.8519 18.6572 5.0931C20.0266 5.94102 21.4956 6.59725 22.9559 7.24542C23.1717 7.33695 23.3541 7.02955 23.1383 6.92997C21.7608 6.31461 20.3753 5.69982 19.072 4.91868C18.5409 4.60265 18.076 4.14559 17.4126 4.25381C17.1301 4.30332 16.8562 4.37815 16.5742 4.29526C16.2923 4.21179 16.2756 3.89634 16.1427 3.62176C16.0098 3.34775 15.7278 3.58894 15.8274 3.80481C15.9269 4.02068 15.8935 4.26187 16.1093 4.46162Z" fill="#53545B"/>
<path d="M13.894 5.73323L14.5327 5.63307C14.7237 6.30657 15.0805 6.81371 15.8687 6.76363C16.1346 6.74693 16.3918 6.69743 16.649 6.79702C16.8291 6.88279 16.9919 6.99331 17.1386 7.12916C17.4125 7.35366 17.6697 7.61155 18.0184 7.70307C18.2072 7.73992 18.3982 7.75661 18.5909 7.75258C18.9143 7.76927 19.0472 7.91088 19.2129 8.17683C19.4063 8.47098 19.6497 8.71448 19.9437 8.90789C20.1002 9.01266 20.2665 9.09901 20.442 9.16808C20.6181 9.23658 20.7987 9.28551 20.9852 9.31487C21.171 9.34423 21.3586 9.35344 21.5467 9.3425C21.7349 9.33099 21.9196 9.2999 22.1008 9.24867C22.3253 9.19053 22.2257 8.83306 22.0013 8.89983C21.8189 8.95107 21.6325 8.9787 21.4426 8.98273C21.2533 8.98733 21.0657 8.96776 20.881 8.92516C20.6963 8.88199 20.5191 8.81694 20.3505 8.73002C20.1825 8.64252 20.0271 8.53545 19.8856 8.40939C19.6278 8.17683 19.5035 7.83605 19.2544 7.60291C19.0058 7.37035 18.6905 7.39511 18.3665 7.38705C17.6611 7.35366 17.3291 6.61396 16.6737 6.42285C16.2669 6.30657 15.8106 6.51438 15.4291 6.35665C15.0471 6.19835 14.9309 5.74992 14.8399 5.38382C14.8238 5.33719 14.7945 5.30207 14.7519 5.27847C14.7088 5.2543 14.6633 5.24796 14.6155 5.25948L13.7939 5.38382C13.562 5.4172 13.6615 5.77468 13.894 5.73323Z" fill="#53545B"/>
<path d="M12.2507 7.81092C12.2829 7.78387 12.318 7.76026 12.356 7.74069C12.3939 7.72112 12.4331 7.70615 12.4739 7.69579C12.5153 7.68486 12.5568 7.67852 12.5993 7.67737C12.6419 7.67622 12.6839 7.6791 12.7254 7.68716C12.7674 7.69522 12.8076 7.70731 12.8468 7.72457C12.8853 7.74127 12.9221 7.76257 12.9567 7.78732C12.9906 7.81265 13.0217 7.84143 13.0499 7.87309C13.0775 7.90533 13.1017 7.93986 13.1218 7.97728C13.2467 8.18509 13.3209 8.38484 13.5781 8.45909C13.8359 8.53393 14.0678 8.45103 14.2922 8.40959C14.516 8.36814 14.6075 8.33475 14.7565 8.38484C14.9061 8.43434 15.1052 8.69223 15.2462 8.84189C16.2255 9.83085 17.6364 10.1883 18.939 10.5038C19.1715 10.5539 19.271 10.205 19.0386 10.1469C18.2756 9.96382 17.4954 9.78077 16.7819 9.44862C16.4246 9.28802 16.0926 9.08539 15.7859 8.84189C15.512 8.61739 15.2962 8.24323 14.9723 8.07687C14.6489 7.91108 14.4832 8.00203 14.2421 8.04406C14.0016 8.0855 13.9268 8.14364 13.7778 8.11889C13.6282 8.09356 13.52 7.9272 13.4204 7.75278C13.3853 7.69867 13.3456 7.64917 13.3002 7.60311C13.2553 7.55706 13.2058 7.51619 13.1523 7.4805C13.0994 7.44481 13.0424 7.4143 12.9831 7.39013C12.9239 7.36537 12.8623 7.34753 12.799 7.33544C12.7357 7.32335 12.6724 7.3176 12.608 7.31875C12.5435 7.31932 12.4802 7.32681 12.4175 7.34062C12.3542 7.35444 12.2938 7.37401 12.2345 7.40049C12.1759 7.42639 12.1206 7.45805 12.0683 7.49547C11.8772 7.6365 12.0596 7.95253 12.2507 7.81092Z" fill="#53545B"/>
<path d="M10.7069 9.8642C11.5866 9.74735 12.2259 10.1215 12.9308 10.5953C13.6362 11.069 14.3503 11.1439 14.9976 11.5595C15.6449 11.9751 15.9683 12.4736 16.5989 12.7315C17.2295 12.9888 18.0598 12.8558 18.7814 13.0308C19.0058 13.0889 19.1053 12.7315 18.8729 12.6814C18.1179 12.4989 17.2629 12.69 16.5575 12.3078C15.852 11.925 15.4458 11.3269 14.7484 11.0195C14.3917 10.8612 14.0096 10.7536 13.6529 10.5872C13.2961 10.4208 12.9889 10.1797 12.6574 9.96379C12.3542 9.76692 12.0262 9.62992 11.6729 9.55278C11.3202 9.47507 10.9646 9.46298 10.6073 9.51479C10.3749 9.54818 10.4744 9.89701 10.7069 9.8642Z" fill="#53545B"/>
<path d="M9.71959 12.3158C10.0683 12.3658 10.425 12.3986 10.757 12.5149C11.089 12.6318 11.4043 12.9639 11.7364 13.2132C12.2421 13.5873 12.9395 13.6455 13.5287 13.8199C14.3314 14.0536 15.1059 14.3581 15.8521 14.7346C16.0599 14.8422 16.2423 14.5268 16.0351 14.4186C15.4206 14.1089 14.7871 13.8458 14.1346 13.6288C13.5368 13.4296 12.8981 13.3381 12.3169 13.1136C11.7364 12.8891 11.4291 12.3658 10.8566 12.1661C10.5723 12.0763 10.2818 12.0153 9.98485 11.983C9.61142 11.9335 8.98942 11.9082 8.9313 11.4097C8.89793 11.1852 8.53313 11.1771 8.56593 11.4097C8.64073 12.0251 9.17182 12.2409 9.71959 12.3158Z" fill="#53545B"/>
</svg>
