<svg width="41" height="32" viewBox="0 0 41 32" fill="none" xmlns="http://www.w3.org/2000/svg">
<mask id="mask0_171_4008" style="mask-type:luminance" maskUnits="userSpaceOnUse" x="0" y="0" width="41" height="32">
<path d="M0.5 0.078125H40.3079V31.0778H0.5V0.078125Z" fill="white"/>
</mask>
<g mask="url(#mask0_171_4008)">
<path d="M40.141 19.781C37.7225 15.3996 35.9416 10.6376 34.6994 5.79274C34.3102 4.25215 33.9708 2.70344 33.7056 1.12981C33.7004 1.09563 33.6888 1.06376 33.6708 1.03421C33.6529 1.00466 33.6303 0.97975 33.6019 0.959471C33.5741 0.939193 33.5428 0.925287 33.5093 0.917755C33.4757 0.909644 33.4415 0.909064 33.4073 0.914858H33.3245L31.9745 1.17964C31.927 1.09679 31.8743 1.01625 31.817 0.939772C31.345 0.301863 30.5417 -0.0544613 29.7634 0.210899C28.9844 0.475681 28.5124 1.10548 28.4713 1.85868L25.9613 2.34769C25.9289 2.2828 25.8901 2.22254 25.8455 2.16518C25.3816 1.52785 24.5702 1.17964 23.7918 1.445C23.6204 1.50004 23.46 1.57884 23.3117 1.68023C23.1629 1.78221 23.0314 1.90272 22.9179 2.04235C22.8038 2.18198 22.7123 2.33494 22.6422 2.50065C22.5727 2.66693 22.5276 2.83959 22.5079 3.01862L19.3023 3.64784C19.2351 3.42883 19.1332 3.2272 18.996 3.04296C18.5321 2.40563 17.7207 2.05742 16.9417 2.32278C16.1634 2.58756 15.6167 3.30832 15.6497 4.13627C15.6491 4.21449 15.6769 4.28054 15.7325 4.335L13.1484 4.84023C13.0806 4.63628 12.981 4.44856 12.8507 4.27706C12.3868 3.63104 11.5748 3.28341 10.7965 3.54819C10.0181 3.81355 9.47139 4.54242 9.50441 5.36226C9.50325 5.42715 9.52236 5.48509 9.56232 5.53607L8.0386 5.83446C7.9662 5.84257 7.90829 5.8756 7.86427 5.93354V5.95034H7.85617L7.83126 5.99148C5.71913 10.4719 4.20352 15.1597 2.36474 19.7311C1.80182 21.1309 1.2053 22.5053 0.567668 23.872C0.55956 23.8801 0.55956 23.8801 0.55956 23.8888C0.55956 23.8969 0.550873 23.9051 0.542765 23.9219C0.543923 23.934 0.541027 23.945 0.534657 23.9549C0.530603 23.9908 0.530603 24.0267 0.534657 24.0627V24.0789C0.537552 24.1165 0.547977 24.1519 0.565351 24.1849C0.582146 24.2185 0.605312 24.2469 0.634269 24.2712C0.663226 24.2956 0.695079 24.313 0.730986 24.324C0.766893 24.3355 0.803379 24.339 0.841023 24.3355H0.890829L4.46008 24.485C6.14191 26.5141 7.82316 28.535 9.4963 30.5721C9.49919 30.6318 9.51772 30.6868 9.55189 30.7361C9.58664 30.7853 9.63124 30.8218 9.68683 30.8456C9.69784 30.8827 9.71579 30.9163 9.74069 30.9464C9.76502 30.9771 9.79398 31.0014 9.82757 31.0211C9.86174 31.0403 9.89764 31.0524 9.93644 31.0576C9.97467 31.0634 10.0129 31.0617 10.0511 31.0524C17.2319 29.4869 24.3797 27.7146 31.4857 25.835C33.3245 25.3547 35.1604 24.8547 36.9939 24.3355C37.2337 24.2695 37.2586 24.0047 37.1509 23.8471L36.9939 21.321C36.9916 21.2775 36.9806 21.2358 36.9609 21.197L40.0084 20.3024C40.2655 20.2283 40.2736 19.938 40.141 19.781ZM31.2709 1.23758L31.3201 1.30421L29.1089 1.7347C29.2914 0.757264 30.5996 0.417742 31.2709 1.23758ZM30.368 2.12405L31.5772 1.89229C31.6288 2.15707 31.6016 2.41432 31.4944 2.6623C31.2709 3.16753 30.7242 3.61482 30.1607 3.36626C29.7964 3.20866 29.4813 3.74692 29.8462 3.90451C30.6245 4.24403 31.4029 3.93754 31.8755 3.25038C32.0203 3.03253 32.1193 2.79498 32.1726 2.53889C32.2253 2.28222 32.2288 2.02555 32.1819 1.76772L33.1589 1.5771C34.0896 6.80204 35.6608 11.8259 37.8719 16.6505C38.3601 17.727 38.8906 18.7786 39.4536 19.8221C33.0847 21.7022 26.7565 23.6901 20.3546 25.4375C18.557 25.9341 16.7599 26.3982 14.9541 26.8455C12.337 21.7683 10.6471 16.2113 9.37178 10.6625C9.04051 9.2378 8.74225 7.81076 8.47759 6.38083L12.6266 5.5691C12.6185 5.71858 12.5854 5.86169 12.5275 5.99959C12.304 6.50481 11.7573 6.9521 11.1938 6.70355C10.8295 6.54653 10.515 7.08478 10.8793 7.24238C11.6577 7.5819 12.4366 7.2754 12.9086 6.58767C13.1403 6.24525 13.2532 5.86691 13.248 5.45322L16.768 4.76606L18.7724 4.37671C18.7556 4.51055 18.7226 4.64034 18.6728 4.76606C18.4492 5.27129 17.9112 5.718 17.3396 5.47814C16.9753 5.31243 16.6603 5.85068 17.0246 6.00828C17.8035 6.3478 18.5819 6.04941 19.0539 5.35357C19.2786 5.02389 19.3921 4.65946 19.3938 4.26084L25.5889 3.05165C25.6596 3.33787 25.6376 3.61655 25.5223 3.88771C25.2988 4.39294 24.752 4.84023 24.1891 4.60036C23.8248 4.43465 23.5098 4.97291 23.8746 5.1305C24.653 5.47002 25.4314 5.17164 25.9034 4.47579C26.0563 4.25041 26.1576 4.00359 26.208 3.73591C26.2584 3.46823 26.2538 3.20113 26.1935 2.93577L30.368 2.12405ZM25.2988 2.47168H25.3074L24.7607 2.57133L23.1536 2.88594C23.3859 1.97456 24.6449 1.66864 25.2988 2.47168ZM18.4492 3.34946C18.5535 3.47345 18.6334 3.61192 18.6896 3.76372L16.2543 4.23592C16.2641 4.20348 16.2694 4.17045 16.2711 4.13627C16.2213 2.94388 17.7207 2.44677 18.4492 3.34946ZM12.304 4.57545C12.4007 4.68901 12.4754 4.81647 12.5275 4.9561L11.1608 5.22958L10.1171 5.42831C10.1247 5.40687 10.1276 5.38485 10.1252 5.36226C10.076 4.16929 11.5748 3.67276 12.304 4.57545ZM6.55599 10.4557C6.97819 9.4035 7.42529 8.36002 7.88918 7.33334C8.20423 11.9047 8.5216 16.479 8.84187 21.0562L1.77692 23.3917L1.41264 23.5076C3.35044 19.2508 4.80814 14.8034 6.55599 10.4557ZM4.50989 23.8639H4.51857L2.53907 23.7811L8.18744 21.9178L8.89167 21.6854C8.90789 21.9838 8.93279 22.2903 8.94959 22.5881L6.87858 23.1849L5.28014 23.6403C5.03169 23.7144 4.76702 23.8222 4.50989 23.8639ZM5.14752 24.3355L5.42088 24.2533L7.04421 23.7892L8.99881 23.226C9.04051 23.8969 9.09032 24.5592 9.13144 25.222L9.4297 29.5205L5.14752 24.3355ZM36.5382 23.8309C29.4072 25.8599 22.1928 27.6155 14.979 29.305C13.3725 29.6856 11.7573 30.0588 10.1501 30.4145C10.1386 30.3913 10.1247 30.3693 10.109 30.3485C9.9376 27.853 9.76676 25.3628 9.59533 22.8784C9.59823 22.8274 9.59243 22.7781 9.57911 22.7289C9.32487 18.986 9.06542 15.2397 8.80017 11.4905L8.75036 10.7865C9.70305 14.9772 10.9453 19.11 12.5605 23.0852C13.1513 24.543 13.8057 25.9671 14.5232 27.3588C14.5476 27.4109 14.5852 27.4521 14.635 27.4811C14.6854 27.5094 14.7393 27.5216 14.7966 27.5158H14.8713C21.5222 25.8843 28.0734 23.8888 34.6334 21.9178L36.3893 21.3957L36.5382 23.8309Z" fill="#53545B"/>
</g>
<path d="M15.2276 15.855C15.6747 15.7061 16.0147 15.3665 16.0726 14.8862C16.1137 14.5629 15.9811 14.2321 15.9069 13.9175C15.8322 13.6023 15.7662 13.2877 15.534 13.0391C15.3023 12.7912 14.8135 12.6254 14.3913 12.7164C13.7369 12.8653 12.8919 12.9899 12.6765 13.735C12.5688 14.0745 12.6765 14.3978 12.7593 14.7373C12.8421 15.0768 12.8919 15.3833 13.0657 15.64C13.6043 16.4181 14.5072 16.0375 15.2276 15.855ZM13.306 15.1759C13.1155 14.5716 12.768 13.6191 13.5875 13.3543C14.184 13.1637 15.1367 12.8155 15.4014 13.6359C15.5919 14.2321 15.94 15.1846 15.1199 15.4575C14.5153 15.6151 13.5794 16.0294 13.306 15.1759Z" fill="#53545B"/>
<path d="M17.1162 18.8036C17.1573 18.4722 17.0247 18.1413 16.9505 17.8348C16.8758 17.5283 16.8098 17.1969 16.5776 16.9484C16.3459 16.6998 15.8571 16.5428 15.4349 16.6338C14.7805 16.7745 13.9355 16.8985 13.7201 17.6442C13.6124 17.9918 13.7201 18.3151 13.8029 18.646C13.8857 18.9774 13.9355 19.292 14.1093 19.5574C14.6479 20.3274 15.5507 19.9548 16.2712 19.7642C16.7183 19.6234 17.0582 19.2758 17.1162 18.8036ZM14.3496 19.0852C14.151 18.489 13.8116 17.5283 14.6311 17.263C15.2276 17.0729 16.1803 16.7247 16.4449 17.5532C16.6355 18.1494 16.9835 19.102 16.1635 19.3667C15.5588 19.5243 14.623 19.938 14.3496 19.0852Z" fill="#53545B"/>
<path d="M17.8198 20.5179C17.7398 20.4594 17.6536 20.4113 17.5615 20.3748C17.4688 20.3383 17.3738 20.314 17.2748 20.3012C17.1763 20.2891 17.0779 20.2891 16.9794 20.3024C16.881 20.3151 16.7854 20.34 16.6933 20.3771C16.0806 20.6008 15.2692 20.8406 15.1279 21.5782C15.0538 21.9421 15.2026 22.2486 15.3353 22.58C15.4679 22.9114 15.5507 23.193 15.7412 23.4166C16.3708 24.1536 17.2151 23.6733 17.9194 23.3749H17.9692C18.0729 23.328 18.1673 23.2671 18.253 23.1918C18.3387 23.1171 18.4117 23.0313 18.4719 22.9346C18.5321 22.8384 18.5773 22.7352 18.6074 22.6257C18.6375 22.5157 18.6508 22.4038 18.6479 22.2903C18.6317 21.967 18.458 21.6524 18.3335 21.3627C18.209 21.073 18.1018 20.7248 17.8198 20.5179ZM17.7619 23.0023C17.207 23.2341 16.387 23.7312 15.981 23.0354C15.6665 22.5139 15.2194 21.5284 15.9231 21.1471C16.4536 20.8574 17.3976 20.3852 17.7868 21.0973C18.1018 21.6773 18.5489 22.6217 17.7619 23.0023Z" fill="#53545B"/>
<path d="M18.8304 11.59C18.176 11.7308 17.3316 11.8548 17.1075 12.6004C17.0085 12.9481 17.1075 13.2714 17.199 13.6022C17.2899 13.9336 17.3229 14.2482 17.5054 14.5136C18.0353 15.2836 18.9382 14.9111 19.6673 14.7204C20.1057 14.5796 20.4457 14.2401 20.5036 13.7598C20.5447 13.4365 20.4208 13.097 20.3379 12.7911C20.2551 12.4846 20.1972 12.1532 19.965 11.9127C19.7333 11.6728 19.2445 11.499 18.8304 11.59ZM19.5509 14.323C18.9463 14.4806 18.0104 14.8942 17.737 14.0414C17.5465 13.4452 17.199 12.4927 18.0191 12.2279C18.615 12.0286 19.5758 11.681 19.841 12.5095C20.0316 13.1057 20.371 14.0582 19.5509 14.323Z" fill="#53545B"/>
<path d="M21.5472 17.669C21.5883 17.3457 21.4643 17.0148 21.3815 16.6996C21.2987 16.385 21.2408 16.0704 21.0086 15.8219C20.7769 15.5733 20.2881 15.4076 19.874 15.4991C19.2196 15.6481 18.3752 15.772 18.1511 16.5096C18.052 16.8572 18.1511 17.18 18.2426 17.5195C18.3335 17.8596 18.3665 18.1655 18.5489 18.4228C19.0789 19.2009 19.9817 18.8202 20.7103 18.6377C21.1493 18.4888 21.4892 18.1493 21.5472 17.669ZM18.7806 17.9505C18.5901 17.3544 18.2426 16.4018 19.0626 16.1365C19.6586 15.9464 20.6194 15.5982 20.8846 16.4181C21.0752 17.0148 21.4145 17.9668 20.5945 18.2402C19.9899 18.3978 19.054 18.8034 18.7806 17.9505Z" fill="#53545B"/>
<path d="M22.2508 19.3835C22.1709 19.3244 22.0846 19.2769 21.9925 19.2404C21.8998 19.2039 21.8049 19.1789 21.7064 19.1668C21.6074 19.1546 21.5089 19.1546 21.4105 19.1673C21.312 19.1801 21.217 19.2056 21.1249 19.2427C20.5116 19.4744 19.7003 19.7143 19.5595 20.4519C19.4848 20.8157 19.6337 21.1222 19.7744 21.4455C19.9157 21.7682 19.9817 22.0585 20.1804 22.2903C20.8018 23.0191 21.6468 22.5388 22.3504 22.2485H22.3672L22.4002 22.2323C22.5039 22.1854 22.5989 22.1246 22.6852 22.0498C22.7709 21.9751 22.8438 21.8893 22.9047 21.7926C22.9649 21.6964 23.0101 21.5933 23.0396 21.4832C23.0697 21.3731 23.083 21.2613 23.0796 21.1471C23.0709 20.8325 22.889 20.5179 22.7726 20.2282C22.6568 19.9379 22.5328 19.5903 22.2508 19.3835ZM22.1929 21.8679C21.6468 22.1078 20.8267 22.6049 20.4126 21.909C20.1057 21.3789 19.6505 20.3933 20.3547 20.0127C20.8846 19.723 21.8286 19.2589 22.2178 19.971C22.5328 20.5428 22.9799 21.4866 22.1929 21.8679Z" fill="#53545B"/>
<path d="M23.2615 10.4557C22.6071 10.6046 21.7627 10.7286 21.5472 11.4743C21.4395 11.8219 21.5472 12.1365 21.63 12.476C21.7129 12.8155 21.7627 13.122 21.9364 13.3787C22.4663 14.1574 23.3773 13.7849 24.0983 13.5942C24.5454 13.4535 24.8848 13.1058 24.9427 12.6255C24.9763 12.3022 24.8518 11.9708 24.769 11.6562C24.6862 11.3416 24.6283 11.027 24.4047 10.7784C24.1812 10.5299 23.6756 10.3641 23.2615 10.4557ZM23.9906 13.1968C23.3773 13.3544 22.4501 13.7681 22.1681 12.9152C21.9781 12.319 21.63 11.3584 22.4582 11.093C23.0547 10.9024 24.0068 10.5548 24.2721 11.3746C24.4626 11.9795 24.8107 12.932 23.9906 13.1968Z" fill="#53545B"/>
<path d="M25.9862 16.5428C26.0198 16.2195 25.8953 15.88 25.8125 15.5735C25.7297 15.267 25.6718 14.9362 25.4482 14.6876C25.2247 14.439 24.7191 14.2814 24.305 14.373C23.6506 14.5138 22.8062 14.6378 22.5826 15.3834C22.483 15.7311 22.5907 16.0538 22.6736 16.3852C22.7564 16.7166 22.7975 17.0312 22.9799 17.2966C23.5098 18.0666 24.4208 17.6941 25.1419 17.5034C25.589 17.3626 25.9283 17.015 25.9862 16.5428ZM23.2116 16.8244C23.0216 16.2282 22.6736 15.267 23.5017 15.0103C24.0982 14.8116 25.0503 14.464 25.3156 15.2919C25.5061 15.8887 25.8542 16.8406 25.0341 17.106C24.4208 17.263 23.4936 17.6772 23.2116 16.8244Z" fill="#53545B"/>
<path d="M26.6824 18.2572C26.603 18.1981 26.5173 18.1506 26.4258 18.1141C26.3343 18.077 26.2393 18.0527 26.1414 18.0405C26.0436 18.0284 25.9457 18.0284 25.8478 18.0411C25.7499 18.0539 25.6555 18.0788 25.564 18.1164C24.9426 18.3482 24.1312 18.58 23.9905 19.3169C23.9239 19.6814 24.0733 19.9879 24.2059 20.3193C24.338 20.6507 24.4127 20.9323 24.6113 21.1559C25.2409 21.8929 26.0777 21.4126 26.7901 21.1142H26.8393C26.9418 21.0661 27.0356 21.0041 27.1202 20.9288C27.2047 20.8535 27.2766 20.7677 27.3362 20.6716C27.3959 20.5754 27.4405 20.4722 27.47 20.3633C27.4995 20.2538 27.5128 20.1426 27.5105 20.0296C27.5018 19.7063 27.3281 19.3917 27.2042 19.102C27.0796 18.8117 26.9719 18.4641 26.6824 18.2572ZM26.6244 20.7417C26.0777 20.9734 25.2577 21.4705 24.8436 20.7747C24.5372 20.2527 24.0814 19.2671 24.7857 18.8865C25.3237 18.5968 26.2683 18.1246 26.6575 18.8366C26.9638 19.4166 27.4109 20.3604 26.6244 20.7417Z" fill="#53545B"/>
<path d="M26.0691 11.3414C26.1438 11.6479 26.1936 11.9875 26.376 12.2522C26.9059 13.0228 27.8088 12.6503 28.5293 12.4678C28.9764 12.3189 29.3158 11.9793 29.3742 11.499C29.4154 11.1757 29.2827 10.8362 29.2086 10.5297C29.1339 10.2232 29.0673 9.89238 28.8356 9.65193C28.604 9.41207 28.1152 9.23767 27.6924 9.32921C27.0386 9.47001 26.1936 9.594 25.9782 10.3391C25.8704 10.6873 25.9782 11.01 26.0691 11.3414ZM26.8891 9.96654C27.4857 9.77592 28.4384 9.42829 28.703 10.2481C28.9017 10.8443 29.2416 11.7968 28.4216 12.0622C27.8169 12.2192 26.881 12.6335 26.6077 11.7806C26.4171 11.1838 26.0691 10.2319 26.8891 9.96654Z" fill="#53545B"/>
<path d="M28.7361 13.2379C28.0823 13.3874 27.2373 13.5114 27.0219 14.2483C26.9141 14.5966 27.0219 14.9193 27.1128 15.2588C27.2043 15.5983 27.2373 15.9048 27.4191 16.1615C27.9496 16.9402 28.8525 16.559 29.573 16.377C30.0201 16.2281 30.3595 15.8886 30.4179 15.4077C30.4591 15.085 30.3264 14.7536 30.2523 14.439C30.1776 14.1244 30.111 13.8097 29.8793 13.5612C29.6477 13.3126 29.1589 13.1469 28.7361 13.2379ZM29.7467 14.1574C29.9454 14.7536 30.2853 15.7061 29.4653 15.9796C28.8606 16.1366 27.9247 16.5508 27.6514 15.6893C27.4608 15.0931 27.1128 14.1406 27.9328 13.8758C28.5294 13.6852 29.4815 13.3375 29.7467 14.1574Z" fill="#53545B"/>
<path d="M31.1215 17.1221C31.0416 17.0636 30.9553 17.0161 30.8626 16.9796C30.7706 16.9425 30.675 16.9182 30.5766 16.906C30.4781 16.8933 30.3796 16.8938 30.2812 16.9066C30.1827 16.9193 30.0872 16.9442 29.9951 16.9813C29.3824 17.2137 28.5704 17.4535 28.4297 18.1905C28.3555 18.5549 28.5044 18.8614 28.637 19.1847C28.7696 19.5075 28.8524 19.7972 29.043 20.0295C29.6719 20.7665 30.5169 20.2775 31.2211 19.9878H31.2374L31.2709 19.971C31.3746 19.9246 31.4696 19.8638 31.5553 19.789C31.6416 19.7143 31.7146 19.6286 31.7748 19.5318C31.8356 19.435 31.8808 19.3319 31.9103 19.2218C31.9399 19.1123 31.9532 19.0005 31.9497 18.8864C31.9335 18.5718 31.7592 18.2571 31.6352 17.9669C31.5107 17.6772 31.403 17.3295 31.1215 17.1221ZM31.0636 19.6071C30.5088 19.847 29.6887 20.3441 29.2828 19.6483C28.9683 19.1181 28.5212 18.1413 29.2248 17.7519C29.7548 17.4616 30.6993 16.9981 31.0885 17.7102C31.403 18.2902 31.8507 19.2259 31.0636 19.6071Z" fill="#53545B"/>
<path d="M30.5419 11.1179C31.0805 11.8966 31.9828 11.524 32.7038 11.3334C33.1509 11.1926 33.4903 10.8444 33.5482 10.3641C33.5899 10.0414 33.4573 9.70998 33.3826 9.39537C33.3084 9.08076 33.2418 8.76615 33.0102 8.51759C32.9372 8.44285 32.8561 8.37854 32.7669 8.32523C32.6772 8.27135 32.5822 8.23079 32.482 8.2024C32.3818 8.17401 32.2793 8.15895 32.1751 8.15779C32.0708 8.15663 31.9683 8.1688 31.867 8.19429C31.2125 8.34377 30.3681 8.46776 30.1527 9.21286C30.045 9.56107 30.1527 9.87568 30.2355 10.2152C30.3183 10.5547 30.3681 10.8612 30.5419 11.1179ZM31.0637 8.8322C31.6602 8.64158 32.6123 8.29395 32.8776 9.11378C33.0681 9.71809 33.4162 10.6706 32.5961 10.936C31.9915 11.093 31.0556 11.5072 30.7822 10.6544C30.5836 10.0576 30.2436 9.09698 31.0637 8.8322Z" fill="#53545B"/>
<path d="M32.9105 12.1115C32.2561 12.2523 31.4117 12.3768 31.1963 13.1219C31.0885 13.4701 31.1963 13.7929 31.2791 14.1243C31.3619 14.4557 31.4117 14.7703 31.5855 15.0351C32.1241 15.8057 33.0264 15.4325 33.7474 15.2425C34.1945 15.1017 34.5339 14.7622 34.5918 14.2813C34.6335 13.9586 34.5009 13.619 34.4261 13.3125C34.352 13.006 34.2854 12.6746 34.0538 12.4348C33.8215 12.1943 33.3333 12.0205 32.9105 12.1115ZM33.9211 13.031C34.1117 13.6272 34.4597 14.5797 33.6397 14.8445C33.035 15.002 32.0992 15.4163 31.8258 14.5629C31.6272 13.9667 31.2872 13.0142 32.1073 12.7494C32.7038 12.5506 33.6559 12.203 33.9211 13.031Z" fill="#53545B"/>
<path d="M32.6042 17.0561C32.5295 17.4286 32.6789 17.7351 32.8115 18.0584C32.9436 18.3811 33.0264 18.6708 33.2169 18.9032C33.8465 19.6314 34.6914 19.1511 35.3957 18.8533H35.4449C35.548 18.8052 35.6418 18.7438 35.7269 18.6685C35.8121 18.5932 35.885 18.5074 35.9453 18.4113C36.0055 18.3151 36.0507 18.2119 36.0814 18.1024C36.1121 17.9935 36.126 17.8817 36.1242 17.7681C36.1074 17.4454 35.9337 17.1308 35.8098 16.8405C35.6852 16.5508 35.5775 16.2194 35.2961 16.0126C35.2161 15.9541 35.1298 15.906 35.0372 15.8695C34.9451 15.833 34.8495 15.8086 34.7511 15.7959C34.6526 15.7837 34.5542 15.7843 34.4557 15.797C34.3573 15.8098 34.2617 15.8347 34.1696 15.8718C33.5482 16.0873 32.7449 16.3191 32.6042 17.0561ZM35.263 16.5839C35.5775 17.1557 36.0246 18.0995 35.2381 18.4808C34.6833 18.7206 33.8633 19.2091 33.4573 18.5138C33.1428 17.9918 32.687 17.0062 33.3994 16.6256C33.9293 16.3353 34.8739 15.8637 35.263 16.5839Z" fill="#53545B"/>
<path d="M24.6531 8.13617C24.5372 7.78043 24.4295 7.4241 24.3137 7.05966V7.04286C24.3177 7.02548 24.3201 7.00752 24.3201 6.98956C24.3201 6.9716 24.3177 6.95364 24.3131 6.93625C24.3091 6.91887 24.3021 6.90207 24.2934 6.88585C24.2847 6.8702 24.2743 6.85572 24.2621 6.84239C24.2494 6.82907 24.2355 6.81748 24.2205 6.80821C24.2054 6.79836 24.1886 6.79083 24.1718 6.78503C24.1544 6.77924 24.1371 6.77576 24.1185 6.7746C24.1006 6.77345 24.0826 6.7746 24.0647 6.77808L12.1216 9.39519C12.1042 9.39113 12.0863 9.38881 12.0677 9.38881C12.0498 9.38939 12.0318 9.39171 12.0139 9.39634C11.9965 9.4004 11.9797 9.40735 11.9635 9.41604C11.9479 9.42474 11.9328 9.43516 11.9195 9.44733C11.9062 9.4595 11.894 9.4734 11.8842 9.48847C11.8737 9.50353 11.8656 9.51976 11.8592 9.53656C11.8535 9.55394 11.8494 9.57132 11.8477 9.58928C11.8453 9.60782 11.8459 9.62578 11.8482 9.64374C11.9479 10.0991 12.0469 10.5545 12.1546 11.0018C12.1616 11.0279 12.1731 11.0522 12.1894 11.0737C12.2056 11.0951 12.2253 11.1131 12.2484 11.127C12.2716 11.1409 12.2971 11.1502 12.3237 11.1542C12.3504 11.1583 12.377 11.1571 12.4031 11.1507L24.5037 8.39284C24.5297 8.38473 24.5535 8.3714 24.5749 8.3546C24.5957 8.33722 24.6137 8.31694 24.627 8.29319C24.6409 8.26943 24.6502 8.24394 24.6542 8.21729C24.6589 8.19005 24.6583 8.1634 24.6531 8.13617ZM23.9326 7.22537C24.0154 7.49884 24.0983 7.77174 24.1892 8.0371L12.5108 10.7034C12.4367 10.3975 12.3701 10.0823 12.304 9.77585L23.9326 7.22537Z" fill="#53545B"/>
</svg>
