<svg width="31" height="30" viewBox="0 0 31 30" fill="none" xmlns="http://www.w3.org/2000/svg">
<path d="M15.5 30C23.7843 30 30.5 23.2843 30.5 15C30.5 6.71573 23.7843 0 15.5 0C7.21573 0 0.5 6.71573 0.5 15C0.5 23.2843 7.21573 30 15.5 30Z" fill="#25D366"/>
<path fill-rule="evenodd" clip-rule="evenodd" d="M15.9944 23.3453H15.9907C14.4979 23.3448 13.0311 22.9703 11.7283 22.2597L7 23.5L8.26538 18.878C7.48483 17.5253 7.07411 15.9909 7.07478 14.4189C7.07674 9.50106 11.078 5.5 15.9943 5.5C18.3804 5.50103 20.6199 6.42992 22.3039 8.11588C23.9879 9.80176 24.9148 12.0427 24.9138 14.4259C24.9119 19.3427 20.9122 23.3433 15.9944 23.3453ZM11.9468 20.6449L12.2175 20.8056C13.3557 21.4811 14.6605 21.8385 15.9908 21.839H15.9938C20.0799 21.839 23.4055 18.5132 23.4072 14.4254C23.4079 12.4445 22.6376 10.5819 21.2379 9.18063C19.8382 7.77932 17.9768 7.00722 15.9967 7.00653C11.9074 7.00653 8.5817 10.3319 8.58008 14.4194C8.5795 15.8202 8.97145 17.1845 9.71355 18.3648L9.88982 18.6453L9.14089 21.381L11.9468 20.6449ZM20.1815 16.3463C20.3369 16.4214 20.4419 16.4721 20.4867 16.5469C20.5424 16.6399 20.5424 17.0861 20.3568 17.6068C20.171 18.1273 19.2806 18.6025 18.8524 18.6664C18.4685 18.7239 17.9826 18.7478 17.4487 18.5781C17.125 18.4754 16.7099 18.3383 16.1782 18.1087C14.0888 17.2065 12.6769 15.1815 12.41 14.7988C12.3913 14.7719 12.3783 14.7532 12.371 14.7435L12.3692 14.7411C12.2512 14.5837 11.4609 13.5293 11.4609 12.438C11.4609 11.4114 11.9652 10.8733 12.1973 10.6256C12.2132 10.6087 12.2279 10.593 12.241 10.5787C12.4452 10.3556 12.6867 10.2998 12.8353 10.2998C12.9838 10.2998 13.1326 10.3012 13.2624 10.3077C13.2784 10.3085 13.2951 10.3084 13.3123 10.3083C13.4422 10.3076 13.6041 10.3066 13.7639 10.6903C13.8253 10.838 13.9152 11.0569 14.0101 11.2878C14.2018 11.7546 14.4137 12.2705 14.451 12.3451C14.5067 12.4567 14.5439 12.5868 14.4696 12.7356C14.4584 12.7579 14.4481 12.779 14.4383 12.7991C14.3825 12.913 14.3414 12.9968 14.2467 13.1073C14.2095 13.1508 14.171 13.1977 14.1325 13.2446C14.0558 13.3379 13.9792 13.4313 13.9124 13.4978C13.8008 13.6089 13.6847 13.7295 13.8147 13.9526C13.9447 14.1758 14.392 14.9056 15.0545 15.4965C15.7667 16.1318 16.3857 16.4003 16.6995 16.5364C16.7607 16.563 16.8104 16.5845 16.8468 16.6027C17.0696 16.7143 17.1996 16.6956 17.3296 16.5469C17.4596 16.3982 17.8867 15.8962 18.0353 15.6731C18.1838 15.45 18.3325 15.4872 18.5367 15.5615C18.741 15.636 19.8367 16.1751 20.0596 16.2866C20.1031 16.3084 20.1438 16.3281 20.1815 16.3463Z" fill="#FDFDFD"/>
</svg>
