<svg width="136" height="136" viewBox="0 0 136 136" fill="none" xmlns="http://www.w3.org/2000/svg">
<rect x="0.636719" y="0.311523" width="135" height="135" rx="67.5" fill="#C5DFBB"/>
<path fill-rule="evenodd" clip-rule="evenodd" d="M35.5717 56.6492C34.3997 59.9465 33.7692 64.0854 35.1974 66.8364C36 68.3839 37.422 69.4491 39.4293 70.0081C40.8286 68.4668 41.4642 66.8075 41.3185 65.069C41.061 61.9814 38.3226 58.816 35.5717 56.6492ZM39.7157 71.8948C39.6491 71.8948 39.5813 71.8898 39.5159 71.8747C36.7173 71.2378 34.7288 69.8197 33.6096 67.6591C31.2657 63.1433 33.5531 56.7811 34.3118 54.9383L34.3332 54.8893C34.4349 54.6343 34.6497 54.4409 34.9135 54.3643C35.1785 54.2876 35.4612 54.3379 35.6848 54.4987L35.7287 54.5301C37.3516 55.6857 42.6764 59.8498 43.1022 64.9208C43.3044 67.3451 42.3774 69.6036 40.3475 71.6348C40.1779 71.8043 39.9493 71.8948 39.7157 71.8948Z" fill="#53545B"/>
<path fill-rule="evenodd" clip-rule="evenodd" d="M45.1457 94.5639C45.0578 94.5639 44.9674 94.5501 44.8794 94.5225C44.4084 94.3755 44.1446 93.8743 44.2928 93.4033C46.1079 87.5924 45.4045 81.2402 42.3634 75.972C41.449 74.3868 40.3423 72.9234 39.0749 71.627C38.7307 71.2728 38.737 70.7063 39.09 70.3609C39.4442 70.0167 40.0107 70.0217 40.3549 70.3759C41.7266 71.7815 42.9224 73.363 43.9135 75.0776C47.2033 80.7779 47.9632 87.6502 45.9987 93.9359C45.8793 94.3177 45.5263 94.5639 45.1457 94.5639Z" fill="#53545B"/>
<path fill-rule="evenodd" clip-rule="evenodd" d="M46.9811 84.756C48.3264 85.2924 49.5285 85.3075 50.6452 84.805C52.6186 83.9119 54.0908 81.4135 54.9361 79.0545C52.4302 79.0972 49.5901 79.6888 48.1129 81.2728C47.2763 82.1684 46.9045 83.3102 46.9811 84.756ZM48.9582 86.9605C47.9295 86.9605 46.858 86.6955 45.7513 86.1704C45.4737 86.0385 45.2841 85.7722 45.2489 85.4657C44.9876 83.2575 45.5114 81.4361 46.804 80.0506C49.477 77.1904 54.6359 77.2092 56.1533 77.2833L56.1923 77.2858C56.4686 77.2971 56.7211 77.4353 56.8819 77.6589C57.0427 77.8812 57.0904 78.1664 57.0138 78.4314L57.0025 78.4666C56.5879 79.9275 54.9487 84.8214 51.3813 86.433C50.6063 86.7847 49.7973 86.9605 48.9582 86.9605Z" fill="#53545B"/>
<path fill-rule="evenodd" clip-rule="evenodd" d="M36.2726 80.8945C37.5639 83.0438 39.4983 85.2068 41.6074 85.6955C42.8007 85.9731 43.9752 85.7231 45.1886 84.933C44.9826 83.4997 44.3947 82.4509 43.3998 81.7374C41.6413 80.4737 38.7396 80.4474 36.2726 80.8945ZM42.5407 87.5947C42.096 87.5947 41.6501 87.542 41.2029 87.439C37.388 86.5559 34.8268 82.0778 34.1309 80.725L34.1146 80.6923C33.9864 80.4474 33.9789 80.1597 34.0919 79.9072C34.2062 79.6573 34.4273 79.4739 34.6961 79.4085L34.7313 79.3985C36.206 79.0292 41.2619 78.0017 44.4437 80.2841C45.9812 81.3895 46.8504 83.0739 47.0275 85.291C47.0527 85.5987 46.9183 85.8952 46.6721 86.0786C45.3192 87.0872 43.935 87.5947 42.5407 87.5947Z" fill="#53545B"/>
<mask id="mask0_145_2655" style="mask-type:luminance" maskUnits="userSpaceOnUse" x="89" y="28" width="21" height="25">
<path d="M89.8754 28.9939H109.137V52.4684H89.8754V28.9939Z" fill="white"/>
</mask>
<g mask="url(#mask0_145_2655)">
<path fill-rule="evenodd" clip-rule="evenodd" d="M95.7828 52.2863C95.6295 52.2863 95.4763 52.2474 95.3356 52.167L90.4593 49.3507C90.0473 49.1121 89.8915 48.5933 90.1101 48.1675C90.7658 46.8875 91.2846 45.8147 91.4818 44.6164C91.6438 43.6404 91.6376 42.5739 91.6087 41.5665C91.4391 35.7557 93.5356 31.5979 97.8391 29.2113C98.1142 29.058 98.447 29.0618 98.7196 29.2188L100.354 30.1621C100.782 30.4096 100.927 30.956 100.682 31.3844C100.433 31.8127 99.8853 31.9584 99.4582 31.7122L98.2737 31.0276C94.847 33.1228 93.2517 36.5571 93.3974 41.5138C93.4288 42.6116 93.4326 43.7811 93.2467 44.9091C93.0507 46.0961 92.6299 47.1148 92.0847 48.224L95.4989 50.1949C96.1873 49.1686 96.8593 48.2943 97.7888 47.5306C98.6731 46.8058 99.6881 46.2242 100.655 45.7042C105.019 43.3515 107.196 40.2526 107.296 36.2368L106.112 35.5522C105.685 35.306 105.537 34.7583 105.785 34.33C106.032 33.9029 106.579 33.7559 107.008 34.0046L108.64 34.9467C108.912 35.1037 109.081 35.3927 109.088 35.7054C109.171 40.6269 106.619 44.5209 101.503 47.2794C100.616 47.7567 99.6893 48.2856 98.9244 48.9136C97.9873 49.6849 97.314 50.6684 96.5339 51.8781C96.3644 52.1406 96.0767 52.2863 95.7828 52.2863Z" fill="#53545B"/>
</g>
<path fill-rule="evenodd" clip-rule="evenodd" d="M103.931 34.6C104.29 34.8073 104.694 34.8814 105.062 34.8111C105.387 34.747 105.642 34.5787 105.785 34.33C105.927 34.0838 105.946 33.7773 105.839 33.4657C105.716 33.1103 105.45 32.7987 105.092 32.5915L102.534 31.1143C102.176 30.907 101.773 30.8329 101.403 30.9058C101.08 30.9673 100.824 31.1381 100.682 31.3843C100.366 31.9282 100.683 32.7259 101.375 33.1241L103.931 34.6ZM104.783 36.6262C104.182 36.6262 103.581 36.4641 103.037 36.1488L100.481 34.6729C98.9243 33.7747 98.3188 31.8981 99.1315 30.49C99.5373 29.7878 100.223 29.3117 101.061 29.1484C101.857 28.9952 102.695 29.1421 103.428 29.5655L105.986 31.0414C106.719 31.4647 107.266 32.1179 107.53 32.8829C107.809 33.6906 107.74 34.5234 107.334 35.2243C106.93 35.9265 106.244 36.4038 105.403 36.5659C105.199 36.6048 104.99 36.6262 104.783 36.6262Z" fill="#53545B"/>
<path fill-rule="evenodd" clip-rule="evenodd" d="M101.045 47.3848C96.917 47.3848 93.783 45.5684 91.7267 41.9847C91.4818 41.5563 91.6287 41.0099 92.0571 40.765C92.4854 40.5162 93.0318 40.6657 93.278 41.0941C95.0165 44.1238 97.5564 45.596 101.045 45.596C101.056 45.596 101.069 45.596 101.077 45.596C101.572 45.596 101.973 45.9955 101.973 46.4891C101.974 46.9828 101.575 47.3835 101.081 47.3848C101.069 47.3848 101.056 47.3848 101.045 47.3848Z" fill="#53545B"/>
<path fill-rule="evenodd" clip-rule="evenodd" d="M88.5764 64.767C88.4219 64.767 88.2674 64.7256 88.1293 64.6464L83.253 61.8302C82.8259 61.584 82.6789 61.0363 82.9264 60.6092L90.1303 48.1284C90.379 47.7013 90.9241 47.5543 91.3525 47.8005C91.7821 48.048 91.9265 48.5969 91.6803 49.0227L84.9224 60.7286L88.2499 62.6504L95.0091 50.9446C95.2553 50.5175 95.8004 50.3705 96.23 50.6167C96.6584 50.8642 96.8053 51.4119 96.5579 51.839L89.3515 64.3198C89.2347 64.5246 89.0387 64.6741 88.8088 64.7356C88.7335 64.7557 88.6543 64.767 88.5764 64.767Z" fill="#53545B"/>
<path fill-rule="evenodd" clip-rule="evenodd" d="M72.0382 87.782C71.8862 87.782 71.7317 87.743 71.591 87.6614C71.2431 87.4617 71.071 87.0534 71.1715 86.664L73.788 76.5007C73.8094 76.4228 73.8382 76.3462 73.8797 76.2771L82.9263 60.6094C83.1725 60.1811 83.7202 60.0341 84.1473 60.2816C84.5756 60.5303 84.7226 61.0754 84.4751 61.5038L75.4913 77.0659L73.7051 83.9998L78.8175 78.9866L87.8026 63.4257C88.0488 62.9973 88.5965 62.8503 89.0261 63.0978C89.4519 63.3453 89.5989 63.8917 89.3514 64.32L80.306 79.9877C80.2659 80.0568 80.2156 80.1221 80.1578 80.1774L72.665 87.5257C72.4929 87.6953 72.2656 87.782 72.0382 87.782Z" fill="#53545B"/>
<path fill-rule="evenodd" clip-rule="evenodd" d="M56.2098 88.9718C56.0578 88.9718 55.9033 88.9341 55.7639 88.8525C55.3356 88.6038 55.1873 88.0586 55.4361 87.6303L63.3044 74.0013C64.4664 71.9902 67.2349 71.4074 69.477 72.7025L75.102 75.9496C75.5303 76.1958 75.676 76.7434 75.4298 77.1705C75.1824 77.5988 74.636 77.7458 74.2076 77.4984L68.5827 74.25C67.1934 73.4486 65.5228 73.7375 64.8532 74.8957L56.9849 88.5246C56.8178 88.811 56.5188 88.9718 56.2098 88.9718ZM80.5134 99.3286C80.3601 99.3286 80.2081 99.2897 80.0662 99.2068C79.6391 98.9606 79.4922 98.4129 79.7396 97.9871L86.0165 87.114C86.328 86.5751 86.3745 85.9194 86.1509 85.2637C85.9122 84.5641 85.3997 83.9611 84.7101 83.5617L79.0839 80.3146C78.6581 80.0684 78.5099 79.5207 78.7561 79.0936C79.0048 78.6653 79.5524 78.5171 79.9783 78.7658L85.6045 82.0129C86.6684 82.6284 87.4635 83.5768 87.8429 84.6834C88.2373 85.8353 88.1381 87.0173 87.5665 88.0084L81.2884 98.8814C81.1226 99.1678 80.8224 99.3286 80.5134 99.3286Z" fill="#53545B"/>
<mask id="mask1_145_2655" style="mask-type:luminance" maskUnits="userSpaceOnUse" x="27" y="86" width="60" height="21">
<path d="M27.1367 86.8762H86.9811V106.629H27.1367V86.8762Z" fill="white"/>
</mask>
<g mask="url(#mask1_145_2655)">
<path fill-rule="evenodd" clip-rule="evenodd" d="M28.9769 104.992H84.9638C84.5216 101.583 81.5999 98.9388 78.0702 98.9388C77.0351 98.9388 76.039 99.1599 75.1095 99.5983C74.8896 99.7026 74.6384 99.7114 74.4123 99.6259C74.185 99.5405 74.0028 99.3672 73.9074 99.1436C71.2092 92.8931 65.068 88.8559 58.2623 88.8559C53.5556 88.8559 49.0122 90.8305 45.8002 94.2786C45.5591 94.5374 45.1898 94.6303 44.8544 94.5148C43.6045 94.0864 42.2944 93.8704 40.9604 93.8704C34.6358 93.8704 29.4354 98.7818 28.9769 104.992ZM85.9134 106.781H28.0487C27.555 106.781 27.1543 106.381 27.1543 105.888C27.1543 98.2743 33.3483 92.0816 40.9604 92.0816C42.2982 92.0816 43.6158 92.2713 44.887 92.6469C48.4092 89.0921 53.2491 87.0659 58.2623 87.0659C65.4888 87.0659 72.037 91.186 75.1823 97.6375C76.1068 97.3134 77.0728 97.1501 78.0702 97.1501C82.8899 97.1489 86.8078 101.07 86.8078 105.888C86.8078 106.381 86.4071 106.782 85.9134 106.781Z" fill="#53545B"/>
</g>
</svg>
