<svg width="24" height="25" viewBox="0 0 24 25" fill="none" xmlns="http://www.w3.org/2000/svg">
<g clip-path="url(#clip0)">
<path d="M12 24.0479C18.6172 24.0479 24 18.6651 24 12.0479C24 5.43065 18.6172 0.0478516 12 0.0478516C5.3828 0.0478516 0 5.43159 0 12.0479C0 18.6641 5.3828 24.0479 12 24.0479ZM12 1.90687C17.591 1.90687 22.141 6.4559 22.141 12.0479C22.141 17.6398 17.591 22.1888 12 22.1888C6.40805 22.1888 1.85902 17.6398 1.85902 12.0479C1.85902 6.4559 6.40899 1.90687 12 1.90687Z" fill="#152C5B"/>
<path d="M6.69244 10.7646L11.34 15.4121C11.7025 15.7728 12.2881 15.7728 12.6506 15.4121L17.2982 10.7646C17.5966 10.4169 17.5966 9.90291 17.2982 9.55528C16.9645 9.1658 16.3771 9.12028 15.9876 9.45398L12 13.4415L8.00307 9.45394C7.64054 9.09328 7.05498 9.09328 6.69244 9.45394C6.33179 9.81647 6.33179 10.4021 6.69244 10.7646Z" fill="#152C5B"/>
</g>
<defs>
<clipPath id="clip0">
<rect width="24" height="24" fill="white" transform="translate(24 24.0479) rotate(180)"/>
</clipPath>
</defs>
</svg>
