<svg width="136" height="136" viewBox="0 0 136 136" fill="none" xmlns="http://www.w3.org/2000/svg">
<rect x="0.636719" y="0.311523" width="135" height="135" rx="67.5" fill="white"/>
<rect x="1.13672" y="0.811523" width="134" height="134" rx="67" stroke="#53545B" stroke-opacity="0.7" stroke-dasharray="2 2"/>
<mask id="mask0_145_2657" style="mask-type:luminance" maskUnits="userSpaceOnUse" x="25" y="19" width="86" height="79">
<path d="M25.6367 19.3115H110.637V97.5581H25.6367V19.3115Z" fill="white"/>
</mask>
<g mask="url(#mask0_145_2657)">
<path d="M110.166 60.9142L106.06 58.9432C106.36 57.5277 106.513 56.0601 106.513 54.5707C106.513 49.0847 104.434 44.2477 101.295 41.4411C101.077 34.7228 97.5629 24.657 93.1613 24.657C91.2631 24.657 89.3334 26.5806 87.7263 30.0725C86.6055 32.5081 85.748 35.476 85.3199 38.3263C83.7007 35.7368 81.6205 33.3474 79.0892 31.1836C78.8369 30.9677 78.4658 30.9677 78.2135 31.1836C71.2005 37.1789 67.6928 44.8299 67.7729 53.9363L62.9188 51.6076L61.8406 23.193C61.826 22.8303 61.5288 22.5441 61.1662 22.5441H56.5305C56.1678 22.5441 55.8707 22.8303 55.8573 23.193L54.9246 47.7712L54.4564 47.5468C54.2478 47.4461 54.0028 47.4607 53.8063 47.5832C53.6098 47.7069 53.491 47.9228 53.491 48.1545V60.4508L51.6498 59.5666L48.8431 19.9655C48.8177 19.6137 48.5241 19.3396 48.1712 19.3396H42.5433C42.1892 19.3396 41.8956 19.6137 41.8714 19.9667L39.4795 53.7265L26.6022 47.5468C26.3936 47.4461 26.1473 47.4607 25.9509 47.5832C25.7556 47.7069 25.6367 47.9228 25.6367 48.1545V96.9361C25.6367 97.3072 25.9375 97.6092 26.3099 97.6092H109.875C110.247 97.6092 110.549 97.3072 110.549 96.9361V61.5218C110.549 61.2623 110.4 61.027 110.166 60.9142ZM105.165 54.5707C105.165 55.8527 105.043 57.1178 104.806 58.3416L95.6659 53.9558V52.2662L99.3519 49.3686C99.6454 49.1393 99.6952 48.7148 99.4659 48.4225C99.2355 48.1302 98.8122 48.0793 98.5186 48.3097L95.6659 50.5511V47.1296C95.6659 46.7572 95.3639 46.4552 94.9927 46.4552C94.6204 46.4552 94.3184 46.7572 94.3184 47.1296V53.3081L89.4255 50.9599C89.2327 48.5693 88.7718 46.2684 88.0501 44.1058C89.9459 41.6036 92.3984 40.2257 94.9927 40.2257C100.601 40.2257 105.165 46.6614 105.165 54.5707ZM93.1613 26.0045C95.9497 26.0045 99.3568 33.4929 99.8868 40.3676C98.401 39.4131 96.7418 38.8782 94.9927 38.8782C94.6034 38.8782 94.2177 38.9037 93.8356 38.9558V31.1714C93.8356 30.7991 93.5336 30.4983 93.1613 30.4983C92.7901 30.4983 92.4881 30.7991 92.4881 31.1714V35.0915L90.995 33.4893C90.7415 33.2164 90.3158 33.2018 90.0429 33.4553C89.7712 33.7088 89.7554 34.1358 90.0089 34.4075L92.4881 37.0686V39.2457C90.6518 39.7939 88.9513 40.945 87.5092 42.6273C87.1914 41.834 86.8384 41.0541 86.4442 40.2912C87.0264 33.3134 90.4492 26.0045 93.1613 26.0045ZM78.6514 32.5881C82.4538 35.9527 85.1476 39.857 86.6638 44.2028C87.3321 46.1204 87.7808 48.1605 88.0089 50.2807L82.3119 47.5468C82.1033 47.4461 81.857 47.4607 81.6618 47.5832C81.4653 47.7069 81.3464 47.9228 81.3464 48.1545V60.4508L79.3257 59.4817V48.5681C79.3366 48.5535 79.3476 48.5414 79.3573 48.5256L82.5593 43.6886C82.7655 43.3781 82.6794 42.9596 82.3701 42.7546C82.0596 42.5484 81.6411 42.6345 81.4362 42.9451L79.3257 46.1326V41.5599C79.3257 41.1876 79.0237 40.8855 78.6514 40.8855C78.279 40.8855 77.9782 41.1876 77.9782 41.5599V51.1345L75.3353 47.9616C75.0963 47.6754 74.6718 47.6365 74.3856 47.8743C74.0993 48.1132 74.0605 48.5377 74.2995 48.824L77.9782 53.2401V58.834L69.1337 54.5901C68.8839 45.7978 72.0823 38.4003 78.6514 32.5881ZM60.7829 30.8961H56.9138L57.0278 27.8869H60.6689L60.7829 30.8961ZM60.5173 23.8916L60.618 26.5394H57.0787L57.1794 23.8916H60.5173ZM56.8628 32.2436H60.8351L61.5446 50.9478L56.2491 48.4067L56.8628 32.2436ZM48.307 31.4662H42.4075L42.7119 27.1664H48.0026L48.307 31.4662ZM47.5429 20.6871L47.9068 25.8189H42.8077L43.1716 20.6871H47.5429ZM42.3117 32.8137H48.4016L50.2501 58.8959L40.7858 54.3536L42.3117 32.8137ZM109.201 96.2617H26.9843V49.2254L53.8742 62.1295C54.0829 62.2302 54.3279 62.2156 54.5244 62.0919C54.7208 61.9694 54.8397 61.7535 54.8397 61.5218V49.2254L81.7285 62.1295C81.9371 62.2302 82.1833 62.2156 82.3798 62.0919C82.5751 61.9694 82.6939 61.7535 82.6939 61.5218V49.2254L109.201 61.9463V96.2617ZM60.1825 71.0977C53.8051 74.5083 50.1191 80.8142 49.5224 89.3348C49.5017 89.6271 49.6728 89.8988 49.9457 90.008C50.2186 90.1159 50.5291 90.0359 50.7158 89.8091C56.2624 83.0496 63.0935 78.8008 71.0695 77.1391C64.4143 80.5316 58.6421 85.4548 53.867 91.8225C53.7117 92.0287 53.6887 92.3064 53.8075 92.5357C53.924 92.76 54.1544 92.9007 54.4067 92.9007C54.4116 92.9007 54.4176 92.9007 54.4237 92.9007C65.4307 92.6145 73.7282 89.8928 79.0868 84.8083C84.0342 80.1144 86.5825 73.3161 86.6626 64.605C86.6638 64.3552 86.5279 64.1247 86.3084 64.0058C86.0876 63.887 85.8196 63.9003 85.6122 64.0398C81.5235 66.7846 76.57 67.4711 71.7803 68.1345C67.5764 68.7167 63.6078 69.2662 60.1825 71.0977ZM85.2847 65.83C84.9912 73.5671 82.5969 79.6195 78.1589 83.8307C73.2794 88.4603 65.7679 91.0377 55.8149 91.5011C61.3105 84.556 68.0797 79.4885 75.9563 76.4271C76.268 76.3059 76.4439 75.9747 76.3699 75.6485C76.2983 75.3404 76.0242 75.1245 75.7125 75.1245C75.6955 75.1245 75.6773 75.1257 75.6591 75.1269C65.9681 75.9007 57.7131 79.9967 51.0906 87.3105C51.8378 82.0489 54.2175 75.8158 60.8181 72.2863C64.0298 70.5676 67.8844 70.034 71.9646 69.47C76.5033 68.8405 81.1839 68.1928 85.2847 65.83Z" fill="#53545B"/>
</g>
</svg>
