<svg width="123" height="83" viewBox="0 0 123 83" fill="none" xmlns="http://www.w3.org/2000/svg">
<path d="M109.941 24.6893C110.197 24.0686 110.443 23.4425 110.706 22.8246C111.915 19.9687 113.139 17.1184 114.334 14.257C114.491 13.8824 114.874 13.3502 114.268 13.0862C113.596 12.7918 113.613 13.4898 113.454 13.8534C112.594 15.8163 111.745 17.7833 110.904 19.7545C110.251 21.2819 109.521 22.7776 108.964 24.3479C108.764 24.9132 108.981 25.1164 109.448 25.2284C109.791 25.1925 109.845 24.9215 109.941 24.6893ZM113.486 40.9909C113.563 41.6088 114.035 41.7346 114.547 41.729C115.017 41.7263 115.211 41.4775 115.185 40.984C114.968 36.902 115.33 32.8422 115.685 28.7837C116.155 23.4148 116.626 18.0473 117.631 12.7448C117.738 12.1794 117.822 11.6057 117.85 11.0335C117.866 10.6907 117.642 10.4018 117.282 10.3658C116.93 10.3299 116.933 10.6824 116.85 10.9063C116.729 11.238 116.624 11.5753 116.527 11.914C115.392 15.9089 114.874 20.0088 114.39 24.1198C113.847 28.7381 113.486 33.3675 113.299 38.012C113.265 39.0114 113.363 40.0025 113.486 40.9909ZM33.2592 61.8417C32.9344 61.6937 32.7201 61.9274 32.5031 62.1181C30.5762 63.817 28.7446 65.6167 26.9752 67.4787C26.7596 67.7054 26.5937 67.9957 26.4693 68.2846C26.3961 68.4532 26.4901 68.662 26.6559 68.7947C26.8743 68.9702 27.0057 68.8126 27.1301 68.6634C28.9174 66.507 31.0392 64.6795 33.0035 62.6973C33.1583 62.5411 33.2855 62.36 33.45 62.161C33.3809 62.0366 33.3463 61.8804 33.2592 61.8417ZM20.8627 70.6774C23.8236 67.834 26.8522 65.068 30.1048 62.5577C34.1577 59.4281 38.2494 56.3511 42.4903 53.4773C42.7046 53.3322 42.9782 53.1898 42.84 52.8829C42.6672 52.4986 42.3424 52.6673 42.1046 52.8C41.4052 53.1884 40.703 53.5768 40.0381 54.0219C34.1273 57.9809 28.4668 62.2633 23.2637 67.129C22.115 68.2017 20.976 69.2854 19.8398 70.3705C19.6849 70.517 19.4638 70.6663 19.649 70.9345C19.7624 71.0962 19.9006 71.2262 20.1494 71.2414C20.4673 71.1916 20.6401 70.8916 20.8627 70.6774ZM119.423 5.5374C119.347 5.50837 119.271 5.47934 119.195 5.45032C117.427 7.12982 115.631 8.78168 113.894 10.493C106.112 18.1634 98.3633 25.867 89.833 32.7247C84.572 36.9545 79.5735 41.4899 74.4866 45.9216C73.9033 46.4303 73.7623 46.6791 74.629 47.0122C75.8247 47.4739 76.9748 48.0559 78.1401 48.5964C87.7043 53.0253 96.0216 59.3245 104.068 66.0052C107.626 68.9592 111.011 72.1205 114.511 75.1464C115.563 76.0546 116.738 76.8204 117.969 77.7355C117.721 74.0336 117.537 70.5419 117.241 67.0613C116.796 61.8043 116.72 56.5364 116.812 51.2725C116.948 43.2786 117.291 35.2875 117.858 27.3102C118.269 21.5473 118.732 15.7886 119.16 10.0271C119.271 8.53287 119.337 7.03444 119.423 5.5374ZM4.58045 79.0943C4.991 78.6602 5.26884 78.3533 5.56189 78.0617C12.6573 70.9801 20.0761 64.2552 27.9387 58.0306C33.2772 53.8035 38.87 49.9413 44.8692 46.6998C45.624 46.292 45.7705 46.1303 45.1167 45.4212C38.8838 38.6645 32.311 32.2409 25.8528 25.7053C18.9675 18.7357 12.5163 11.3473 5.48033 4.52002C5.26608 4.31129 5.13614 3.96433 4.79885 3.97677C5.92958 28.9703 4.96197 53.9459 4.58045 79.0943ZM4.55004 80.7268C5.10987 80.7268 5.3974 80.7268 5.68353 80.7268C10.8216 80.7295 15.9486 80.3342 21.0908 80.3867C29.2809 80.4724 37.4739 80.0481 45.6627 80.3162C51.7946 80.5167 57.9307 80.2692 64.0612 80.6134C69.6458 80.9286 75.2414 80.6521 80.8314 80.8014C86.7449 80.9604 92.6433 80.4061 98.5554 80.3342C104.076 80.2665 109.571 79.6043 115.085 79.3362C115.937 79.2947 116.787 79.2076 117.839 79.1261C116.176 77.9 114.608 76.8577 113.187 75.6205C108.659 71.6726 104.252 67.5907 99.541 63.8488C91.5526 57.5026 83.1026 51.9568 73.6241 48.0669C72.832 47.7435 72.3288 47.7697 71.6681 48.3448C69.0182 50.6505 66.1734 52.6839 62.972 54.174C59.3849 55.8438 56.0121 55.5743 52.8576 53.0916C51.0565 51.6734 49.4101 50.0893 47.9145 48.371C47.2067 47.5582 46.6815 47.5859 45.8272 48.0504C37.8361 52.3839 30.5858 57.7721 23.6024 63.546C19.3435 67.0668 15.2629 70.7894 11.1672 74.4939C8.98725 76.4665 6.88338 78.5248 4.55004 80.7268ZM117.667 3.89936C117.642 3.77772 117.616 3.65746 117.591 3.53582C80.7167 4.28088 43.8477 3.36856 6.68847 3.34644C7.06446 3.62705 7.28839 3.75975 7.47086 3.93669C11.5169 7.83757 15.6362 11.6583 19.5675 15.6849C30.655 27.0406 42.3106 37.8337 53.1147 49.4741C54.2068 50.6491 55.4481 51.672 56.7696 52.6023C58.0123 53.4801 59.1927 53.5201 60.5419 52.8262C63.2706 51.4232 65.8334 49.7727 68.1473 47.7697C73.3448 43.2703 78.4525 38.6658 83.6762 34.1955C87.8978 30.5835 92.3087 27.1941 96.4805 23.5199C102.63 18.1026 108.501 12.384 114.495 6.79807C115.543 5.82216 116.61 4.8656 117.667 3.89936ZM40.3007 0.880399C51.1491 0.649554 59.4374 0.639877 67.723 0.927398C80.2453 1.36144 92.7704 1.61579 105.3 1.54529C110.124 1.51764 114.93 1.61855 119.731 2.08854C121.217 2.23368 121.394 2.32077 121.722 3.78325C122.067 5.32729 122.031 6.9128 122.06 8.48172C122.19 15.7776 121.796 23.0623 121.622 30.3499C121.402 39.5353 121.171 48.7222 121.395 57.909C121.572 65.0984 121.921 72.2822 122.395 79.4592C122.428 79.9679 122.254 80.2526 121.872 80.4835C121.394 80.7738 120.867 80.8996 120.312 80.912C113.316 81.0682 106.354 81.8755 99.3627 82.087C86.7754 82.4685 74.1936 82.5141 61.6021 82.1036C47.9587 81.6598 34.3056 81.7455 20.6553 81.8437C16.93 81.8699 13.2019 81.7566 9.47797 81.9999C8.29333 82.0759 7.10317 82.0441 5.91714 81.9239C5.09052 81.8395 4.27081 81.7469 3.45801 82.116C2.99079 82.3275 2.44616 82.2584 1.93471 82.1782C1.08735 82.0469 0.621515 81.5949 0.615986 80.6922C0.610456 79.697 0.51093 78.7017 0.524753 77.7064C0.664367 67.8782 0.715512 58.0472 1.0528 48.2231C1.35414 39.3957 1.63751 30.5683 2.01488 21.7436C2.28167 15.5495 2.51943 9.35672 2.54016 3.15568C2.54569 1.36974 2.84703 1.09742 4.59566 1.08913C17.3502 1.02831 30.1048 0.819578 40.3007 0.880399Z" fill="#2C6471"/>
</svg>
