<svg width="45" height="32" viewBox="0 0 45 32" fill="none" xmlns="http://www.w3.org/2000/svg">
<path d="M43.3408 7.4732C43.3408 7.4732 42.9242 4.53235 41.6413 3.24104C40.0167 1.54152 38.2005 1.53318 37.3674 1.43321C31.4024 1 22.4466 1 22.4466 1H22.4299C22.4299 1 13.4741 1 7.50906 1.43321C6.67596 1.53318 4.8598 1.54152 3.23525 3.24104C1.95227 4.53235 1.54405 7.4732 1.54405 7.4732C1.54405 7.4732 1.11084 10.9306 1.11084 14.3796V17.6121C1.11084 21.0611 1.53572 24.5185 1.53572 24.5185C1.53572 24.5185 1.95227 27.4593 3.22692 28.7506C4.85147 30.4502 6.98421 30.3918 7.93395 30.5751C11.3497 30.9 22.4382 31 22.4382 31C22.4382 31 31.4024 30.9833 37.3674 30.5585C38.2005 30.4585 40.0167 30.4502 41.6413 28.7506C42.9242 27.4593 43.3408 24.5185 43.3408 24.5185C43.3408 24.5185 43.7657 21.0694 43.7657 17.6121V14.3796C43.7657 10.9306 43.3408 7.4732 43.3408 7.4732ZM18.0311 21.536V9.54762L29.5529 15.5626L18.0311 21.536Z" fill="white"/>
</svg>
