<svg width="31" height="33" viewBox="0 0 31 33" fill="none" xmlns="http://www.w3.org/2000/svg">
<path d="M27.4059 16.7057C27.2325 16.7057 27.0749 16.5858 27.0373 16.4058C26.8791 15.6699 26.7286 14.9341 26.571 14.1912C26.3529 13.1778 26.1348 12.1414 25.909 11.0679C25.578 9.50627 24.9765 9.07101 23.5096 9.35628C20.7046 9.88918 17.809 10.4974 15.0033 11.0756C11.5063 11.8037 7.88101 12.5543 4.51917 13.1625C3.1428 13.4101 1.26963 13.7483 0.63818 11.9237C0.570567 11.7285 0.675808 11.5108 0.871004 11.4432C1.06679 11.3755 1.28491 11.4808 1.35253 11.6761C1.74351 12.8019 2.85648 12.6972 4.391 12.419C7.7452 11.8185 11.3634 11.0603 14.8528 10.3397C17.6585 9.7539 20.5617 9.15335 23.3744 8.6128C25.2323 8.25989 26.24 8.96572 26.6463 10.9103C26.8715 11.9837 27.0896 13.0201 27.3077 14.0336C27.4659 14.7841 27.624 15.5199 27.774 16.2481C27.8192 16.4505 27.684 16.6534 27.4806 16.691C27.4582 16.7057 27.4283 16.7057 27.4059 16.7057Z" fill="#53545B"/>
<mask id="mask0_171_3974" style="mask-type:luminance" maskUnits="userSpaceOnUse" x="0" y="11" width="30" height="22">
<path d="M0.5 11.2913H29.5489V32.388H0.5V11.2913Z" fill="white"/>
</mask>
<g mask="url(#mask0_171_3974)">
<path d="M7.09133 32.3888C5.37631 32.3888 4.40621 31.3453 3.96995 29.116C3.45845 26.4657 2.87933 23.4776 2.3002 20.4973C1.72108 17.5169 1.14196 14.5365 0.630455 11.8785C0.592827 11.6761 0.72041 11.4809 0.93148 11.4356C1.13432 11.3985 1.3301 11.5262 1.37479 11.7361C1.8863 14.3859 2.46542 17.374 3.04454 20.3543C3.62366 23.3353 4.20278 26.3157 4.71429 28.9731C5.20345 31.5106 6.35405 31.8482 7.92561 31.5629C14.0784 30.4448 18.6737 29.4984 24.9765 28.1849C26.7138 27.8244 27.7216 27.4038 28.2478 26.8109C28.7593 26.2404 28.8798 25.4298 28.6317 24.1682C28.1655 21.8183 27.962 20.8502 27.962 20.8425C27.9168 20.6402 28.0526 20.4373 28.2554 20.3996C28.4582 20.3543 28.6617 20.4896 28.6993 20.6925C28.6993 20.7002 28.9021 21.676 29.3684 24.0258C29.6694 25.5422 29.4965 26.5556 28.8045 27.3215C28.1502 28.042 27.0519 28.5226 25.1264 28.9208C19.0118 30.1966 14.206 31.1806 8.05379 32.2988C7.70749 32.3588 7.38412 32.3888 7.09133 32.3888Z" fill="#53545B"/>
</g>
<path d="M0.991497 12.1784C0.818643 12.1784 0.660487 12.0584 0.622859 11.8778C0.495276 11.2549 0.577588 10.7067 0.878613 10.2638C1.5859 9.228 3.33797 8.92744 5.18821 8.61981C5.51922 8.56746 5.85788 8.50747 6.1883 8.44747C6.39173 8.40983 6.58692 8.54452 6.62455 8.74745C6.66218 8.95038 6.52695 9.14566 6.32411 9.18271C5.98546 9.24271 5.64681 9.30329 5.31638 9.35564C3.69896 9.62562 2.03686 9.91089 1.50301 10.6844C1.31486 10.9549 1.26959 11.2926 1.36014 11.7202C1.40541 11.9231 1.26959 12.126 1.06675 12.1631C1.04441 12.1784 1.02148 12.1784 0.991497 12.1784Z" fill="#53545B"/>
<path d="M24.4422 21.9155C24.0812 21.9155 23.7654 21.8932 23.5173 21.8408C22.3514 21.6002 21.5089 20.8421 21.3137 19.8509C21.1179 18.8751 21.5842 17.8993 22.5549 17.2535C23.3592 16.7129 24.0435 16.5853 26.3077 16.1577C26.6987 16.0824 27.1349 16.0001 27.6388 15.9095C27.8422 15.8724 28.0374 16.0071 28.0827 16.21C28.1203 16.413 27.9851 16.6077 27.7817 16.6529C27.2854 16.7506 26.8415 16.8329 26.4506 16.9082C24.247 17.3211 23.6526 17.4335 22.9758 17.884C22.2685 18.3646 21.9228 19.0481 22.0504 19.7163C22.1862 20.4068 22.81 20.9397 23.6678 21.1126C24.909 21.3679 28.3761 20.8273 29.3162 19.641C29.9253 18.8675 29.88 17.3135 29.2033 16.0977C28.9552 15.6471 28.2332 14.6107 27.0373 14.746C26.8268 14.7684 26.6463 14.6184 26.6234 14.4161C26.6011 14.2131 26.7516 14.0255 26.9544 14.0031C28.1203 13.8679 29.181 14.4984 29.8653 15.7371C30.6925 17.2235 30.7149 19.1004 29.91 20.1139C28.9323 21.3303 26.1725 21.9155 24.4422 21.9155Z" fill="#53545B"/>
<path d="M24.7354 20.1214C24.6531 20.1214 24.5779 20.1138 24.495 20.0914C24.1116 19.9938 23.8183 19.6332 23.7953 19.2356C23.773 18.8074 24.0511 18.4398 24.495 18.2969C24.9159 18.1622 25.3375 18.2898 25.5403 18.6051C25.7661 18.9574 25.7508 19.378 25.5103 19.7162C25.3298 19.9785 25.0365 20.1214 24.7354 20.1214ZM24.8336 18.6274C24.7584 18.6274 24.6831 18.6421 24.6155 18.6651C24.3974 18.7327 24.164 18.9203 24.1792 19.228C24.1863 19.4609 24.3668 19.6785 24.5926 19.7385C24.8713 19.8138 25.0964 19.6709 25.2093 19.5132C25.3298 19.348 25.3975 19.085 25.2322 18.8227C25.1417 18.6798 24.9835 18.6274 24.8336 18.6274Z" fill="#53545B"/>
<path d="M4.0076 13.1097C3.90235 13.1097 3.78947 13.0644 3.71421 12.9744C3.57899 12.8167 3.60133 12.5762 3.76654 12.4485C3.8271 12.3962 10.1821 7.16363 15.7852 2.36633C15.9357 2.23105 16.1691 2.24634 16.3044 2.39633L22.0956 8.70234C22.2384 8.85292 22.2237 9.0929 22.0732 9.23583C21.9227 9.37817 21.6822 9.36347 21.5394 9.21289L15.9963 3.17745C10.4602 7.90711 4.30803 12.9744 4.24806 13.0197C4.17281 13.0797 4.08991 13.1097 4.0076 13.1097Z" fill="#53545B"/>
<mask id="mask1_171_3974" style="mask-type:luminance" maskUnits="userSpaceOnUse" x="2" y="0" width="14" height="14">
<path d="M2.75769 0.767334H15.5513V13.2494H2.75769V0.767334Z" fill="white"/>
</mask>
<g mask="url(#mask1_171_3974)">
<path d="M3.2252 13.1245C3.14288 13.1245 3.05998 13.0945 2.98473 13.0421C2.82657 12.9145 2.79659 12.6739 2.93181 12.5163C2.98473 12.4563 8.09922 6.1879 12.5517 0.910047C12.6193 0.8277 12.7169 0.782409 12.8221 0.774763C12.9274 0.767117 13.0326 0.812407 13.1008 0.887696L15.3867 3.16224C15.5372 3.31222 15.5372 3.54515 15.3867 3.69514C15.2439 3.84513 15.0034 3.84513 14.8529 3.69514L12.8598 1.70587C8.48256 6.90079 3.57149 12.9221 3.51858 12.9821C3.44332 13.0721 3.33808 13.1245 3.2252 13.1245Z" fill="#53545B"/>
</g>
<path d="M24.3898 9.15333C24.2017 9.15333 24.0365 9.01099 24.0135 8.82336L23.9988 8.69572C23.9236 8.02753 23.7507 6.46588 23.1187 5.96298C22.9605 5.83534 22.7877 5.79005 22.5696 5.81299C21.5771 5.93298 19.5687 6.36824 19.5534 6.37589C19.3506 6.42059 19.1478 6.29295 19.1025 6.09062C19.0572 5.88769 19.1854 5.68535 19.3882 5.64006C19.4711 5.62477 21.4489 5.18951 22.4796 5.06951C22.8929 5.01716 23.2692 5.12186 23.5849 5.37714C24.4651 6.07532 24.6456 7.72697 24.7432 8.61278L24.7585 8.74042C24.7808 8.94335 24.6303 9.13098 24.4275 9.15333C24.4198 9.15333 24.4045 9.15333 24.3898 9.15333Z" fill="#53545B"/>
<path d="M8.69309 12.0962C8.64077 12.0962 8.58021 12.0733 8.54258 12.0286C8.47497 11.9457 8.49025 11.8257 8.57315 11.7657C10.0095 10.6322 12.687 8.42474 14.0786 7.2313C14.1386 7.17836 14.2285 7.17131 14.3038 7.21601C14.3491 7.24601 15.5073 7.93713 16.7108 6.85603C16.7861 6.78839 16.899 6.78839 16.9666 6.86309L19.704 9.62583C19.7793 9.70112 19.7793 9.82111 19.704 9.88875C19.6288 9.96404 19.5088 9.96404 19.4412 9.88875L16.8237 7.25365C15.6955 8.16241 14.5972 7.77185 14.2285 7.59892C12.8146 8.8153 10.22 10.9475 8.81362 12.0662C8.77599 12.0809 8.73072 12.0962 8.69309 12.0962Z" fill="#53545B"/>
<path d="M16.5379 28.2674C16.3721 28.3051 16.2145 28.3351 16.0487 28.3651C15.8459 28.4104 15.6425 28.2751 15.6048 28.0722C15.5602 27.8698 15.6954 27.6669 15.8982 27.6293C16.0717 27.5922 16.2369 27.5616 16.4097 27.5246C16.7331 27.4569 17.0565 27.3893 17.3728 27.3216C17.5756 27.2763 17.7785 27.4116 17.8161 27.6146C17.8614 27.8169 17.7338 28.0198 17.5303 28.0651C17.207 28.1251 16.876 28.1927 16.5379 28.2674ZM13.8298 28.8003H13.8228C13.326 28.8909 12.8298 28.9886 12.3335 29.0709C12.1301 29.1086 11.9349 28.9733 11.8973 28.7633C11.8597 28.5604 12.0025 28.3651 12.2054 28.3274C12.7022 28.2374 13.1984 28.1475 13.687 28.0575C13.8904 28.0198 14.0932 28.1551 14.1309 28.3574C14.1609 28.568 14.0256 28.7633 13.8298 28.8003ZM19.7492 27.5546C19.5464 27.5993 19.3506 27.4716 19.3053 27.2693C19.2601 27.0664 19.3806 26.8634 19.584 26.8187C20.0726 26.7058 20.5688 26.5858 21.0503 26.4658C21.2532 26.4205 21.4566 26.5411 21.5089 26.7434C21.5618 26.9464 21.4337 27.1487 21.2308 27.2016C20.7423 27.3216 20.2455 27.4416 19.7569 27.5546H19.7492ZM10.0994 29.4538C10.0923 29.4538 10.0847 29.4538 10.0847 29.4538C9.58845 29.5362 9.08399 29.6115 8.58777 29.6868C8.38493 29.7168 8.18915 29.5738 8.15916 29.3709C8.12918 29.1686 8.27205 28.9733 8.47489 28.9433C8.9717 28.868 9.46792 28.7933 9.96414 28.7104C10.1676 28.6804 10.3628 28.8156 10.4004 29.0256C10.4304 29.2209 10.2952 29.4085 10.0994 29.4538ZM23.4197 26.6387C23.224 26.6758 23.0282 26.5635 22.9758 26.3682C22.9229 26.1652 23.0435 25.9629 23.2463 25.91C23.525 25.8353 23.7954 25.7676 24.0741 25.6923C24.2993 25.6323 24.4874 25.5723 24.6532 25.5047C24.8484 25.43 25.0666 25.52 25.1418 25.7153C25.2171 25.91 25.1265 26.1282 24.9313 26.2029C24.7355 26.2782 24.5174 26.3535 24.2617 26.4205C23.9836 26.4958 23.7131 26.5711 23.4344 26.6387C23.4268 26.6387 23.4268 26.6387 23.4197 26.6387ZM6.36183 29.9944C6.35419 29.9944 6.34654 29.9944 6.33185 30.002C5.83504 30.0691 5.32353 30.1297 4.82731 30.1897C4.61682 30.212 4.42868 30.0691 4.40634 29.8591C4.38341 29.6491 4.52628 29.4615 4.73735 29.4385C5.23357 29.3785 5.73744 29.3185 6.23366 29.2509C6.44414 29.2209 6.63228 29.3709 6.65521 29.5738C6.6852 29.7767 6.54938 29.9567 6.36183 29.9944ZM26.0896 24.5065C26.0596 24.5136 26.0367 24.5136 26.0067 24.5136C25.7962 24.5136 25.631 24.3413 25.631 24.1313C25.638 23.8154 25.5857 23.4254 25.4881 22.9372C25.4728 22.8696 25.4575 22.7949 25.4428 22.7273C25.3976 22.5243 25.5252 22.322 25.7286 22.2767H25.7362C25.9391 22.2314 26.1348 22.3591 26.1795 22.562C26.1948 22.6373 26.2172 22.712 26.2324 22.7873C26.3453 23.3278 26.3977 23.7707 26.3906 24.146C26.3906 24.3189 26.2624 24.4689 26.0896 24.5065Z" fill="#53545B"/>
<path d="M24.525 17.1338H24.5173C24.3145 17.1714 24.1117 17.0361 24.0811 16.8332C24.0811 16.8332 24.0588 16.6909 24.0135 16.4432C23.9759 16.2403 24.1117 16.045 24.3221 16.0074C24.525 15.9703 24.7208 16.105 24.7584 16.3156C24.8031 16.5632 24.826 16.7056 24.826 16.7056C24.856 16.8932 24.7284 17.0885 24.525 17.1338ZM24.0664 14.5063C24.0588 14.5063 24.0588 14.5063 24.0511 14.5063C23.8483 14.544 23.6525 14.401 23.6149 14.1981C23.5849 14.0034 23.5472 13.8081 23.5173 13.6129C23.5096 13.5752 23.502 13.5299 23.4949 13.4929C23.442 13.2523 23.3667 13.05 23.2691 12.8847C23.1639 12.7041 23.2162 12.4718 23.3967 12.3665C23.5772 12.2612 23.8106 12.3141 23.9159 12.4941C24.0588 12.7341 24.1716 13.0123 24.2392 13.3352C24.2469 13.3876 24.2616 13.4329 24.2692 13.4852C24.2992 13.6805 24.3368 13.8758 24.3668 14.0705C24.3974 14.2734 24.2616 14.4687 24.0664 14.5063ZM21.667 12.3441C21.6594 12.3441 21.6517 12.3441 21.6447 12.3518C21.5994 12.3588 21.5541 12.3665 21.5018 12.3741C21.0426 12.4565 20.5993 12.5318 20.1701 12.6141C19.9673 12.6518 19.7644 12.5165 19.7339 12.3065C19.6962 12.1036 19.8321 11.9089 20.0272 11.8712H20.0349C20.4711 11.7959 20.915 11.7136 21.3736 11.6307C21.4336 11.623 21.4865 11.6083 21.5394 11.6007C21.7423 11.5707 21.9381 11.7136 21.968 11.9236C21.9904 12.1265 21.8552 12.3065 21.667 12.3441ZM17.9442 13.02H17.9365C17.4327 13.117 16.9364 13.2076 16.4549 13.2976C16.2521 13.3352 16.0487 13.1999 16.011 12.997C15.9734 12.7947 16.1092 12.5994 16.3121 12.5541C16.8006 12.4641 17.2898 12.3665 17.8013 12.2765C18.0041 12.2388 18.2076 12.3741 18.2452 12.5765C18.2752 12.787 18.1394 12.9747 17.9442 13.02ZM14.2284 13.7329C13.7322 13.8305 13.236 13.9281 12.7397 14.0334C12.5363 14.0781 12.3335 13.9428 12.2958 13.7405C12.2506 13.5376 12.3858 13.3423 12.5892 13.2976C13.0854 13.1999 13.5817 13.1023 14.0708 12.997C14.2737 12.9594 14.4771 13.087 14.5147 13.2976C14.5594 13.4929 14.4318 13.6876 14.2284 13.7329ZM5.34638 15.5798C5.14296 15.6245 4.94012 15.4898 4.90249 15.2869C4.85722 15.0839 4.98539 14.8816 5.19587 14.8363C5.70738 14.7316 6.19596 14.6263 6.67748 14.521C6.88032 14.4763 7.08375 14.611 7.12843 14.8139C7.1737 15.0169 7.03847 15.2192 6.83563 15.2645C6.34647 15.3621 5.85025 15.4668 5.34638 15.5798ZM10.5208 14.4834C10.2351 14.544 9.94937 14.604 9.65598 14.664L9.03923 14.7916C8.83581 14.8363 8.63297 14.7016 8.5877 14.4987C8.54242 14.2958 8.67824 14.0934 8.88108 14.0481L9.49783 13.9205C9.79121 13.8605 10.0769 13.8005 10.3627 13.7405C10.5661 13.6952 10.769 13.8305 10.8066 14.0334C10.8589 14.2434 10.7313 14.4387 10.5208 14.4834ZM3.08987 15.7974C3.05224 15.8051 3.01461 15.8051 2.97698 15.8051C2.25499 15.7451 1.7135 15.5198 1.36015 15.1369C1.21728 14.9869 1.23198 14.7463 1.38249 14.604C1.533 14.461 1.77347 14.4763 1.91634 14.6263C2.13447 14.8663 2.51839 15.0092 3.0446 15.0539C3.25508 15.0692 3.40559 15.2569 3.39089 15.4598C3.37561 15.6321 3.24802 15.7674 3.08987 15.7974Z" fill="#53545B"/>
<path d="M4.04518 26.308C4.00755 26.308 3.96228 26.2927 3.9323 26.2703C3.8494 26.2103 3.83411 26.0903 3.90231 26.0074L5.8578 23.5076C5.91777 23.4252 6.0383 23.4099 6.12061 23.4776C6.20351 23.5376 6.21879 23.6576 6.15059 23.7405L4.1951 26.2403C4.15042 26.2856 4.09751 26.308 4.04518 26.308Z" fill="#53545B"/>
<path d="M4.36095 28.2971C4.31568 28.2971 4.27805 28.2824 4.24043 28.2524C4.15811 28.1847 4.15047 28.0718 4.21044 27.9894L5.82728 26.0002C5.89548 25.9172 6.00777 25.9096 6.09067 25.9702C6.17357 26.0372 6.18122 26.1502 6.12066 26.2325L4.50382 28.2224C4.47384 28.2671 4.42092 28.2971 4.36095 28.2971Z" fill="#53545B"/>
<path d="M4.97784 29.9261C4.93257 29.9261 4.89494 29.9108 4.85731 29.8808C4.77441 29.8137 4.76736 29.7008 4.82733 29.6184L6.27131 27.8315C6.33892 27.7492 6.45181 27.7415 6.53471 27.8015C6.61761 27.8692 6.62466 27.9815 6.56469 28.0644L5.12071 29.8508C5.09073 29.8961 5.03781 29.9261 4.97784 29.9261Z" fill="#53545B"/>
</svg>
