<svg width="26" height="28" viewBox="0 0 26 28" fill="none" xmlns="http://www.w3.org/2000/svg">
<path d="M10.5616 26.1417H15.3616C21.3616 26.1417 23.7616 23.7413 23.7616 17.7402V10.539C23.7616 4.53788 21.3616 2.13745 15.3616 2.13745H10.5616C4.56162 2.13745 2.16162 4.53788 2.16162 10.539V17.7402C2.16162 23.7413 4.56162 26.1417 10.5616 26.1417Z" stroke="#6DAD55" stroke-width="2.5" stroke-linecap="round" stroke-linejoin="round"/>
<path d="M18.3615 8.83442V10.0344C18.3615 11.0184 17.5575 11.8344 16.5615 11.8344H9.36152C8.37752 11.8344 7.56152 11.0304 7.56152 10.0344V8.83442C7.56152 7.85042 8.36552 7.03442 9.36152 7.03442H16.5615C17.5575 7.03442 18.3615 7.83842 18.3615 8.83442Z" stroke="#6DAD55" stroke-width="2.5" stroke-linecap="round" stroke-linejoin="round"/>
<path d="M8.32487 16.5397H8.33873" stroke="#6DAD55" stroke-width="2.5" stroke-linecap="round" stroke-linejoin="round"/>
<path d="M12.9562 16.5397H12.9701" stroke="#6DAD55" stroke-width="2.5" stroke-linecap="round" stroke-linejoin="round"/>
<path d="M17.5871 16.5397H17.6009" stroke="#6DAD55" stroke-width="2.5" stroke-linecap="round" stroke-linejoin="round"/>
<path d="M8.32487 20.7407H8.33873" stroke="#6DAD55" stroke-width="2.5" stroke-linecap="round" stroke-linejoin="round"/>
<path d="M12.9562 20.7407H12.9701" stroke="#6DAD55" stroke-width="2.5" stroke-linecap="round" stroke-linejoin="round"/>
<path d="M17.5871 20.7407H17.6009" stroke="#6DAD55" stroke-width="2.5" stroke-linecap="round" stroke-linejoin="round"/>
</svg>
