<svg width="33" height="33" viewBox="0 0 33 33" fill="none" xmlns="http://www.w3.org/2000/svg">
<g clip-path="url(#clip0_8_261)">
<path d="M3.5 5.90082C3.5 5.6356 3.60536 5.38125 3.79289 5.19371C3.98043 5.00618 4.23478 4.90082 4.5 4.90082H7.5V5.90082H5.5C5.23478 5.90082 4.98043 6.00618 4.79289 6.19371C4.60536 6.38125 4.5 6.6356 4.5 6.90082V28.9008C4.5 29.166 4.60536 29.4204 4.79289 29.6079C4.98043 29.7955 5.23478 29.9008 5.5 29.9008H11.5V27.9008H6.5V7.90082H22.5V11.9008H24.5V6.90082C24.5 6.6356 24.3946 6.38125 24.2071 6.19371C24.0196 6.00618 23.7652 5.90082 23.5 5.90082H21.5V4.90082H24.5C24.7652 4.90082 25.0196 5.00618 25.2071 5.19371C25.3946 5.38125 25.5 5.6356 25.5 5.90082V12.9008H27.5V5.90082C27.5 5.10517 27.1839 4.34211 26.6213 3.7795C26.0587 3.21689 25.2956 2.90082 24.5 2.90082H23.5C23.5 2.37038 23.2893 1.86168 22.9142 1.4866C22.5391 1.11153 22.0304 0.900818 21.5 0.900818H7.5C6.96957 0.900818 6.46086 1.11153 6.08579 1.4866C5.71071 1.86168 5.5 2.37038 5.5 2.90082H4.5C3.70435 2.90082 2.94129 3.21689 2.37868 3.7795C1.81607 4.34211 1.5 5.10517 1.5 5.90082V31.9008C1.5 32.166 1.60536 32.4204 1.79289 32.6079C1.98043 32.7955 2.23478 32.9008 2.5 32.9008H12.5V30.9008H3.5V5.90082ZM9.5 2.90082H19.5V5.90082H9.5V2.90082Z" fill="#6DAD55"/>
<path d="M22.5 14.9008C20.72 14.9008 18.9799 15.4287 17.4999 16.4176C16.0198 17.4065 14.8663 18.8121 14.1851 20.4567C13.5039 22.1012 13.3257 23.9108 13.6729 25.6566C14.0202 27.4025 14.8774 29.0061 16.136 30.2648C17.3947 31.5235 18.9984 32.3806 20.7442 32.7279C22.49 33.0752 24.2996 32.8969 25.9442 32.2157C27.5887 31.5345 28.9943 30.381 29.9832 28.9009C30.9722 27.4209 31.5 25.6809 31.5 23.9008C31.5 21.5139 30.5518 19.2247 28.864 17.5369C27.1761 15.849 24.887 14.9008 22.5 14.9008ZM22.5 30.9008C21.1155 30.9008 19.7622 30.4903 18.611 29.7211C17.4599 28.9519 16.5627 27.8587 16.0328 26.5796C15.503 25.3005 15.3644 23.8931 15.6345 22.5352C15.9046 21.1773 16.5713 19.93 17.5503 18.9511C18.5292 17.9721 19.7765 17.3054 21.1344 17.0353C22.4922 16.7652 23.8997 16.9038 25.1788 17.4337C26.4579 17.9635 27.5511 18.8607 28.3203 20.0118C29.0895 21.163 29.5 22.5163 29.5 23.9008C29.5 25.7573 28.7625 27.5378 27.4498 28.8506C26.137 30.1633 24.3565 30.9008 22.5 30.9008Z" fill="#6DAD55"/>
<path d="M23.5 19.9008H21.5V23.9008C21.4993 24.0324 21.5245 24.1629 21.5742 24.2847C21.624 24.4066 21.6973 24.5174 21.79 24.6108L24.79 27.6108L26.2 26.2008L23.5 23.4908V19.9008Z" fill="#6DAD55"/>
</g>
<defs>
<clipPath id="clip0_8_261">
<rect width="32" height="32" fill="white" transform="translate(0.5 0.900818)"/>
</clipPath>
</defs>
</svg>
