<svg width="34" height="36" viewBox="0 0 34 36" fill="none" xmlns="http://www.w3.org/2000/svg">
<path d="M26.2911 20.3376C25.6211 20.9918 25.2382 21.9332 25.3339 22.9384C25.4775 24.6617 27.0568 25.9222 28.7798 25.9222H31.8109V27.8209C31.8109 31.1238 29.1148 33.8204 25.8125 33.8204H7.49836C4.19607 33.8204 1.5 31.1238 1.5 27.8209V17.0826C1.5 13.7797 4.19607 11.0832 7.49836 11.0832H25.8125C29.1148 11.0832 31.8109 13.7797 31.8109 17.0826V19.3803H28.5883C27.695 19.3803 26.8814 19.7313 26.2911 20.3376Z" stroke="#6DAD55" stroke-width="3" stroke-linecap="round" stroke-linejoin="round"/>
<path d="M1.5 18.5186V11.2269C1.5 9.32809 2.66458 7.6367 4.43537 6.96655L17.1021 2.17976C19.0803 1.42983 21.2021 2.89783 21.2021 5.01997V11.0832" stroke="#6DAD55" stroke-width="3" stroke-linecap="round" stroke-linejoin="round"/>
</svg>
