<svg width="28" height="27" viewBox="0 0 28 27" fill="none" xmlns="http://www.w3.org/2000/svg">
<g clip-path="url(#clip0_72_282)">
<path d="M22.3458 9.39966H5.75205C5.29383 9.39966 4.92236 9.77112 4.92236 10.2293V21.845C4.92236 22.3032 5.29383 22.6747 5.75205 22.6747H22.3458C22.804 22.6747 23.1755 22.3032 23.1755 21.845V10.2293C23.1755 9.77112 22.804 9.39966 22.3458 9.39966Z" stroke="black" stroke-width="0.829688" stroke-linecap="round" stroke-linejoin="round"/>
<path d="M10.3154 9.39968V5.66609C10.3154 4.67588 10.7088 3.72622 11.409 3.02604C12.1092 2.32585 13.0588 1.9325 14.049 1.9325C15.0392 1.9325 15.9889 2.32585 16.6891 3.02604C17.3893 3.72622 17.7826 4.67588 17.7826 5.66609V9.39968" stroke="black" stroke-width="0.829688" stroke-linecap="round" stroke-linejoin="round"/>
<path d="M14.0489 16.8668C14.5071 16.8668 14.8786 16.4954 14.8786 16.0371C14.8786 15.5789 14.5071 15.2075 14.0489 15.2075C13.5907 15.2075 13.2192 15.5789 13.2192 16.0371C13.2192 16.4954 13.5907 16.8668 14.0489 16.8668Z" fill="black"/>
</g>
<defs>
<clipPath id="clip0_72_282">
<rect width="26.55" height="26.55" fill="white" transform="translate(0.773926 0.273071)"/>
</clipPath>
</defs>
</svg>
